G04 (Genere par PCBnew (20080825)) le 22/11/2008-17:02:34*
G01*
G70*
G90*
%MOIN*%
G04 Gerber Fmt 3.4, Leading zero omitted, Abs format*
%FSLAX34Y34*%
G04 APERTURE LIST*
%ADD10C,0.003000*%
%ADD11R,0.090000X0.062000*%
%ADD12O,0.090000X0.062000*%
%ADD13C,0.055000*%
%ADD14R,0.055000X0.055000*%
%ADD15R,0.062000X0.090000*%
%ADD16O,0.062000X0.090000*%
%ADD17R,0.060000X0.060000*%
%ADD18C,0.060000*%
%ADD19C,0.100000*%
%ADD20C,0.050000*%
%ADD21C,0.045000*%
%ADD22C,0.002500*%
%ADD23C,0.012000*%
%ADD24C,0.015000*%
%ADD25C,0.006000*%
%ADD26C,0.008000*%
%ADD27C,0.001000*%
%ADD28R,0.110000X0.082000*%
%ADD29O,0.110000X0.082000*%
%ADD30C,0.075000*%
%ADD31R,0.075000X0.075000*%
%ADD32R,0.082000X0.110000*%
%ADD33O,0.082000X0.110000*%
%ADD34R,0.080000X0.080000*%
%ADD35C,0.080000*%
%ADD36C,0.120000*%
%ADD37C,0.070000*%
%ADD38C,0.010000*%
G04 APERTURE END LIST*
G54D10*
X23157Y-07850D02*
X23157Y-07695D01*
X23157Y-07695D02*
X23195Y-07650D01*
X23195Y-07650D02*
X23251Y-07650D01*
X23251Y-07650D02*
X23289Y-07695D01*
X23289Y-07695D02*
X23289Y-07850D01*
X23157Y-07739D02*
X23289Y-07739D01*
X23353Y-07717D02*
X23353Y-07806D01*
X23353Y-07806D02*
X23391Y-07850D01*
X23391Y-07850D02*
X23447Y-07850D01*
X23447Y-07850D02*
X23485Y-07806D01*
X23485Y-07806D02*
X23485Y-07717D01*
X23681Y-07650D02*
X23681Y-07850D01*
X23681Y-07850D02*
X23568Y-07850D01*
X23568Y-07850D02*
X23549Y-07828D01*
X23549Y-07828D02*
X23549Y-07739D01*
X23549Y-07739D02*
X23568Y-07717D01*
X23568Y-07717D02*
X23681Y-07717D01*
X23802Y-07650D02*
X23802Y-07673D01*
X23802Y-07739D02*
X23802Y-07828D01*
X23802Y-07828D02*
X23820Y-07850D01*
X23820Y-07850D02*
X23839Y-07850D01*
X23960Y-07850D02*
X23941Y-07828D01*
X23941Y-07828D02*
X23941Y-07739D01*
X23941Y-07739D02*
X23960Y-07717D01*
X23960Y-07717D02*
X24054Y-07717D01*
X24054Y-07717D02*
X24073Y-07739D01*
X24073Y-07739D02*
X24073Y-07828D01*
X24073Y-07828D02*
X24054Y-07850D01*
X24054Y-07850D02*
X23960Y-07850D01*
X24352Y-07850D02*
X24333Y-07828D01*
X24333Y-07828D02*
X24333Y-07673D01*
X24333Y-07673D02*
X24352Y-07650D01*
X24352Y-07650D02*
X24446Y-07650D01*
X24446Y-07650D02*
X24465Y-07673D01*
X24465Y-07673D02*
X24465Y-07828D01*
X24465Y-07828D02*
X24446Y-07850D01*
X24446Y-07850D02*
X24352Y-07850D01*
X24529Y-07717D02*
X24529Y-07806D01*
X24529Y-07806D02*
X24567Y-07850D01*
X24567Y-07850D02*
X24623Y-07850D01*
X24623Y-07850D02*
X24661Y-07806D01*
X24661Y-07806D02*
X24661Y-07717D01*
X24838Y-07828D02*
X24819Y-07850D01*
X24819Y-07850D02*
X24763Y-07850D01*
X24763Y-07850D02*
X24744Y-07828D01*
X24744Y-07828D02*
X24744Y-07650D01*
X24744Y-07717D02*
X24800Y-07717D01*
X20755Y-07850D02*
X20755Y-07695D01*
X20755Y-07695D02*
X20793Y-07650D01*
X20793Y-07650D02*
X20849Y-07650D01*
X20849Y-07650D02*
X20887Y-07695D01*
X20887Y-07695D02*
X20887Y-07850D01*
X20755Y-07739D02*
X20887Y-07739D01*
X20951Y-07717D02*
X20951Y-07806D01*
X20951Y-07806D02*
X20989Y-07850D01*
X20989Y-07850D02*
X21045Y-07850D01*
X21045Y-07850D02*
X21083Y-07806D01*
X21083Y-07806D02*
X21083Y-07717D01*
X21279Y-07650D02*
X21279Y-07850D01*
X21279Y-07850D02*
X21166Y-07850D01*
X21166Y-07850D02*
X21147Y-07828D01*
X21147Y-07828D02*
X21147Y-07739D01*
X21147Y-07739D02*
X21166Y-07717D01*
X21166Y-07717D02*
X21279Y-07717D01*
X21400Y-07650D02*
X21400Y-07673D01*
X21400Y-07739D02*
X21400Y-07828D01*
X21400Y-07828D02*
X21418Y-07850D01*
X21418Y-07850D02*
X21437Y-07850D01*
X21558Y-07850D02*
X21539Y-07828D01*
X21539Y-07828D02*
X21539Y-07739D01*
X21539Y-07739D02*
X21558Y-07717D01*
X21558Y-07717D02*
X21652Y-07717D01*
X21652Y-07717D02*
X21671Y-07739D01*
X21671Y-07739D02*
X21671Y-07828D01*
X21671Y-07828D02*
X21652Y-07850D01*
X21652Y-07850D02*
X21558Y-07850D01*
X21950Y-07850D02*
X22025Y-07850D01*
X21988Y-07850D02*
X21988Y-07650D01*
X21950Y-07650D02*
X22025Y-07650D01*
X22127Y-07850D02*
X22127Y-07717D01*
X22127Y-07739D02*
X22146Y-07717D01*
X22146Y-07717D02*
X22221Y-07717D01*
X22221Y-07717D02*
X22240Y-07739D01*
X22240Y-07739D02*
X22240Y-07850D01*
G54D23*
X26525Y-10275D02*
X26525Y-09848D01*
X26525Y-09848D02*
X26650Y-09725D01*
X26650Y-09725D02*
X26838Y-09725D01*
X26838Y-09725D02*
X26963Y-09848D01*
X26963Y-09848D02*
X26963Y-10275D01*
X26525Y-09970D02*
X26963Y-09970D01*
X27200Y-09725D02*
X27450Y-10275D01*
X27450Y-10275D02*
X27700Y-09725D01*
X27875Y-10275D02*
X27875Y-09725D01*
X27875Y-09725D02*
X28250Y-09725D01*
X28250Y-09725D02*
X28313Y-09787D01*
X28313Y-09787D02*
X28313Y-09970D01*
X28313Y-09970D02*
X28250Y-10031D01*
X28250Y-10031D02*
X27875Y-10031D01*
X28063Y-10031D02*
X28313Y-10275D01*
X29288Y-10275D02*
X29538Y-10275D01*
X29413Y-10275D02*
X29413Y-09725D01*
X29288Y-09725D02*
X29538Y-09725D01*
X29900Y-10214D02*
X29963Y-10275D01*
X29963Y-10275D02*
X30275Y-10275D01*
X30275Y-10275D02*
X30338Y-10214D01*
X30338Y-10214D02*
X30338Y-10031D01*
X30338Y-10031D02*
X30275Y-09970D01*
X30275Y-09970D02*
X29963Y-09970D01*
X29963Y-09970D02*
X29900Y-09909D01*
X29900Y-09909D02*
X29900Y-09787D01*
X29900Y-09787D02*
X29963Y-09725D01*
X29963Y-09725D02*
X30275Y-09725D01*
X30275Y-09725D02*
X30338Y-09787D01*
X30575Y-10275D02*
X30575Y-09725D01*
X30575Y-09725D02*
X30950Y-09725D01*
X30950Y-09725D02*
X31013Y-09787D01*
X31013Y-09787D02*
X31013Y-09970D01*
X31013Y-09970D02*
X30950Y-10031D01*
X30950Y-10031D02*
X30575Y-10031D01*
X33983Y-15545D02*
X34433Y-15545D01*
X34208Y-15812D02*
X34208Y-15278D01*
X34769Y-15723D02*
X34769Y-15812D01*
X34769Y-15812D02*
X34844Y-15900D01*
X34844Y-15900D02*
X35219Y-15900D01*
X35219Y-15900D02*
X35294Y-15812D01*
X35294Y-15812D02*
X35294Y-15545D01*
X35294Y-15545D02*
X35144Y-15367D01*
X35144Y-15367D02*
X34769Y-15367D01*
X34769Y-15367D02*
X34769Y-15100D01*
X34769Y-15100D02*
X35294Y-15100D01*
X35555Y-15100D02*
X35855Y-15900D01*
X35855Y-15900D02*
X36155Y-15100D01*
X34433Y-16189D02*
X34433Y-16100D01*
X34433Y-16100D02*
X34058Y-16100D01*
X34058Y-16100D02*
X33983Y-16189D01*
X33983Y-16189D02*
X33983Y-16812D01*
X33983Y-16812D02*
X34058Y-16900D01*
X34058Y-16900D02*
X34433Y-16900D01*
X34433Y-16900D02*
X34508Y-16812D01*
X34508Y-16812D02*
X34508Y-16545D01*
X34508Y-16545D02*
X34283Y-16545D01*
X34769Y-16900D02*
X34769Y-16100D01*
X34769Y-16100D02*
X35294Y-16900D01*
X35294Y-16900D02*
X35294Y-16100D01*
X35630Y-16900D02*
X35630Y-16100D01*
X35555Y-16100D02*
X36005Y-16100D01*
X36005Y-16100D02*
X36080Y-16189D01*
X36080Y-16189D02*
X36080Y-16812D01*
X36080Y-16812D02*
X36005Y-16900D01*
X36005Y-16900D02*
X35555Y-16900D01*
G54D24*
X37500Y-05500D02*
X06500Y-05500D01*
X37500Y-26500D02*
X37500Y-05500D01*
X06500Y-26500D02*
X37500Y-26500D01*
X06500Y-05500D02*
X06500Y-26500D01*
X14500Y-14000D02*
X14500Y-06000D01*
X16500Y-06000D02*
X16500Y-14000D01*
X16500Y-14000D02*
X14500Y-14000D01*
X15000Y-14000D02*
X15000Y-13500D01*
X15000Y-13500D02*
X16000Y-13500D01*
X16000Y-13500D02*
X16000Y-14000D01*
X14500Y-06000D02*
X16500Y-06000D01*
X16500Y-15000D02*
X31500Y-15000D01*
X31500Y-15000D02*
X31500Y-17000D01*
X31500Y-17000D02*
X16500Y-17000D01*
X16500Y-17000D02*
X16500Y-15000D01*
X16500Y-15500D02*
X17000Y-15500D01*
X17000Y-15500D02*
X17000Y-16500D01*
X17000Y-16500D02*
X16500Y-16500D01*
X17000Y-20000D02*
X17500Y-20000D01*
X17500Y-20000D02*
X17500Y-21000D01*
X17500Y-21000D02*
X17000Y-21000D01*
X17000Y-19500D02*
X21000Y-19500D01*
X21000Y-19500D02*
X21000Y-21500D01*
X21000Y-21500D02*
X17000Y-21500D01*
X17000Y-21500D02*
X17000Y-19500D01*
X33750Y-09750D02*
X33750Y-10250D01*
X33750Y-10250D02*
X32750Y-10250D01*
X32750Y-10250D02*
X32750Y-09750D01*
X34250Y-09750D02*
X34250Y-13750D01*
X34250Y-13750D02*
X32250Y-13750D01*
X32250Y-13750D02*
X32250Y-09750D01*
X32250Y-09750D02*
X34250Y-09750D01*
G54D23*
X23020Y-18000D02*
X25000Y-18000D01*
X25000Y-18000D02*
X25000Y-19000D01*
X25000Y-19000D02*
X23000Y-19000D01*
X23000Y-19000D02*
X23000Y-18000D01*
X23000Y-18250D02*
X23250Y-18000D01*
X28020Y-21000D02*
X30000Y-21000D01*
X30000Y-21000D02*
X30000Y-22000D01*
X30000Y-22000D02*
X28000Y-22000D01*
X28000Y-22000D02*
X28000Y-21000D01*
X28000Y-21250D02*
X28250Y-21000D01*
X25520Y-21000D02*
X27500Y-21000D01*
X27500Y-21000D02*
X27500Y-22000D01*
X27500Y-22000D02*
X25500Y-22000D01*
X25500Y-22000D02*
X25500Y-21000D01*
X25500Y-21250D02*
X25750Y-21000D01*
X14000Y-24000D02*
X14300Y-24000D01*
X14300Y-24000D02*
X14300Y-24400D01*
X14300Y-24400D02*
X16700Y-24400D01*
X16700Y-24400D02*
X16700Y-24000D01*
X16700Y-24000D02*
X17000Y-24000D01*
X16700Y-24000D02*
X16700Y-23600D01*
X16700Y-23600D02*
X14300Y-23600D01*
X14300Y-23600D02*
X14300Y-24000D01*
X14500Y-24400D02*
X14500Y-23600D01*
X14600Y-23600D02*
X14600Y-24400D01*
G54D25*
X11000Y-07500D02*
X11000Y-08500D01*
X11000Y-08500D02*
X09000Y-08500D01*
X09000Y-08500D02*
X09000Y-07500D01*
X09000Y-07500D02*
X11000Y-07500D01*
X20500Y-09000D02*
X20500Y-08000D01*
X20500Y-08000D02*
X22500Y-08000D01*
X22500Y-08000D02*
X22500Y-09000D01*
X22500Y-09000D02*
X20500Y-09000D01*
X14500Y-20000D02*
X13500Y-20000D01*
X13500Y-20000D02*
X13500Y-18000D01*
X13500Y-18000D02*
X14500Y-18000D01*
X14500Y-18000D02*
X14500Y-20000D01*
X23000Y-09000D02*
X23000Y-08000D01*
X23000Y-08000D02*
X25000Y-08000D01*
X25000Y-08000D02*
X25000Y-09000D01*
X25000Y-09000D02*
X23000Y-09000D01*
G54D26*
X27000Y-11250D02*
X30000Y-11250D01*
X30000Y-13250D02*
X27000Y-13250D01*
X27000Y-13250D02*
X27000Y-11250D01*
X30000Y-11250D02*
X30000Y-13250D01*
G54D24*
X24000Y-10500D02*
X25000Y-10500D01*
X24559Y-10500D02*
X24484Y-10779D01*
X24484Y-10779D02*
X24279Y-10984D01*
X24279Y-10984D02*
X24000Y-11059D01*
X24000Y-11059D02*
X23721Y-10984D01*
X23721Y-10984D02*
X23516Y-10779D01*
X23516Y-10779D02*
X23441Y-10500D01*
X23441Y-10500D02*
X23516Y-10221D01*
X23516Y-10221D02*
X23721Y-10016D01*
X23721Y-10016D02*
X24000Y-09941D01*
X24000Y-09941D02*
X24279Y-10016D01*
X24279Y-10016D02*
X24484Y-10221D01*
X24484Y-10221D02*
X24559Y-10500D01*
X22000Y-10500D02*
X23000Y-10500D01*
X22559Y-10500D02*
X22484Y-10779D01*
X22484Y-10779D02*
X22279Y-10984D01*
X22279Y-10984D02*
X22000Y-11059D01*
X22000Y-11059D02*
X21721Y-10984D01*
X21721Y-10984D02*
X21516Y-10779D01*
X21516Y-10779D02*
X21441Y-10500D01*
X21441Y-10500D02*
X21516Y-10221D01*
X21516Y-10221D02*
X21721Y-10016D01*
X21721Y-10016D02*
X22000Y-09941D01*
X22000Y-09941D02*
X22279Y-10016D01*
X22279Y-10016D02*
X22484Y-10221D01*
X22484Y-10221D02*
X22559Y-10500D01*
X22000Y-12000D02*
X22000Y-13000D01*
X22559Y-12000D02*
X22484Y-12279D01*
X22484Y-12279D02*
X22279Y-12484D01*
X22279Y-12484D02*
X22000Y-12559D01*
X22000Y-12559D02*
X21721Y-12484D01*
X21721Y-12484D02*
X21516Y-12279D01*
X21516Y-12279D02*
X21441Y-12000D01*
X21441Y-12000D02*
X21516Y-11721D01*
X21516Y-11721D02*
X21721Y-11516D01*
X21721Y-11516D02*
X22000Y-11441D01*
X22000Y-11441D02*
X22279Y-11516D01*
X22279Y-11516D02*
X22484Y-11721D01*
X22484Y-11721D02*
X22559Y-12000D01*
X20500Y-12000D02*
X20500Y-13000D01*
X21059Y-12000D02*
X20984Y-12279D01*
X20984Y-12279D02*
X20779Y-12484D01*
X20779Y-12484D02*
X20500Y-12559D01*
X20500Y-12559D02*
X20221Y-12484D01*
X20221Y-12484D02*
X20016Y-12279D01*
X20016Y-12279D02*
X19941Y-12000D01*
X19941Y-12000D02*
X20016Y-11721D01*
X20016Y-11721D02*
X20221Y-11516D01*
X20221Y-11516D02*
X20500Y-11441D01*
X20500Y-11441D02*
X20779Y-11516D01*
X20779Y-11516D02*
X20984Y-11721D01*
X20984Y-11721D02*
X21059Y-12000D01*
X19000Y-12000D02*
X19000Y-13000D01*
X19559Y-12000D02*
X19484Y-12279D01*
X19484Y-12279D02*
X19279Y-12484D01*
X19279Y-12484D02*
X19000Y-12559D01*
X19000Y-12559D02*
X18721Y-12484D01*
X18721Y-12484D02*
X18516Y-12279D01*
X18516Y-12279D02*
X18441Y-12000D01*
X18441Y-12000D02*
X18516Y-11721D01*
X18516Y-11721D02*
X18721Y-11516D01*
X18721Y-11516D02*
X19000Y-11441D01*
X19000Y-11441D02*
X19279Y-11516D01*
X19279Y-11516D02*
X19484Y-11721D01*
X19484Y-11721D02*
X19559Y-12000D01*
X20500Y-10500D02*
X20500Y-09500D01*
X21059Y-10500D02*
X20984Y-10779D01*
X20984Y-10779D02*
X20779Y-10984D01*
X20779Y-10984D02*
X20500Y-11059D01*
X20500Y-11059D02*
X20221Y-10984D01*
X20221Y-10984D02*
X20016Y-10779D01*
X20016Y-10779D02*
X19941Y-10500D01*
X19941Y-10500D02*
X20016Y-10221D01*
X20016Y-10221D02*
X20221Y-10016D01*
X20221Y-10016D02*
X20500Y-09941D01*
X20500Y-09941D02*
X20779Y-10016D01*
X20779Y-10016D02*
X20984Y-10221D01*
X20984Y-10221D02*
X21059Y-10500D01*
X19000Y-10500D02*
X19000Y-09500D01*
X19559Y-10500D02*
X19484Y-10779D01*
X19484Y-10779D02*
X19279Y-10984D01*
X19279Y-10984D02*
X19000Y-11059D01*
X19000Y-11059D02*
X18721Y-10984D01*
X18721Y-10984D02*
X18516Y-10779D01*
X18516Y-10779D02*
X18441Y-10500D01*
X18441Y-10500D02*
X18516Y-10221D01*
X18516Y-10221D02*
X18721Y-10016D01*
X18721Y-10016D02*
X19000Y-09941D01*
X19000Y-09941D02*
X19279Y-10016D01*
X19279Y-10016D02*
X19484Y-10221D01*
X19484Y-10221D02*
X19559Y-10500D01*
X14500Y-16500D02*
X14500Y-15500D01*
X15059Y-16500D02*
X14984Y-16779D01*
X14984Y-16779D02*
X14779Y-16984D01*
X14779Y-16984D02*
X14500Y-17059D01*
X14500Y-17059D02*
X14221Y-16984D01*
X14221Y-16984D02*
X14016Y-16779D01*
X14016Y-16779D02*
X13941Y-16500D01*
X13941Y-16500D02*
X14016Y-16221D01*
X14016Y-16221D02*
X14221Y-16016D01*
X14221Y-16016D02*
X14500Y-15941D01*
X14500Y-15941D02*
X14779Y-16016D01*
X14779Y-16016D02*
X14984Y-16221D01*
X14984Y-16221D02*
X15059Y-16500D01*
X14000Y-22000D02*
X14000Y-21000D01*
X14559Y-22000D02*
X14484Y-22279D01*
X14484Y-22279D02*
X14279Y-22484D01*
X14279Y-22484D02*
X14000Y-22559D01*
X14000Y-22559D02*
X13721Y-22484D01*
X13721Y-22484D02*
X13516Y-22279D01*
X13516Y-22279D02*
X13441Y-22000D01*
X13441Y-22000D02*
X13516Y-21721D01*
X13516Y-21721D02*
X13721Y-21516D01*
X13721Y-21516D02*
X14000Y-21441D01*
X14000Y-21441D02*
X14279Y-21516D01*
X14279Y-21516D02*
X14484Y-21721D01*
X14484Y-21721D02*
X14559Y-22000D01*
X23500Y-12000D02*
X23500Y-13000D01*
X24059Y-12000D02*
X23984Y-12279D01*
X23984Y-12279D02*
X23779Y-12484D01*
X23779Y-12484D02*
X23500Y-12559D01*
X23500Y-12559D02*
X23221Y-12484D01*
X23221Y-12484D02*
X23016Y-12279D01*
X23016Y-12279D02*
X22941Y-12000D01*
X22941Y-12000D02*
X23016Y-11721D01*
X23016Y-11721D02*
X23221Y-11516D01*
X23221Y-11516D02*
X23500Y-11441D01*
X23500Y-11441D02*
X23779Y-11516D01*
X23779Y-11516D02*
X23984Y-11721D01*
X23984Y-11721D02*
X24059Y-12000D01*
G54D25*
X32500Y-15000D02*
X33500Y-15000D01*
X33500Y-15000D02*
X33500Y-17000D01*
X33500Y-17000D02*
X32500Y-17000D01*
X32500Y-17000D02*
X32500Y-15000D01*
G54D24*
X06969Y-16743D02*
X13076Y-16743D01*
X13076Y-16743D02*
X13076Y-09257D01*
X13076Y-09257D02*
X06969Y-09257D01*
X06969Y-09257D02*
X06969Y-16743D01*
X06969Y-25243D02*
X13076Y-25243D01*
X13076Y-25243D02*
X13076Y-17757D01*
X13076Y-17757D02*
X06969Y-17757D01*
X06969Y-17757D02*
X06969Y-25243D01*
X25500Y-18250D02*
X29500Y-18250D01*
X29500Y-18250D02*
X29500Y-20250D01*
X29500Y-20250D02*
X25500Y-20250D01*
X25500Y-20250D02*
X25500Y-18250D01*
G54D27*
X17450Y-13310D02*
X16550Y-13310D01*
X16550Y-13310D02*
X16550Y-12690D01*
X16550Y-12690D02*
X17450Y-12690D01*
X17450Y-12690D02*
X17450Y-13310D01*
X17450Y-12310D02*
X16550Y-12310D01*
X16550Y-12310D02*
X16550Y-11690D01*
X16550Y-11690D02*
X17450Y-11690D01*
X17450Y-11690D02*
X17450Y-12310D01*
X17450Y-11310D02*
X16550Y-11310D01*
X16550Y-11310D02*
X16550Y-10690D01*
X16550Y-10690D02*
X17450Y-10690D01*
X17450Y-10690D02*
X17450Y-11310D01*
X17450Y-10310D02*
X16550Y-10310D01*
X16550Y-10310D02*
X16550Y-09690D01*
X16550Y-09690D02*
X17450Y-09690D01*
X17450Y-09690D02*
X17450Y-10310D01*
X17450Y-09310D02*
X16550Y-09310D01*
X16550Y-09310D02*
X16550Y-08690D01*
X16550Y-08690D02*
X17450Y-08690D01*
X17450Y-08690D02*
X17450Y-09310D01*
X17450Y-08310D02*
X16550Y-08310D01*
X16550Y-08310D02*
X16550Y-07690D01*
X16550Y-07690D02*
X17450Y-07690D01*
X17450Y-07690D02*
X17450Y-08310D01*
X17450Y-07310D02*
X16550Y-07310D01*
X16550Y-07310D02*
X16550Y-06690D01*
X16550Y-06690D02*
X17450Y-06690D01*
X17450Y-06690D02*
X17450Y-07310D01*
X14450Y-07310D02*
X13550Y-07310D01*
X13550Y-07310D02*
X13550Y-06690D01*
X13550Y-06690D02*
X14450Y-06690D01*
X14450Y-06690D02*
X14450Y-07310D01*
X14450Y-08310D02*
X13550Y-08310D01*
X13550Y-08310D02*
X13550Y-07690D01*
X13550Y-07690D02*
X14450Y-07690D01*
X14450Y-07690D02*
X14450Y-08310D01*
X14450Y-09310D02*
X13550Y-09310D01*
X13550Y-09310D02*
X13550Y-08690D01*
X13550Y-08690D02*
X14450Y-08690D01*
X14450Y-08690D02*
X14450Y-09310D01*
X14450Y-10310D02*
X13550Y-10310D01*
X13550Y-10310D02*
X13550Y-09690D01*
X13550Y-09690D02*
X14450Y-09690D01*
X14450Y-09690D02*
X14450Y-10310D01*
X14450Y-11310D02*
X13550Y-11310D01*
X13550Y-11310D02*
X13550Y-10690D01*
X13550Y-10690D02*
X14450Y-10690D01*
X14450Y-10690D02*
X14450Y-11310D01*
X14450Y-12310D02*
X13550Y-12310D01*
X13550Y-12310D02*
X13550Y-11690D01*
X13550Y-11690D02*
X14450Y-11690D01*
X14450Y-11690D02*
X14450Y-12310D01*
X14450Y-13310D02*
X13550Y-13310D01*
X13550Y-13310D02*
X13550Y-12690D01*
X13550Y-12690D02*
X14450Y-12690D01*
X14450Y-12690D02*
X14450Y-13310D01*
X18775Y-17500D02*
X18768Y-17557D01*
X18768Y-17557D02*
X18751Y-17611D01*
X18751Y-17611D02*
X18722Y-17661D01*
X18722Y-17661D02*
X18684Y-17704D01*
X18684Y-17704D02*
X18637Y-17738D01*
X18637Y-17738D02*
X18584Y-17761D01*
X18584Y-17761D02*
X18528Y-17773D01*
X18528Y-17773D02*
X18472Y-17773D01*
X18472Y-17773D02*
X18416Y-17761D01*
X18416Y-17761D02*
X18363Y-17738D01*
X18363Y-17738D02*
X18316Y-17704D01*
X18316Y-17704D02*
X18278Y-17661D01*
X18278Y-17661D02*
X18249Y-17611D01*
X18249Y-17611D02*
X18232Y-17557D01*
X18232Y-17557D02*
X18225Y-17500D01*
X18225Y-17500D02*
X18232Y-17443D01*
X18232Y-17443D02*
X18249Y-17389D01*
X18249Y-17389D02*
X18278Y-17339D01*
X18278Y-17339D02*
X18316Y-17296D01*
X18316Y-17296D02*
X18363Y-17262D01*
X18363Y-17262D02*
X18416Y-17239D01*
X18416Y-17239D02*
X18472Y-17227D01*
X18472Y-17227D02*
X18528Y-17227D01*
X18528Y-17227D02*
X18584Y-17239D01*
X18584Y-17239D02*
X18637Y-17262D01*
X18637Y-17262D02*
X18684Y-17296D01*
X18684Y-17296D02*
X18722Y-17339D01*
X18722Y-17339D02*
X18751Y-17389D01*
X18751Y-17389D02*
X18768Y-17443D01*
X18768Y-17443D02*
X18775Y-17500D01*
X19775Y-17500D02*
X19768Y-17557D01*
X19768Y-17557D02*
X19751Y-17611D01*
X19751Y-17611D02*
X19722Y-17661D01*
X19722Y-17661D02*
X19684Y-17704D01*
X19684Y-17704D02*
X19637Y-17738D01*
X19637Y-17738D02*
X19584Y-17761D01*
X19584Y-17761D02*
X19528Y-17773D01*
X19528Y-17773D02*
X19472Y-17773D01*
X19472Y-17773D02*
X19416Y-17761D01*
X19416Y-17761D02*
X19363Y-17738D01*
X19363Y-17738D02*
X19316Y-17704D01*
X19316Y-17704D02*
X19278Y-17661D01*
X19278Y-17661D02*
X19249Y-17611D01*
X19249Y-17611D02*
X19232Y-17557D01*
X19232Y-17557D02*
X19225Y-17500D01*
X19225Y-17500D02*
X19232Y-17443D01*
X19232Y-17443D02*
X19249Y-17389D01*
X19249Y-17389D02*
X19278Y-17339D01*
X19278Y-17339D02*
X19316Y-17296D01*
X19316Y-17296D02*
X19363Y-17262D01*
X19363Y-17262D02*
X19416Y-17239D01*
X19416Y-17239D02*
X19472Y-17227D01*
X19472Y-17227D02*
X19528Y-17227D01*
X19528Y-17227D02*
X19584Y-17239D01*
X19584Y-17239D02*
X19637Y-17262D01*
X19637Y-17262D02*
X19684Y-17296D01*
X19684Y-17296D02*
X19722Y-17339D01*
X19722Y-17339D02*
X19751Y-17389D01*
X19751Y-17389D02*
X19768Y-17443D01*
X19768Y-17443D02*
X19775Y-17500D01*
X20775Y-17500D02*
X20768Y-17557D01*
X20768Y-17557D02*
X20751Y-17611D01*
X20751Y-17611D02*
X20722Y-17661D01*
X20722Y-17661D02*
X20684Y-17704D01*
X20684Y-17704D02*
X20637Y-17738D01*
X20637Y-17738D02*
X20584Y-17761D01*
X20584Y-17761D02*
X20528Y-17773D01*
X20528Y-17773D02*
X20472Y-17773D01*
X20472Y-17773D02*
X20416Y-17761D01*
X20416Y-17761D02*
X20363Y-17738D01*
X20363Y-17738D02*
X20316Y-17704D01*
X20316Y-17704D02*
X20278Y-17661D01*
X20278Y-17661D02*
X20249Y-17611D01*
X20249Y-17611D02*
X20232Y-17557D01*
X20232Y-17557D02*
X20225Y-17500D01*
X20225Y-17500D02*
X20232Y-17443D01*
X20232Y-17443D02*
X20249Y-17389D01*
X20249Y-17389D02*
X20278Y-17339D01*
X20278Y-17339D02*
X20316Y-17296D01*
X20316Y-17296D02*
X20363Y-17262D01*
X20363Y-17262D02*
X20416Y-17239D01*
X20416Y-17239D02*
X20472Y-17227D01*
X20472Y-17227D02*
X20528Y-17227D01*
X20528Y-17227D02*
X20584Y-17239D01*
X20584Y-17239D02*
X20637Y-17262D01*
X20637Y-17262D02*
X20684Y-17296D01*
X20684Y-17296D02*
X20722Y-17339D01*
X20722Y-17339D02*
X20751Y-17389D01*
X20751Y-17389D02*
X20768Y-17443D01*
X20768Y-17443D02*
X20775Y-17500D01*
X21775Y-17500D02*
X21768Y-17557D01*
X21768Y-17557D02*
X21751Y-17611D01*
X21751Y-17611D02*
X21722Y-17661D01*
X21722Y-17661D02*
X21684Y-17704D01*
X21684Y-17704D02*
X21637Y-17738D01*
X21637Y-17738D02*
X21584Y-17761D01*
X21584Y-17761D02*
X21528Y-17773D01*
X21528Y-17773D02*
X21472Y-17773D01*
X21472Y-17773D02*
X21416Y-17761D01*
X21416Y-17761D02*
X21363Y-17738D01*
X21363Y-17738D02*
X21316Y-17704D01*
X21316Y-17704D02*
X21278Y-17661D01*
X21278Y-17661D02*
X21249Y-17611D01*
X21249Y-17611D02*
X21232Y-17557D01*
X21232Y-17557D02*
X21225Y-17500D01*
X21225Y-17500D02*
X21232Y-17443D01*
X21232Y-17443D02*
X21249Y-17389D01*
X21249Y-17389D02*
X21278Y-17339D01*
X21278Y-17339D02*
X21316Y-17296D01*
X21316Y-17296D02*
X21363Y-17262D01*
X21363Y-17262D02*
X21416Y-17239D01*
X21416Y-17239D02*
X21472Y-17227D01*
X21472Y-17227D02*
X21528Y-17227D01*
X21528Y-17227D02*
X21584Y-17239D01*
X21584Y-17239D02*
X21637Y-17262D01*
X21637Y-17262D02*
X21684Y-17296D01*
X21684Y-17296D02*
X21722Y-17339D01*
X21722Y-17339D02*
X21751Y-17389D01*
X21751Y-17389D02*
X21768Y-17443D01*
X21768Y-17443D02*
X21775Y-17500D01*
X22775Y-17500D02*
X22768Y-17557D01*
X22768Y-17557D02*
X22751Y-17611D01*
X22751Y-17611D02*
X22722Y-17661D01*
X22722Y-17661D02*
X22684Y-17704D01*
X22684Y-17704D02*
X22637Y-17738D01*
X22637Y-17738D02*
X22584Y-17761D01*
X22584Y-17761D02*
X22528Y-17773D01*
X22528Y-17773D02*
X22472Y-17773D01*
X22472Y-17773D02*
X22416Y-17761D01*
X22416Y-17761D02*
X22363Y-17738D01*
X22363Y-17738D02*
X22316Y-17704D01*
X22316Y-17704D02*
X22278Y-17661D01*
X22278Y-17661D02*
X22249Y-17611D01*
X22249Y-17611D02*
X22232Y-17557D01*
X22232Y-17557D02*
X22225Y-17500D01*
X22225Y-17500D02*
X22232Y-17443D01*
X22232Y-17443D02*
X22249Y-17389D01*
X22249Y-17389D02*
X22278Y-17339D01*
X22278Y-17339D02*
X22316Y-17296D01*
X22316Y-17296D02*
X22363Y-17262D01*
X22363Y-17262D02*
X22416Y-17239D01*
X22416Y-17239D02*
X22472Y-17227D01*
X22472Y-17227D02*
X22528Y-17227D01*
X22528Y-17227D02*
X22584Y-17239D01*
X22584Y-17239D02*
X22637Y-17262D01*
X22637Y-17262D02*
X22684Y-17296D01*
X22684Y-17296D02*
X22722Y-17339D01*
X22722Y-17339D02*
X22751Y-17389D01*
X22751Y-17389D02*
X22768Y-17443D01*
X22768Y-17443D02*
X22775Y-17500D01*
X23775Y-17500D02*
X23768Y-17557D01*
X23768Y-17557D02*
X23751Y-17611D01*
X23751Y-17611D02*
X23722Y-17661D01*
X23722Y-17661D02*
X23684Y-17704D01*
X23684Y-17704D02*
X23637Y-17738D01*
X23637Y-17738D02*
X23584Y-17761D01*
X23584Y-17761D02*
X23528Y-17773D01*
X23528Y-17773D02*
X23472Y-17773D01*
X23472Y-17773D02*
X23416Y-17761D01*
X23416Y-17761D02*
X23363Y-17738D01*
X23363Y-17738D02*
X23316Y-17704D01*
X23316Y-17704D02*
X23278Y-17661D01*
X23278Y-17661D02*
X23249Y-17611D01*
X23249Y-17611D02*
X23232Y-17557D01*
X23232Y-17557D02*
X23225Y-17500D01*
X23225Y-17500D02*
X23232Y-17443D01*
X23232Y-17443D02*
X23249Y-17389D01*
X23249Y-17389D02*
X23278Y-17339D01*
X23278Y-17339D02*
X23316Y-17296D01*
X23316Y-17296D02*
X23363Y-17262D01*
X23363Y-17262D02*
X23416Y-17239D01*
X23416Y-17239D02*
X23472Y-17227D01*
X23472Y-17227D02*
X23528Y-17227D01*
X23528Y-17227D02*
X23584Y-17239D01*
X23584Y-17239D02*
X23637Y-17262D01*
X23637Y-17262D02*
X23684Y-17296D01*
X23684Y-17296D02*
X23722Y-17339D01*
X23722Y-17339D02*
X23751Y-17389D01*
X23751Y-17389D02*
X23768Y-17443D01*
X23768Y-17443D02*
X23775Y-17500D01*
X24775Y-17500D02*
X24768Y-17557D01*
X24768Y-17557D02*
X24751Y-17611D01*
X24751Y-17611D02*
X24722Y-17661D01*
X24722Y-17661D02*
X24684Y-17704D01*
X24684Y-17704D02*
X24637Y-17738D01*
X24637Y-17738D02*
X24584Y-17761D01*
X24584Y-17761D02*
X24528Y-17773D01*
X24528Y-17773D02*
X24472Y-17773D01*
X24472Y-17773D02*
X24416Y-17761D01*
X24416Y-17761D02*
X24363Y-17738D01*
X24363Y-17738D02*
X24316Y-17704D01*
X24316Y-17704D02*
X24278Y-17661D01*
X24278Y-17661D02*
X24249Y-17611D01*
X24249Y-17611D02*
X24232Y-17557D01*
X24232Y-17557D02*
X24225Y-17500D01*
X24225Y-17500D02*
X24232Y-17443D01*
X24232Y-17443D02*
X24249Y-17389D01*
X24249Y-17389D02*
X24278Y-17339D01*
X24278Y-17339D02*
X24316Y-17296D01*
X24316Y-17296D02*
X24363Y-17262D01*
X24363Y-17262D02*
X24416Y-17239D01*
X24416Y-17239D02*
X24472Y-17227D01*
X24472Y-17227D02*
X24528Y-17227D01*
X24528Y-17227D02*
X24584Y-17239D01*
X24584Y-17239D02*
X24637Y-17262D01*
X24637Y-17262D02*
X24684Y-17296D01*
X24684Y-17296D02*
X24722Y-17339D01*
X24722Y-17339D02*
X24751Y-17389D01*
X24751Y-17389D02*
X24768Y-17443D01*
X24768Y-17443D02*
X24775Y-17500D01*
X25775Y-17500D02*
X25768Y-17557D01*
X25768Y-17557D02*
X25751Y-17611D01*
X25751Y-17611D02*
X25722Y-17661D01*
X25722Y-17661D02*
X25684Y-17704D01*
X25684Y-17704D02*
X25637Y-17738D01*
X25637Y-17738D02*
X25584Y-17761D01*
X25584Y-17761D02*
X25528Y-17773D01*
X25528Y-17773D02*
X25472Y-17773D01*
X25472Y-17773D02*
X25416Y-17761D01*
X25416Y-17761D02*
X25363Y-17738D01*
X25363Y-17738D02*
X25316Y-17704D01*
X25316Y-17704D02*
X25278Y-17661D01*
X25278Y-17661D02*
X25249Y-17611D01*
X25249Y-17611D02*
X25232Y-17557D01*
X25232Y-17557D02*
X25225Y-17500D01*
X25225Y-17500D02*
X25232Y-17443D01*
X25232Y-17443D02*
X25249Y-17389D01*
X25249Y-17389D02*
X25278Y-17339D01*
X25278Y-17339D02*
X25316Y-17296D01*
X25316Y-17296D02*
X25363Y-17262D01*
X25363Y-17262D02*
X25416Y-17239D01*
X25416Y-17239D02*
X25472Y-17227D01*
X25472Y-17227D02*
X25528Y-17227D01*
X25528Y-17227D02*
X25584Y-17239D01*
X25584Y-17239D02*
X25637Y-17262D01*
X25637Y-17262D02*
X25684Y-17296D01*
X25684Y-17296D02*
X25722Y-17339D01*
X25722Y-17339D02*
X25751Y-17389D01*
X25751Y-17389D02*
X25768Y-17443D01*
X25768Y-17443D02*
X25775Y-17500D01*
X26775Y-17500D02*
X26768Y-17557D01*
X26768Y-17557D02*
X26751Y-17611D01*
X26751Y-17611D02*
X26722Y-17661D01*
X26722Y-17661D02*
X26684Y-17704D01*
X26684Y-17704D02*
X26637Y-17738D01*
X26637Y-17738D02*
X26584Y-17761D01*
X26584Y-17761D02*
X26528Y-17773D01*
X26528Y-17773D02*
X26472Y-17773D01*
X26472Y-17773D02*
X26416Y-17761D01*
X26416Y-17761D02*
X26363Y-17738D01*
X26363Y-17738D02*
X26316Y-17704D01*
X26316Y-17704D02*
X26278Y-17661D01*
X26278Y-17661D02*
X26249Y-17611D01*
X26249Y-17611D02*
X26232Y-17557D01*
X26232Y-17557D02*
X26225Y-17500D01*
X26225Y-17500D02*
X26232Y-17443D01*
X26232Y-17443D02*
X26249Y-17389D01*
X26249Y-17389D02*
X26278Y-17339D01*
X26278Y-17339D02*
X26316Y-17296D01*
X26316Y-17296D02*
X26363Y-17262D01*
X26363Y-17262D02*
X26416Y-17239D01*
X26416Y-17239D02*
X26472Y-17227D01*
X26472Y-17227D02*
X26528Y-17227D01*
X26528Y-17227D02*
X26584Y-17239D01*
X26584Y-17239D02*
X26637Y-17262D01*
X26637Y-17262D02*
X26684Y-17296D01*
X26684Y-17296D02*
X26722Y-17339D01*
X26722Y-17339D02*
X26751Y-17389D01*
X26751Y-17389D02*
X26768Y-17443D01*
X26768Y-17443D02*
X26775Y-17500D01*
X27775Y-17500D02*
X27768Y-17557D01*
X27768Y-17557D02*
X27751Y-17611D01*
X27751Y-17611D02*
X27722Y-17661D01*
X27722Y-17661D02*
X27684Y-17704D01*
X27684Y-17704D02*
X27637Y-17738D01*
X27637Y-17738D02*
X27584Y-17761D01*
X27584Y-17761D02*
X27528Y-17773D01*
X27528Y-17773D02*
X27472Y-17773D01*
X27472Y-17773D02*
X27416Y-17761D01*
X27416Y-17761D02*
X27363Y-17738D01*
X27363Y-17738D02*
X27316Y-17704D01*
X27316Y-17704D02*
X27278Y-17661D01*
X27278Y-17661D02*
X27249Y-17611D01*
X27249Y-17611D02*
X27232Y-17557D01*
X27232Y-17557D02*
X27225Y-17500D01*
X27225Y-17500D02*
X27232Y-17443D01*
X27232Y-17443D02*
X27249Y-17389D01*
X27249Y-17389D02*
X27278Y-17339D01*
X27278Y-17339D02*
X27316Y-17296D01*
X27316Y-17296D02*
X27363Y-17262D01*
X27363Y-17262D02*
X27416Y-17239D01*
X27416Y-17239D02*
X27472Y-17227D01*
X27472Y-17227D02*
X27528Y-17227D01*
X27528Y-17227D02*
X27584Y-17239D01*
X27584Y-17239D02*
X27637Y-17262D01*
X27637Y-17262D02*
X27684Y-17296D01*
X27684Y-17296D02*
X27722Y-17339D01*
X27722Y-17339D02*
X27751Y-17389D01*
X27751Y-17389D02*
X27768Y-17443D01*
X27768Y-17443D02*
X27775Y-17500D01*
X28775Y-17500D02*
X28768Y-17557D01*
X28768Y-17557D02*
X28751Y-17611D01*
X28751Y-17611D02*
X28722Y-17661D01*
X28722Y-17661D02*
X28684Y-17704D01*
X28684Y-17704D02*
X28637Y-17738D01*
X28637Y-17738D02*
X28584Y-17761D01*
X28584Y-17761D02*
X28528Y-17773D01*
X28528Y-17773D02*
X28472Y-17773D01*
X28472Y-17773D02*
X28416Y-17761D01*
X28416Y-17761D02*
X28363Y-17738D01*
X28363Y-17738D02*
X28316Y-17704D01*
X28316Y-17704D02*
X28278Y-17661D01*
X28278Y-17661D02*
X28249Y-17611D01*
X28249Y-17611D02*
X28232Y-17557D01*
X28232Y-17557D02*
X28225Y-17500D01*
X28225Y-17500D02*
X28232Y-17443D01*
X28232Y-17443D02*
X28249Y-17389D01*
X28249Y-17389D02*
X28278Y-17339D01*
X28278Y-17339D02*
X28316Y-17296D01*
X28316Y-17296D02*
X28363Y-17262D01*
X28363Y-17262D02*
X28416Y-17239D01*
X28416Y-17239D02*
X28472Y-17227D01*
X28472Y-17227D02*
X28528Y-17227D01*
X28528Y-17227D02*
X28584Y-17239D01*
X28584Y-17239D02*
X28637Y-17262D01*
X28637Y-17262D02*
X28684Y-17296D01*
X28684Y-17296D02*
X28722Y-17339D01*
X28722Y-17339D02*
X28751Y-17389D01*
X28751Y-17389D02*
X28768Y-17443D01*
X28768Y-17443D02*
X28775Y-17500D01*
X29775Y-17500D02*
X29768Y-17557D01*
X29768Y-17557D02*
X29751Y-17611D01*
X29751Y-17611D02*
X29722Y-17661D01*
X29722Y-17661D02*
X29684Y-17704D01*
X29684Y-17704D02*
X29637Y-17738D01*
X29637Y-17738D02*
X29584Y-17761D01*
X29584Y-17761D02*
X29528Y-17773D01*
X29528Y-17773D02*
X29472Y-17773D01*
X29472Y-17773D02*
X29416Y-17761D01*
X29416Y-17761D02*
X29363Y-17738D01*
X29363Y-17738D02*
X29316Y-17704D01*
X29316Y-17704D02*
X29278Y-17661D01*
X29278Y-17661D02*
X29249Y-17611D01*
X29249Y-17611D02*
X29232Y-17557D01*
X29232Y-17557D02*
X29225Y-17500D01*
X29225Y-17500D02*
X29232Y-17443D01*
X29232Y-17443D02*
X29249Y-17389D01*
X29249Y-17389D02*
X29278Y-17339D01*
X29278Y-17339D02*
X29316Y-17296D01*
X29316Y-17296D02*
X29363Y-17262D01*
X29363Y-17262D02*
X29416Y-17239D01*
X29416Y-17239D02*
X29472Y-17227D01*
X29472Y-17227D02*
X29528Y-17227D01*
X29528Y-17227D02*
X29584Y-17239D01*
X29584Y-17239D02*
X29637Y-17262D01*
X29637Y-17262D02*
X29684Y-17296D01*
X29684Y-17296D02*
X29722Y-17339D01*
X29722Y-17339D02*
X29751Y-17389D01*
X29751Y-17389D02*
X29768Y-17443D01*
X29768Y-17443D02*
X29775Y-17500D01*
X30775Y-17500D02*
X30768Y-17557D01*
X30768Y-17557D02*
X30751Y-17611D01*
X30751Y-17611D02*
X30722Y-17661D01*
X30722Y-17661D02*
X30684Y-17704D01*
X30684Y-17704D02*
X30637Y-17738D01*
X30637Y-17738D02*
X30584Y-17761D01*
X30584Y-17761D02*
X30528Y-17773D01*
X30528Y-17773D02*
X30472Y-17773D01*
X30472Y-17773D02*
X30416Y-17761D01*
X30416Y-17761D02*
X30363Y-17738D01*
X30363Y-17738D02*
X30316Y-17704D01*
X30316Y-17704D02*
X30278Y-17661D01*
X30278Y-17661D02*
X30249Y-17611D01*
X30249Y-17611D02*
X30232Y-17557D01*
X30232Y-17557D02*
X30225Y-17500D01*
X30225Y-17500D02*
X30232Y-17443D01*
X30232Y-17443D02*
X30249Y-17389D01*
X30249Y-17389D02*
X30278Y-17339D01*
X30278Y-17339D02*
X30316Y-17296D01*
X30316Y-17296D02*
X30363Y-17262D01*
X30363Y-17262D02*
X30416Y-17239D01*
X30416Y-17239D02*
X30472Y-17227D01*
X30472Y-17227D02*
X30528Y-17227D01*
X30528Y-17227D02*
X30584Y-17239D01*
X30584Y-17239D02*
X30637Y-17262D01*
X30637Y-17262D02*
X30684Y-17296D01*
X30684Y-17296D02*
X30722Y-17339D01*
X30722Y-17339D02*
X30751Y-17389D01*
X30751Y-17389D02*
X30768Y-17443D01*
X30768Y-17443D02*
X30775Y-17500D01*
X17225Y-17775D02*
X17225Y-17225D01*
X17225Y-17225D02*
X17775Y-17225D01*
X17775Y-17225D02*
X17775Y-17775D01*
X17775Y-17775D02*
X17225Y-17775D01*
X30775Y-14500D02*
X30768Y-14557D01*
X30768Y-14557D02*
X30751Y-14611D01*
X30751Y-14611D02*
X30722Y-14661D01*
X30722Y-14661D02*
X30684Y-14704D01*
X30684Y-14704D02*
X30637Y-14738D01*
X30637Y-14738D02*
X30584Y-14761D01*
X30584Y-14761D02*
X30528Y-14773D01*
X30528Y-14773D02*
X30472Y-14773D01*
X30472Y-14773D02*
X30416Y-14761D01*
X30416Y-14761D02*
X30363Y-14738D01*
X30363Y-14738D02*
X30316Y-14704D01*
X30316Y-14704D02*
X30278Y-14661D01*
X30278Y-14661D02*
X30249Y-14611D01*
X30249Y-14611D02*
X30232Y-14557D01*
X30232Y-14557D02*
X30225Y-14500D01*
X30225Y-14500D02*
X30232Y-14443D01*
X30232Y-14443D02*
X30249Y-14389D01*
X30249Y-14389D02*
X30278Y-14339D01*
X30278Y-14339D02*
X30316Y-14296D01*
X30316Y-14296D02*
X30363Y-14262D01*
X30363Y-14262D02*
X30416Y-14239D01*
X30416Y-14239D02*
X30472Y-14227D01*
X30472Y-14227D02*
X30528Y-14227D01*
X30528Y-14227D02*
X30584Y-14239D01*
X30584Y-14239D02*
X30637Y-14262D01*
X30637Y-14262D02*
X30684Y-14296D01*
X30684Y-14296D02*
X30722Y-14339D01*
X30722Y-14339D02*
X30751Y-14389D01*
X30751Y-14389D02*
X30768Y-14443D01*
X30768Y-14443D02*
X30775Y-14500D01*
X29775Y-14500D02*
X29768Y-14557D01*
X29768Y-14557D02*
X29751Y-14611D01*
X29751Y-14611D02*
X29722Y-14661D01*
X29722Y-14661D02*
X29684Y-14704D01*
X29684Y-14704D02*
X29637Y-14738D01*
X29637Y-14738D02*
X29584Y-14761D01*
X29584Y-14761D02*
X29528Y-14773D01*
X29528Y-14773D02*
X29472Y-14773D01*
X29472Y-14773D02*
X29416Y-14761D01*
X29416Y-14761D02*
X29363Y-14738D01*
X29363Y-14738D02*
X29316Y-14704D01*
X29316Y-14704D02*
X29278Y-14661D01*
X29278Y-14661D02*
X29249Y-14611D01*
X29249Y-14611D02*
X29232Y-14557D01*
X29232Y-14557D02*
X29225Y-14500D01*
X29225Y-14500D02*
X29232Y-14443D01*
X29232Y-14443D02*
X29249Y-14389D01*
X29249Y-14389D02*
X29278Y-14339D01*
X29278Y-14339D02*
X29316Y-14296D01*
X29316Y-14296D02*
X29363Y-14262D01*
X29363Y-14262D02*
X29416Y-14239D01*
X29416Y-14239D02*
X29472Y-14227D01*
X29472Y-14227D02*
X29528Y-14227D01*
X29528Y-14227D02*
X29584Y-14239D01*
X29584Y-14239D02*
X29637Y-14262D01*
X29637Y-14262D02*
X29684Y-14296D01*
X29684Y-14296D02*
X29722Y-14339D01*
X29722Y-14339D02*
X29751Y-14389D01*
X29751Y-14389D02*
X29768Y-14443D01*
X29768Y-14443D02*
X29775Y-14500D01*
X28775Y-14500D02*
X28768Y-14557D01*
X28768Y-14557D02*
X28751Y-14611D01*
X28751Y-14611D02*
X28722Y-14661D01*
X28722Y-14661D02*
X28684Y-14704D01*
X28684Y-14704D02*
X28637Y-14738D01*
X28637Y-14738D02*
X28584Y-14761D01*
X28584Y-14761D02*
X28528Y-14773D01*
X28528Y-14773D02*
X28472Y-14773D01*
X28472Y-14773D02*
X28416Y-14761D01*
X28416Y-14761D02*
X28363Y-14738D01*
X28363Y-14738D02*
X28316Y-14704D01*
X28316Y-14704D02*
X28278Y-14661D01*
X28278Y-14661D02*
X28249Y-14611D01*
X28249Y-14611D02*
X28232Y-14557D01*
X28232Y-14557D02*
X28225Y-14500D01*
X28225Y-14500D02*
X28232Y-14443D01*
X28232Y-14443D02*
X28249Y-14389D01*
X28249Y-14389D02*
X28278Y-14339D01*
X28278Y-14339D02*
X28316Y-14296D01*
X28316Y-14296D02*
X28363Y-14262D01*
X28363Y-14262D02*
X28416Y-14239D01*
X28416Y-14239D02*
X28472Y-14227D01*
X28472Y-14227D02*
X28528Y-14227D01*
X28528Y-14227D02*
X28584Y-14239D01*
X28584Y-14239D02*
X28637Y-14262D01*
X28637Y-14262D02*
X28684Y-14296D01*
X28684Y-14296D02*
X28722Y-14339D01*
X28722Y-14339D02*
X28751Y-14389D01*
X28751Y-14389D02*
X28768Y-14443D01*
X28768Y-14443D02*
X28775Y-14500D01*
X27775Y-14500D02*
X27768Y-14557D01*
X27768Y-14557D02*
X27751Y-14611D01*
X27751Y-14611D02*
X27722Y-14661D01*
X27722Y-14661D02*
X27684Y-14704D01*
X27684Y-14704D02*
X27637Y-14738D01*
X27637Y-14738D02*
X27584Y-14761D01*
X27584Y-14761D02*
X27528Y-14773D01*
X27528Y-14773D02*
X27472Y-14773D01*
X27472Y-14773D02*
X27416Y-14761D01*
X27416Y-14761D02*
X27363Y-14738D01*
X27363Y-14738D02*
X27316Y-14704D01*
X27316Y-14704D02*
X27278Y-14661D01*
X27278Y-14661D02*
X27249Y-14611D01*
X27249Y-14611D02*
X27232Y-14557D01*
X27232Y-14557D02*
X27225Y-14500D01*
X27225Y-14500D02*
X27232Y-14443D01*
X27232Y-14443D02*
X27249Y-14389D01*
X27249Y-14389D02*
X27278Y-14339D01*
X27278Y-14339D02*
X27316Y-14296D01*
X27316Y-14296D02*
X27363Y-14262D01*
X27363Y-14262D02*
X27416Y-14239D01*
X27416Y-14239D02*
X27472Y-14227D01*
X27472Y-14227D02*
X27528Y-14227D01*
X27528Y-14227D02*
X27584Y-14239D01*
X27584Y-14239D02*
X27637Y-14262D01*
X27637Y-14262D02*
X27684Y-14296D01*
X27684Y-14296D02*
X27722Y-14339D01*
X27722Y-14339D02*
X27751Y-14389D01*
X27751Y-14389D02*
X27768Y-14443D01*
X27768Y-14443D02*
X27775Y-14500D01*
X26775Y-14500D02*
X26768Y-14557D01*
X26768Y-14557D02*
X26751Y-14611D01*
X26751Y-14611D02*
X26722Y-14661D01*
X26722Y-14661D02*
X26684Y-14704D01*
X26684Y-14704D02*
X26637Y-14738D01*
X26637Y-14738D02*
X26584Y-14761D01*
X26584Y-14761D02*
X26528Y-14773D01*
X26528Y-14773D02*
X26472Y-14773D01*
X26472Y-14773D02*
X26416Y-14761D01*
X26416Y-14761D02*
X26363Y-14738D01*
X26363Y-14738D02*
X26316Y-14704D01*
X26316Y-14704D02*
X26278Y-14661D01*
X26278Y-14661D02*
X26249Y-14611D01*
X26249Y-14611D02*
X26232Y-14557D01*
X26232Y-14557D02*
X26225Y-14500D01*
X26225Y-14500D02*
X26232Y-14443D01*
X26232Y-14443D02*
X26249Y-14389D01*
X26249Y-14389D02*
X26278Y-14339D01*
X26278Y-14339D02*
X26316Y-14296D01*
X26316Y-14296D02*
X26363Y-14262D01*
X26363Y-14262D02*
X26416Y-14239D01*
X26416Y-14239D02*
X26472Y-14227D01*
X26472Y-14227D02*
X26528Y-14227D01*
X26528Y-14227D02*
X26584Y-14239D01*
X26584Y-14239D02*
X26637Y-14262D01*
X26637Y-14262D02*
X26684Y-14296D01*
X26684Y-14296D02*
X26722Y-14339D01*
X26722Y-14339D02*
X26751Y-14389D01*
X26751Y-14389D02*
X26768Y-14443D01*
X26768Y-14443D02*
X26775Y-14500D01*
X25775Y-14500D02*
X25768Y-14557D01*
X25768Y-14557D02*
X25751Y-14611D01*
X25751Y-14611D02*
X25722Y-14661D01*
X25722Y-14661D02*
X25684Y-14704D01*
X25684Y-14704D02*
X25637Y-14738D01*
X25637Y-14738D02*
X25584Y-14761D01*
X25584Y-14761D02*
X25528Y-14773D01*
X25528Y-14773D02*
X25472Y-14773D01*
X25472Y-14773D02*
X25416Y-14761D01*
X25416Y-14761D02*
X25363Y-14738D01*
X25363Y-14738D02*
X25316Y-14704D01*
X25316Y-14704D02*
X25278Y-14661D01*
X25278Y-14661D02*
X25249Y-14611D01*
X25249Y-14611D02*
X25232Y-14557D01*
X25232Y-14557D02*
X25225Y-14500D01*
X25225Y-14500D02*
X25232Y-14443D01*
X25232Y-14443D02*
X25249Y-14389D01*
X25249Y-14389D02*
X25278Y-14339D01*
X25278Y-14339D02*
X25316Y-14296D01*
X25316Y-14296D02*
X25363Y-14262D01*
X25363Y-14262D02*
X25416Y-14239D01*
X25416Y-14239D02*
X25472Y-14227D01*
X25472Y-14227D02*
X25528Y-14227D01*
X25528Y-14227D02*
X25584Y-14239D01*
X25584Y-14239D02*
X25637Y-14262D01*
X25637Y-14262D02*
X25684Y-14296D01*
X25684Y-14296D02*
X25722Y-14339D01*
X25722Y-14339D02*
X25751Y-14389D01*
X25751Y-14389D02*
X25768Y-14443D01*
X25768Y-14443D02*
X25775Y-14500D01*
X24775Y-14500D02*
X24768Y-14557D01*
X24768Y-14557D02*
X24751Y-14611D01*
X24751Y-14611D02*
X24722Y-14661D01*
X24722Y-14661D02*
X24684Y-14704D01*
X24684Y-14704D02*
X24637Y-14738D01*
X24637Y-14738D02*
X24584Y-14761D01*
X24584Y-14761D02*
X24528Y-14773D01*
X24528Y-14773D02*
X24472Y-14773D01*
X24472Y-14773D02*
X24416Y-14761D01*
X24416Y-14761D02*
X24363Y-14738D01*
X24363Y-14738D02*
X24316Y-14704D01*
X24316Y-14704D02*
X24278Y-14661D01*
X24278Y-14661D02*
X24249Y-14611D01*
X24249Y-14611D02*
X24232Y-14557D01*
X24232Y-14557D02*
X24225Y-14500D01*
X24225Y-14500D02*
X24232Y-14443D01*
X24232Y-14443D02*
X24249Y-14389D01*
X24249Y-14389D02*
X24278Y-14339D01*
X24278Y-14339D02*
X24316Y-14296D01*
X24316Y-14296D02*
X24363Y-14262D01*
X24363Y-14262D02*
X24416Y-14239D01*
X24416Y-14239D02*
X24472Y-14227D01*
X24472Y-14227D02*
X24528Y-14227D01*
X24528Y-14227D02*
X24584Y-14239D01*
X24584Y-14239D02*
X24637Y-14262D01*
X24637Y-14262D02*
X24684Y-14296D01*
X24684Y-14296D02*
X24722Y-14339D01*
X24722Y-14339D02*
X24751Y-14389D01*
X24751Y-14389D02*
X24768Y-14443D01*
X24768Y-14443D02*
X24775Y-14500D01*
X23775Y-14500D02*
X23768Y-14557D01*
X23768Y-14557D02*
X23751Y-14611D01*
X23751Y-14611D02*
X23722Y-14661D01*
X23722Y-14661D02*
X23684Y-14704D01*
X23684Y-14704D02*
X23637Y-14738D01*
X23637Y-14738D02*
X23584Y-14761D01*
X23584Y-14761D02*
X23528Y-14773D01*
X23528Y-14773D02*
X23472Y-14773D01*
X23472Y-14773D02*
X23416Y-14761D01*
X23416Y-14761D02*
X23363Y-14738D01*
X23363Y-14738D02*
X23316Y-14704D01*
X23316Y-14704D02*
X23278Y-14661D01*
X23278Y-14661D02*
X23249Y-14611D01*
X23249Y-14611D02*
X23232Y-14557D01*
X23232Y-14557D02*
X23225Y-14500D01*
X23225Y-14500D02*
X23232Y-14443D01*
X23232Y-14443D02*
X23249Y-14389D01*
X23249Y-14389D02*
X23278Y-14339D01*
X23278Y-14339D02*
X23316Y-14296D01*
X23316Y-14296D02*
X23363Y-14262D01*
X23363Y-14262D02*
X23416Y-14239D01*
X23416Y-14239D02*
X23472Y-14227D01*
X23472Y-14227D02*
X23528Y-14227D01*
X23528Y-14227D02*
X23584Y-14239D01*
X23584Y-14239D02*
X23637Y-14262D01*
X23637Y-14262D02*
X23684Y-14296D01*
X23684Y-14296D02*
X23722Y-14339D01*
X23722Y-14339D02*
X23751Y-14389D01*
X23751Y-14389D02*
X23768Y-14443D01*
X23768Y-14443D02*
X23775Y-14500D01*
X22775Y-14500D02*
X22768Y-14557D01*
X22768Y-14557D02*
X22751Y-14611D01*
X22751Y-14611D02*
X22722Y-14661D01*
X22722Y-14661D02*
X22684Y-14704D01*
X22684Y-14704D02*
X22637Y-14738D01*
X22637Y-14738D02*
X22584Y-14761D01*
X22584Y-14761D02*
X22528Y-14773D01*
X22528Y-14773D02*
X22472Y-14773D01*
X22472Y-14773D02*
X22416Y-14761D01*
X22416Y-14761D02*
X22363Y-14738D01*
X22363Y-14738D02*
X22316Y-14704D01*
X22316Y-14704D02*
X22278Y-14661D01*
X22278Y-14661D02*
X22249Y-14611D01*
X22249Y-14611D02*
X22232Y-14557D01*
X22232Y-14557D02*
X22225Y-14500D01*
X22225Y-14500D02*
X22232Y-14443D01*
X22232Y-14443D02*
X22249Y-14389D01*
X22249Y-14389D02*
X22278Y-14339D01*
X22278Y-14339D02*
X22316Y-14296D01*
X22316Y-14296D02*
X22363Y-14262D01*
X22363Y-14262D02*
X22416Y-14239D01*
X22416Y-14239D02*
X22472Y-14227D01*
X22472Y-14227D02*
X22528Y-14227D01*
X22528Y-14227D02*
X22584Y-14239D01*
X22584Y-14239D02*
X22637Y-14262D01*
X22637Y-14262D02*
X22684Y-14296D01*
X22684Y-14296D02*
X22722Y-14339D01*
X22722Y-14339D02*
X22751Y-14389D01*
X22751Y-14389D02*
X22768Y-14443D01*
X22768Y-14443D02*
X22775Y-14500D01*
X21775Y-14500D02*
X21768Y-14557D01*
X21768Y-14557D02*
X21751Y-14611D01*
X21751Y-14611D02*
X21722Y-14661D01*
X21722Y-14661D02*
X21684Y-14704D01*
X21684Y-14704D02*
X21637Y-14738D01*
X21637Y-14738D02*
X21584Y-14761D01*
X21584Y-14761D02*
X21528Y-14773D01*
X21528Y-14773D02*
X21472Y-14773D01*
X21472Y-14773D02*
X21416Y-14761D01*
X21416Y-14761D02*
X21363Y-14738D01*
X21363Y-14738D02*
X21316Y-14704D01*
X21316Y-14704D02*
X21278Y-14661D01*
X21278Y-14661D02*
X21249Y-14611D01*
X21249Y-14611D02*
X21232Y-14557D01*
X21232Y-14557D02*
X21225Y-14500D01*
X21225Y-14500D02*
X21232Y-14443D01*
X21232Y-14443D02*
X21249Y-14389D01*
X21249Y-14389D02*
X21278Y-14339D01*
X21278Y-14339D02*
X21316Y-14296D01*
X21316Y-14296D02*
X21363Y-14262D01*
X21363Y-14262D02*
X21416Y-14239D01*
X21416Y-14239D02*
X21472Y-14227D01*
X21472Y-14227D02*
X21528Y-14227D01*
X21528Y-14227D02*
X21584Y-14239D01*
X21584Y-14239D02*
X21637Y-14262D01*
X21637Y-14262D02*
X21684Y-14296D01*
X21684Y-14296D02*
X21722Y-14339D01*
X21722Y-14339D02*
X21751Y-14389D01*
X21751Y-14389D02*
X21768Y-14443D01*
X21768Y-14443D02*
X21775Y-14500D01*
X20775Y-14500D02*
X20768Y-14557D01*
X20768Y-14557D02*
X20751Y-14611D01*
X20751Y-14611D02*
X20722Y-14661D01*
X20722Y-14661D02*
X20684Y-14704D01*
X20684Y-14704D02*
X20637Y-14738D01*
X20637Y-14738D02*
X20584Y-14761D01*
X20584Y-14761D02*
X20528Y-14773D01*
X20528Y-14773D02*
X20472Y-14773D01*
X20472Y-14773D02*
X20416Y-14761D01*
X20416Y-14761D02*
X20363Y-14738D01*
X20363Y-14738D02*
X20316Y-14704D01*
X20316Y-14704D02*
X20278Y-14661D01*
X20278Y-14661D02*
X20249Y-14611D01*
X20249Y-14611D02*
X20232Y-14557D01*
X20232Y-14557D02*
X20225Y-14500D01*
X20225Y-14500D02*
X20232Y-14443D01*
X20232Y-14443D02*
X20249Y-14389D01*
X20249Y-14389D02*
X20278Y-14339D01*
X20278Y-14339D02*
X20316Y-14296D01*
X20316Y-14296D02*
X20363Y-14262D01*
X20363Y-14262D02*
X20416Y-14239D01*
X20416Y-14239D02*
X20472Y-14227D01*
X20472Y-14227D02*
X20528Y-14227D01*
X20528Y-14227D02*
X20584Y-14239D01*
X20584Y-14239D02*
X20637Y-14262D01*
X20637Y-14262D02*
X20684Y-14296D01*
X20684Y-14296D02*
X20722Y-14339D01*
X20722Y-14339D02*
X20751Y-14389D01*
X20751Y-14389D02*
X20768Y-14443D01*
X20768Y-14443D02*
X20775Y-14500D01*
X19775Y-14500D02*
X19768Y-14557D01*
X19768Y-14557D02*
X19751Y-14611D01*
X19751Y-14611D02*
X19722Y-14661D01*
X19722Y-14661D02*
X19684Y-14704D01*
X19684Y-14704D02*
X19637Y-14738D01*
X19637Y-14738D02*
X19584Y-14761D01*
X19584Y-14761D02*
X19528Y-14773D01*
X19528Y-14773D02*
X19472Y-14773D01*
X19472Y-14773D02*
X19416Y-14761D01*
X19416Y-14761D02*
X19363Y-14738D01*
X19363Y-14738D02*
X19316Y-14704D01*
X19316Y-14704D02*
X19278Y-14661D01*
X19278Y-14661D02*
X19249Y-14611D01*
X19249Y-14611D02*
X19232Y-14557D01*
X19232Y-14557D02*
X19225Y-14500D01*
X19225Y-14500D02*
X19232Y-14443D01*
X19232Y-14443D02*
X19249Y-14389D01*
X19249Y-14389D02*
X19278Y-14339D01*
X19278Y-14339D02*
X19316Y-14296D01*
X19316Y-14296D02*
X19363Y-14262D01*
X19363Y-14262D02*
X19416Y-14239D01*
X19416Y-14239D02*
X19472Y-14227D01*
X19472Y-14227D02*
X19528Y-14227D01*
X19528Y-14227D02*
X19584Y-14239D01*
X19584Y-14239D02*
X19637Y-14262D01*
X19637Y-14262D02*
X19684Y-14296D01*
X19684Y-14296D02*
X19722Y-14339D01*
X19722Y-14339D02*
X19751Y-14389D01*
X19751Y-14389D02*
X19768Y-14443D01*
X19768Y-14443D02*
X19775Y-14500D01*
X18775Y-14500D02*
X18768Y-14557D01*
X18768Y-14557D02*
X18751Y-14611D01*
X18751Y-14611D02*
X18722Y-14661D01*
X18722Y-14661D02*
X18684Y-14704D01*
X18684Y-14704D02*
X18637Y-14738D01*
X18637Y-14738D02*
X18584Y-14761D01*
X18584Y-14761D02*
X18528Y-14773D01*
X18528Y-14773D02*
X18472Y-14773D01*
X18472Y-14773D02*
X18416Y-14761D01*
X18416Y-14761D02*
X18363Y-14738D01*
X18363Y-14738D02*
X18316Y-14704D01*
X18316Y-14704D02*
X18278Y-14661D01*
X18278Y-14661D02*
X18249Y-14611D01*
X18249Y-14611D02*
X18232Y-14557D01*
X18232Y-14557D02*
X18225Y-14500D01*
X18225Y-14500D02*
X18232Y-14443D01*
X18232Y-14443D02*
X18249Y-14389D01*
X18249Y-14389D02*
X18278Y-14339D01*
X18278Y-14339D02*
X18316Y-14296D01*
X18316Y-14296D02*
X18363Y-14262D01*
X18363Y-14262D02*
X18416Y-14239D01*
X18416Y-14239D02*
X18472Y-14227D01*
X18472Y-14227D02*
X18528Y-14227D01*
X18528Y-14227D02*
X18584Y-14239D01*
X18584Y-14239D02*
X18637Y-14262D01*
X18637Y-14262D02*
X18684Y-14296D01*
X18684Y-14296D02*
X18722Y-14339D01*
X18722Y-14339D02*
X18751Y-14389D01*
X18751Y-14389D02*
X18768Y-14443D01*
X18768Y-14443D02*
X18775Y-14500D01*
X17775Y-14500D02*
X17768Y-14557D01*
X17768Y-14557D02*
X17751Y-14611D01*
X17751Y-14611D02*
X17722Y-14661D01*
X17722Y-14661D02*
X17684Y-14704D01*
X17684Y-14704D02*
X17637Y-14738D01*
X17637Y-14738D02*
X17584Y-14761D01*
X17584Y-14761D02*
X17528Y-14773D01*
X17528Y-14773D02*
X17472Y-14773D01*
X17472Y-14773D02*
X17416Y-14761D01*
X17416Y-14761D02*
X17363Y-14738D01*
X17363Y-14738D02*
X17316Y-14704D01*
X17316Y-14704D02*
X17278Y-14661D01*
X17278Y-14661D02*
X17249Y-14611D01*
X17249Y-14611D02*
X17232Y-14557D01*
X17232Y-14557D02*
X17225Y-14500D01*
X17225Y-14500D02*
X17232Y-14443D01*
X17232Y-14443D02*
X17249Y-14389D01*
X17249Y-14389D02*
X17278Y-14339D01*
X17278Y-14339D02*
X17316Y-14296D01*
X17316Y-14296D02*
X17363Y-14262D01*
X17363Y-14262D02*
X17416Y-14239D01*
X17416Y-14239D02*
X17472Y-14227D01*
X17472Y-14227D02*
X17528Y-14227D01*
X17528Y-14227D02*
X17584Y-14239D01*
X17584Y-14239D02*
X17637Y-14262D01*
X17637Y-14262D02*
X17684Y-14296D01*
X17684Y-14296D02*
X17722Y-14339D01*
X17722Y-14339D02*
X17751Y-14389D01*
X17751Y-14389D02*
X17768Y-14443D01*
X17768Y-14443D02*
X17775Y-14500D01*
X17190Y-22450D02*
X17190Y-21550D01*
X17190Y-21550D02*
X17810Y-21550D01*
X17810Y-21550D02*
X17810Y-22450D01*
X17810Y-22450D02*
X17190Y-22450D01*
X18190Y-22450D02*
X18190Y-21550D01*
X18190Y-21550D02*
X18810Y-21550D01*
X18810Y-21550D02*
X18810Y-22450D01*
X18810Y-22450D02*
X18190Y-22450D01*
X19190Y-22450D02*
X19190Y-21550D01*
X19190Y-21550D02*
X19810Y-21550D01*
X19810Y-21550D02*
X19810Y-22450D01*
X19810Y-22450D02*
X19190Y-22450D01*
X20190Y-22450D02*
X20190Y-21550D01*
X20190Y-21550D02*
X20810Y-21550D01*
X20810Y-21550D02*
X20810Y-22450D01*
X20810Y-22450D02*
X20190Y-22450D01*
X20190Y-19450D02*
X20190Y-18550D01*
X20190Y-18550D02*
X20810Y-18550D01*
X20810Y-18550D02*
X20810Y-19450D01*
X20810Y-19450D02*
X20190Y-19450D01*
X19190Y-19450D02*
X19190Y-18550D01*
X19190Y-18550D02*
X19810Y-18550D01*
X19810Y-18550D02*
X19810Y-19450D01*
X19810Y-19450D02*
X19190Y-19450D01*
X18190Y-19450D02*
X18190Y-18550D01*
X18190Y-18550D02*
X18810Y-18550D01*
X18810Y-18550D02*
X18810Y-19450D01*
X18810Y-19450D02*
X18190Y-19450D01*
X17190Y-19450D02*
X17190Y-18550D01*
X17190Y-18550D02*
X17810Y-18550D01*
X17810Y-18550D02*
X17810Y-19450D01*
X17810Y-19450D02*
X17190Y-19450D01*
X31300Y-09940D02*
X32200Y-09940D01*
X32200Y-09940D02*
X32200Y-10560D01*
X32200Y-10560D02*
X31300Y-10560D01*
X31300Y-10560D02*
X31300Y-09940D01*
X31300Y-10940D02*
X32200Y-10940D01*
X32200Y-10940D02*
X32200Y-11560D01*
X32200Y-11560D02*
X31300Y-11560D01*
X31300Y-11560D02*
X31300Y-10940D01*
X31300Y-11940D02*
X32200Y-11940D01*
X32200Y-11940D02*
X32200Y-12560D01*
X32200Y-12560D02*
X31300Y-12560D01*
X31300Y-12560D02*
X31300Y-11940D01*
X31300Y-12940D02*
X32200Y-12940D01*
X32200Y-12940D02*
X32200Y-13560D01*
X32200Y-13560D02*
X31300Y-13560D01*
X31300Y-13560D02*
X31300Y-12940D01*
X34300Y-12940D02*
X35200Y-12940D01*
X35200Y-12940D02*
X35200Y-13560D01*
X35200Y-13560D02*
X34300Y-13560D01*
X34300Y-13560D02*
X34300Y-12940D01*
X34300Y-11940D02*
X35200Y-11940D01*
X35200Y-11940D02*
X35200Y-12560D01*
X35200Y-12560D02*
X34300Y-12560D01*
X34300Y-12560D02*
X34300Y-11940D01*
X34300Y-10940D02*
X35200Y-10940D01*
X35200Y-10940D02*
X35200Y-11560D01*
X35200Y-11560D02*
X34300Y-11560D01*
X34300Y-11560D02*
X34300Y-10940D01*
X34300Y-09940D02*
X35200Y-09940D01*
X35200Y-09940D02*
X35200Y-10560D01*
X35200Y-10560D02*
X34300Y-10560D01*
X34300Y-10560D02*
X34300Y-09940D01*
X23775Y-18500D02*
X23768Y-18557D01*
X23768Y-18557D02*
X23751Y-18611D01*
X23751Y-18611D02*
X23722Y-18661D01*
X23722Y-18661D02*
X23684Y-18704D01*
X23684Y-18704D02*
X23637Y-18738D01*
X23637Y-18738D02*
X23584Y-18761D01*
X23584Y-18761D02*
X23528Y-18773D01*
X23528Y-18773D02*
X23472Y-18773D01*
X23472Y-18773D02*
X23416Y-18761D01*
X23416Y-18761D02*
X23363Y-18738D01*
X23363Y-18738D02*
X23316Y-18704D01*
X23316Y-18704D02*
X23278Y-18661D01*
X23278Y-18661D02*
X23249Y-18611D01*
X23249Y-18611D02*
X23232Y-18557D01*
X23232Y-18557D02*
X23225Y-18500D01*
X23225Y-18500D02*
X23232Y-18443D01*
X23232Y-18443D02*
X23249Y-18389D01*
X23249Y-18389D02*
X23278Y-18339D01*
X23278Y-18339D02*
X23316Y-18296D01*
X23316Y-18296D02*
X23363Y-18262D01*
X23363Y-18262D02*
X23416Y-18239D01*
X23416Y-18239D02*
X23472Y-18227D01*
X23472Y-18227D02*
X23528Y-18227D01*
X23528Y-18227D02*
X23584Y-18239D01*
X23584Y-18239D02*
X23637Y-18262D01*
X23637Y-18262D02*
X23684Y-18296D01*
X23684Y-18296D02*
X23722Y-18339D01*
X23722Y-18339D02*
X23751Y-18389D01*
X23751Y-18389D02*
X23768Y-18443D01*
X23768Y-18443D02*
X23775Y-18500D01*
X24775Y-18500D02*
X24768Y-18557D01*
X24768Y-18557D02*
X24751Y-18611D01*
X24751Y-18611D02*
X24722Y-18661D01*
X24722Y-18661D02*
X24684Y-18704D01*
X24684Y-18704D02*
X24637Y-18738D01*
X24637Y-18738D02*
X24584Y-18761D01*
X24584Y-18761D02*
X24528Y-18773D01*
X24528Y-18773D02*
X24472Y-18773D01*
X24472Y-18773D02*
X24416Y-18761D01*
X24416Y-18761D02*
X24363Y-18738D01*
X24363Y-18738D02*
X24316Y-18704D01*
X24316Y-18704D02*
X24278Y-18661D01*
X24278Y-18661D02*
X24249Y-18611D01*
X24249Y-18611D02*
X24232Y-18557D01*
X24232Y-18557D02*
X24225Y-18500D01*
X24225Y-18500D02*
X24232Y-18443D01*
X24232Y-18443D02*
X24249Y-18389D01*
X24249Y-18389D02*
X24278Y-18339D01*
X24278Y-18339D02*
X24316Y-18296D01*
X24316Y-18296D02*
X24363Y-18262D01*
X24363Y-18262D02*
X24416Y-18239D01*
X24416Y-18239D02*
X24472Y-18227D01*
X24472Y-18227D02*
X24528Y-18227D01*
X24528Y-18227D02*
X24584Y-18239D01*
X24584Y-18239D02*
X24637Y-18262D01*
X24637Y-18262D02*
X24684Y-18296D01*
X24684Y-18296D02*
X24722Y-18339D01*
X24722Y-18339D02*
X24751Y-18389D01*
X24751Y-18389D02*
X24768Y-18443D01*
X24768Y-18443D02*
X24775Y-18500D01*
X28775Y-21500D02*
X28768Y-21557D01*
X28768Y-21557D02*
X28751Y-21611D01*
X28751Y-21611D02*
X28722Y-21661D01*
X28722Y-21661D02*
X28684Y-21704D01*
X28684Y-21704D02*
X28637Y-21738D01*
X28637Y-21738D02*
X28584Y-21761D01*
X28584Y-21761D02*
X28528Y-21773D01*
X28528Y-21773D02*
X28472Y-21773D01*
X28472Y-21773D02*
X28416Y-21761D01*
X28416Y-21761D02*
X28363Y-21738D01*
X28363Y-21738D02*
X28316Y-21704D01*
X28316Y-21704D02*
X28278Y-21661D01*
X28278Y-21661D02*
X28249Y-21611D01*
X28249Y-21611D02*
X28232Y-21557D01*
X28232Y-21557D02*
X28225Y-21500D01*
X28225Y-21500D02*
X28232Y-21443D01*
X28232Y-21443D02*
X28249Y-21389D01*
X28249Y-21389D02*
X28278Y-21339D01*
X28278Y-21339D02*
X28316Y-21296D01*
X28316Y-21296D02*
X28363Y-21262D01*
X28363Y-21262D02*
X28416Y-21239D01*
X28416Y-21239D02*
X28472Y-21227D01*
X28472Y-21227D02*
X28528Y-21227D01*
X28528Y-21227D02*
X28584Y-21239D01*
X28584Y-21239D02*
X28637Y-21262D01*
X28637Y-21262D02*
X28684Y-21296D01*
X28684Y-21296D02*
X28722Y-21339D01*
X28722Y-21339D02*
X28751Y-21389D01*
X28751Y-21389D02*
X28768Y-21443D01*
X28768Y-21443D02*
X28775Y-21500D01*
X29775Y-21500D02*
X29768Y-21557D01*
X29768Y-21557D02*
X29751Y-21611D01*
X29751Y-21611D02*
X29722Y-21661D01*
X29722Y-21661D02*
X29684Y-21704D01*
X29684Y-21704D02*
X29637Y-21738D01*
X29637Y-21738D02*
X29584Y-21761D01*
X29584Y-21761D02*
X29528Y-21773D01*
X29528Y-21773D02*
X29472Y-21773D01*
X29472Y-21773D02*
X29416Y-21761D01*
X29416Y-21761D02*
X29363Y-21738D01*
X29363Y-21738D02*
X29316Y-21704D01*
X29316Y-21704D02*
X29278Y-21661D01*
X29278Y-21661D02*
X29249Y-21611D01*
X29249Y-21611D02*
X29232Y-21557D01*
X29232Y-21557D02*
X29225Y-21500D01*
X29225Y-21500D02*
X29232Y-21443D01*
X29232Y-21443D02*
X29249Y-21389D01*
X29249Y-21389D02*
X29278Y-21339D01*
X29278Y-21339D02*
X29316Y-21296D01*
X29316Y-21296D02*
X29363Y-21262D01*
X29363Y-21262D02*
X29416Y-21239D01*
X29416Y-21239D02*
X29472Y-21227D01*
X29472Y-21227D02*
X29528Y-21227D01*
X29528Y-21227D02*
X29584Y-21239D01*
X29584Y-21239D02*
X29637Y-21262D01*
X29637Y-21262D02*
X29684Y-21296D01*
X29684Y-21296D02*
X29722Y-21339D01*
X29722Y-21339D02*
X29751Y-21389D01*
X29751Y-21389D02*
X29768Y-21443D01*
X29768Y-21443D02*
X29775Y-21500D01*
X26275Y-21500D02*
X26268Y-21557D01*
X26268Y-21557D02*
X26251Y-21611D01*
X26251Y-21611D02*
X26222Y-21661D01*
X26222Y-21661D02*
X26184Y-21704D01*
X26184Y-21704D02*
X26137Y-21738D01*
X26137Y-21738D02*
X26084Y-21761D01*
X26084Y-21761D02*
X26028Y-21773D01*
X26028Y-21773D02*
X25972Y-21773D01*
X25972Y-21773D02*
X25916Y-21761D01*
X25916Y-21761D02*
X25863Y-21738D01*
X25863Y-21738D02*
X25816Y-21704D01*
X25816Y-21704D02*
X25778Y-21661D01*
X25778Y-21661D02*
X25749Y-21611D01*
X25749Y-21611D02*
X25732Y-21557D01*
X25732Y-21557D02*
X25725Y-21500D01*
X25725Y-21500D02*
X25732Y-21443D01*
X25732Y-21443D02*
X25749Y-21389D01*
X25749Y-21389D02*
X25778Y-21339D01*
X25778Y-21339D02*
X25816Y-21296D01*
X25816Y-21296D02*
X25863Y-21262D01*
X25863Y-21262D02*
X25916Y-21239D01*
X25916Y-21239D02*
X25972Y-21227D01*
X25972Y-21227D02*
X26028Y-21227D01*
X26028Y-21227D02*
X26084Y-21239D01*
X26084Y-21239D02*
X26137Y-21262D01*
X26137Y-21262D02*
X26184Y-21296D01*
X26184Y-21296D02*
X26222Y-21339D01*
X26222Y-21339D02*
X26251Y-21389D01*
X26251Y-21389D02*
X26268Y-21443D01*
X26268Y-21443D02*
X26275Y-21500D01*
X27275Y-21500D02*
X27268Y-21557D01*
X27268Y-21557D02*
X27251Y-21611D01*
X27251Y-21611D02*
X27222Y-21661D01*
X27222Y-21661D02*
X27184Y-21704D01*
X27184Y-21704D02*
X27137Y-21738D01*
X27137Y-21738D02*
X27084Y-21761D01*
X27084Y-21761D02*
X27028Y-21773D01*
X27028Y-21773D02*
X26972Y-21773D01*
X26972Y-21773D02*
X26916Y-21761D01*
X26916Y-21761D02*
X26863Y-21738D01*
X26863Y-21738D02*
X26816Y-21704D01*
X26816Y-21704D02*
X26778Y-21661D01*
X26778Y-21661D02*
X26749Y-21611D01*
X26749Y-21611D02*
X26732Y-21557D01*
X26732Y-21557D02*
X26725Y-21500D01*
X26725Y-21500D02*
X26732Y-21443D01*
X26732Y-21443D02*
X26749Y-21389D01*
X26749Y-21389D02*
X26778Y-21339D01*
X26778Y-21339D02*
X26816Y-21296D01*
X26816Y-21296D02*
X26863Y-21262D01*
X26863Y-21262D02*
X26916Y-21239D01*
X26916Y-21239D02*
X26972Y-21227D01*
X26972Y-21227D02*
X27028Y-21227D01*
X27028Y-21227D02*
X27084Y-21239D01*
X27084Y-21239D02*
X27137Y-21262D01*
X27137Y-21262D02*
X27184Y-21296D01*
X27184Y-21296D02*
X27222Y-21339D01*
X27222Y-21339D02*
X27251Y-21389D01*
X27251Y-21389D02*
X27268Y-21443D01*
X27268Y-21443D02*
X27275Y-21500D01*
X14275Y-23725D02*
X14275Y-24275D01*
X14275Y-24275D02*
X13725Y-24275D01*
X13725Y-24275D02*
X13725Y-23725D01*
X13725Y-23725D02*
X14275Y-23725D01*
X17275Y-24000D02*
X17268Y-24057D01*
X17268Y-24057D02*
X17251Y-24111D01*
X17251Y-24111D02*
X17222Y-24161D01*
X17222Y-24161D02*
X17184Y-24204D01*
X17184Y-24204D02*
X17137Y-24238D01*
X17137Y-24238D02*
X17084Y-24261D01*
X17084Y-24261D02*
X17028Y-24273D01*
X17028Y-24273D02*
X16972Y-24273D01*
X16972Y-24273D02*
X16916Y-24261D01*
X16916Y-24261D02*
X16863Y-24238D01*
X16863Y-24238D02*
X16816Y-24204D01*
X16816Y-24204D02*
X16778Y-24161D01*
X16778Y-24161D02*
X16749Y-24111D01*
X16749Y-24111D02*
X16732Y-24057D01*
X16732Y-24057D02*
X16725Y-24000D01*
X16725Y-24000D02*
X16732Y-23943D01*
X16732Y-23943D02*
X16749Y-23889D01*
X16749Y-23889D02*
X16778Y-23839D01*
X16778Y-23839D02*
X16816Y-23796D01*
X16816Y-23796D02*
X16863Y-23762D01*
X16863Y-23762D02*
X16916Y-23739D01*
X16916Y-23739D02*
X16972Y-23727D01*
X16972Y-23727D02*
X17028Y-23727D01*
X17028Y-23727D02*
X17084Y-23739D01*
X17084Y-23739D02*
X17137Y-23762D01*
X17137Y-23762D02*
X17184Y-23796D01*
X17184Y-23796D02*
X17222Y-23839D01*
X17222Y-23839D02*
X17251Y-23889D01*
X17251Y-23889D02*
X17268Y-23943D01*
X17268Y-23943D02*
X17275Y-24000D01*
X10800Y-07700D02*
X10800Y-08300D01*
X10800Y-08300D02*
X10200Y-08300D01*
X10200Y-08300D02*
X10200Y-07700D01*
X10200Y-07700D02*
X10800Y-07700D01*
X09800Y-08000D02*
X09793Y-08062D01*
X09793Y-08062D02*
X09774Y-08122D01*
X09774Y-08122D02*
X09742Y-08176D01*
X09742Y-08176D02*
X09700Y-08222D01*
X09700Y-08222D02*
X09650Y-08259D01*
X09650Y-08259D02*
X09592Y-08285D01*
X09592Y-08285D02*
X09531Y-08298D01*
X09531Y-08298D02*
X09469Y-08298D01*
X09469Y-08298D02*
X09408Y-08285D01*
X09408Y-08285D02*
X09350Y-08259D01*
X09350Y-08259D02*
X09300Y-08222D01*
X09300Y-08222D02*
X09258Y-08176D01*
X09258Y-08176D02*
X09226Y-08122D01*
X09226Y-08122D02*
X09207Y-08062D01*
X09207Y-08062D02*
X09200Y-08000D01*
X09200Y-08000D02*
X09207Y-07938D01*
X09207Y-07938D02*
X09226Y-07878D01*
X09226Y-07878D02*
X09258Y-07824D01*
X09258Y-07824D02*
X09300Y-07778D01*
X09300Y-07778D02*
X09350Y-07741D01*
X09350Y-07741D02*
X09408Y-07715D01*
X09408Y-07715D02*
X09469Y-07702D01*
X09469Y-07702D02*
X09531Y-07702D01*
X09531Y-07702D02*
X09592Y-07715D01*
X09592Y-07715D02*
X09650Y-07741D01*
X09650Y-07741D02*
X09700Y-07778D01*
X09700Y-07778D02*
X09742Y-07824D01*
X09742Y-07824D02*
X09774Y-07878D01*
X09774Y-07878D02*
X09793Y-07938D01*
X09793Y-07938D02*
X09800Y-08000D01*
X20700Y-08800D02*
X20700Y-08200D01*
X20700Y-08200D02*
X21300Y-08200D01*
X21300Y-08200D02*
X21300Y-08800D01*
X21300Y-08800D02*
X20700Y-08800D01*
X22300Y-08500D02*
X22293Y-08562D01*
X22293Y-08562D02*
X22274Y-08622D01*
X22274Y-08622D02*
X22242Y-08676D01*
X22242Y-08676D02*
X22200Y-08722D01*
X22200Y-08722D02*
X22150Y-08759D01*
X22150Y-08759D02*
X22092Y-08785D01*
X22092Y-08785D02*
X22031Y-08798D01*
X22031Y-08798D02*
X21969Y-08798D01*
X21969Y-08798D02*
X21908Y-08785D01*
X21908Y-08785D02*
X21850Y-08759D01*
X21850Y-08759D02*
X21800Y-08722D01*
X21800Y-08722D02*
X21758Y-08676D01*
X21758Y-08676D02*
X21726Y-08622D01*
X21726Y-08622D02*
X21707Y-08562D01*
X21707Y-08562D02*
X21700Y-08500D01*
X21700Y-08500D02*
X21707Y-08438D01*
X21707Y-08438D02*
X21726Y-08378D01*
X21726Y-08378D02*
X21758Y-08324D01*
X21758Y-08324D02*
X21800Y-08278D01*
X21800Y-08278D02*
X21850Y-08241D01*
X21850Y-08241D02*
X21908Y-08215D01*
X21908Y-08215D02*
X21969Y-08202D01*
X21969Y-08202D02*
X22031Y-08202D01*
X22031Y-08202D02*
X22092Y-08215D01*
X22092Y-08215D02*
X22150Y-08241D01*
X22150Y-08241D02*
X22200Y-08278D01*
X22200Y-08278D02*
X22242Y-08324D01*
X22242Y-08324D02*
X22274Y-08378D01*
X22274Y-08378D02*
X22293Y-08438D01*
X22293Y-08438D02*
X22300Y-08500D01*
X14300Y-19800D02*
X13700Y-19800D01*
X13700Y-19800D02*
X13700Y-19200D01*
X13700Y-19200D02*
X14300Y-19200D01*
X14300Y-19200D02*
X14300Y-19800D01*
X14300Y-18500D02*
X14293Y-18562D01*
X14293Y-18562D02*
X14274Y-18622D01*
X14274Y-18622D02*
X14242Y-18676D01*
X14242Y-18676D02*
X14200Y-18722D01*
X14200Y-18722D02*
X14150Y-18759D01*
X14150Y-18759D02*
X14092Y-18785D01*
X14092Y-18785D02*
X14031Y-18798D01*
X14031Y-18798D02*
X13969Y-18798D01*
X13969Y-18798D02*
X13908Y-18785D01*
X13908Y-18785D02*
X13850Y-18759D01*
X13850Y-18759D02*
X13800Y-18722D01*
X13800Y-18722D02*
X13758Y-18676D01*
X13758Y-18676D02*
X13726Y-18622D01*
X13726Y-18622D02*
X13707Y-18562D01*
X13707Y-18562D02*
X13700Y-18500D01*
X13700Y-18500D02*
X13707Y-18438D01*
X13707Y-18438D02*
X13726Y-18378D01*
X13726Y-18378D02*
X13758Y-18324D01*
X13758Y-18324D02*
X13800Y-18278D01*
X13800Y-18278D02*
X13850Y-18241D01*
X13850Y-18241D02*
X13908Y-18215D01*
X13908Y-18215D02*
X13969Y-18202D01*
X13969Y-18202D02*
X14031Y-18202D01*
X14031Y-18202D02*
X14092Y-18215D01*
X14092Y-18215D02*
X14150Y-18241D01*
X14150Y-18241D02*
X14200Y-18278D01*
X14200Y-18278D02*
X14242Y-18324D01*
X14242Y-18324D02*
X14274Y-18378D01*
X14274Y-18378D02*
X14293Y-18438D01*
X14293Y-18438D02*
X14300Y-18500D01*
X23200Y-08800D02*
X23200Y-08200D01*
X23200Y-08200D02*
X23800Y-08200D01*
X23800Y-08200D02*
X23800Y-08800D01*
X23800Y-08800D02*
X23200Y-08800D01*
X24800Y-08500D02*
X24793Y-08562D01*
X24793Y-08562D02*
X24774Y-08622D01*
X24774Y-08622D02*
X24742Y-08676D01*
X24742Y-08676D02*
X24700Y-08722D01*
X24700Y-08722D02*
X24650Y-08759D01*
X24650Y-08759D02*
X24592Y-08785D01*
X24592Y-08785D02*
X24531Y-08798D01*
X24531Y-08798D02*
X24469Y-08798D01*
X24469Y-08798D02*
X24408Y-08785D01*
X24408Y-08785D02*
X24350Y-08759D01*
X24350Y-08759D02*
X24300Y-08722D01*
X24300Y-08722D02*
X24258Y-08676D01*
X24258Y-08676D02*
X24226Y-08622D01*
X24226Y-08622D02*
X24207Y-08562D01*
X24207Y-08562D02*
X24200Y-08500D01*
X24200Y-08500D02*
X24207Y-08438D01*
X24207Y-08438D02*
X24226Y-08378D01*
X24226Y-08378D02*
X24258Y-08324D01*
X24258Y-08324D02*
X24300Y-08278D01*
X24300Y-08278D02*
X24350Y-08241D01*
X24350Y-08241D02*
X24408Y-08215D01*
X24408Y-08215D02*
X24469Y-08202D01*
X24469Y-08202D02*
X24531Y-08202D01*
X24531Y-08202D02*
X24592Y-08215D01*
X24592Y-08215D02*
X24650Y-08241D01*
X24650Y-08241D02*
X24700Y-08278D01*
X24700Y-08278D02*
X24742Y-08324D01*
X24742Y-08324D02*
X24774Y-08378D01*
X24774Y-08378D02*
X24793Y-08438D01*
X24793Y-08438D02*
X24800Y-08500D01*
X29800Y-11450D02*
X29800Y-12050D01*
X29800Y-12050D02*
X29200Y-12050D01*
X29200Y-12050D02*
X29200Y-11450D01*
X29200Y-11450D02*
X29800Y-11450D01*
X29800Y-12750D02*
X29793Y-12812D01*
X29793Y-12812D02*
X29774Y-12872D01*
X29774Y-12872D02*
X29742Y-12926D01*
X29742Y-12926D02*
X29700Y-12972D01*
X29700Y-12972D02*
X29650Y-13009D01*
X29650Y-13009D02*
X29592Y-13035D01*
X29592Y-13035D02*
X29531Y-13048D01*
X29531Y-13048D02*
X29469Y-13048D01*
X29469Y-13048D02*
X29408Y-13035D01*
X29408Y-13035D02*
X29350Y-13009D01*
X29350Y-13009D02*
X29300Y-12972D01*
X29300Y-12972D02*
X29258Y-12926D01*
X29258Y-12926D02*
X29226Y-12872D01*
X29226Y-12872D02*
X29207Y-12812D01*
X29207Y-12812D02*
X29200Y-12750D01*
X29200Y-12750D02*
X29207Y-12688D01*
X29207Y-12688D02*
X29226Y-12628D01*
X29226Y-12628D02*
X29258Y-12574D01*
X29258Y-12574D02*
X29300Y-12528D01*
X29300Y-12528D02*
X29350Y-12491D01*
X29350Y-12491D02*
X29408Y-12465D01*
X29408Y-12465D02*
X29469Y-12452D01*
X29469Y-12452D02*
X29531Y-12452D01*
X29531Y-12452D02*
X29592Y-12465D01*
X29592Y-12465D02*
X29650Y-12491D01*
X29650Y-12491D02*
X29700Y-12528D01*
X29700Y-12528D02*
X29742Y-12574D01*
X29742Y-12574D02*
X29774Y-12628D01*
X29774Y-12628D02*
X29793Y-12688D01*
X29793Y-12688D02*
X29800Y-12750D01*
X28800Y-11750D02*
X28793Y-11812D01*
X28793Y-11812D02*
X28774Y-11872D01*
X28774Y-11872D02*
X28742Y-11926D01*
X28742Y-11926D02*
X28700Y-11972D01*
X28700Y-11972D02*
X28650Y-12009D01*
X28650Y-12009D02*
X28592Y-12035D01*
X28592Y-12035D02*
X28531Y-12048D01*
X28531Y-12048D02*
X28469Y-12048D01*
X28469Y-12048D02*
X28408Y-12035D01*
X28408Y-12035D02*
X28350Y-12009D01*
X28350Y-12009D02*
X28300Y-11972D01*
X28300Y-11972D02*
X28258Y-11926D01*
X28258Y-11926D02*
X28226Y-11872D01*
X28226Y-11872D02*
X28207Y-11812D01*
X28207Y-11812D02*
X28200Y-11750D01*
X28200Y-11750D02*
X28207Y-11688D01*
X28207Y-11688D02*
X28226Y-11628D01*
X28226Y-11628D02*
X28258Y-11574D01*
X28258Y-11574D02*
X28300Y-11528D01*
X28300Y-11528D02*
X28350Y-11491D01*
X28350Y-11491D02*
X28408Y-11465D01*
X28408Y-11465D02*
X28469Y-11452D01*
X28469Y-11452D02*
X28531Y-11452D01*
X28531Y-11452D02*
X28592Y-11465D01*
X28592Y-11465D02*
X28650Y-11491D01*
X28650Y-11491D02*
X28700Y-11528D01*
X28700Y-11528D02*
X28742Y-11574D01*
X28742Y-11574D02*
X28774Y-11628D01*
X28774Y-11628D02*
X28793Y-11688D01*
X28793Y-11688D02*
X28800Y-11750D01*
X28800Y-12750D02*
X28793Y-12812D01*
X28793Y-12812D02*
X28774Y-12872D01*
X28774Y-12872D02*
X28742Y-12926D01*
X28742Y-12926D02*
X28700Y-12972D01*
X28700Y-12972D02*
X28650Y-13009D01*
X28650Y-13009D02*
X28592Y-13035D01*
X28592Y-13035D02*
X28531Y-13048D01*
X28531Y-13048D02*
X28469Y-13048D01*
X28469Y-13048D02*
X28408Y-13035D01*
X28408Y-13035D02*
X28350Y-13009D01*
X28350Y-13009D02*
X28300Y-12972D01*
X28300Y-12972D02*
X28258Y-12926D01*
X28258Y-12926D02*
X28226Y-12872D01*
X28226Y-12872D02*
X28207Y-12812D01*
X28207Y-12812D02*
X28200Y-12750D01*
X28200Y-12750D02*
X28207Y-12688D01*
X28207Y-12688D02*
X28226Y-12628D01*
X28226Y-12628D02*
X28258Y-12574D01*
X28258Y-12574D02*
X28300Y-12528D01*
X28300Y-12528D02*
X28350Y-12491D01*
X28350Y-12491D02*
X28408Y-12465D01*
X28408Y-12465D02*
X28469Y-12452D01*
X28469Y-12452D02*
X28531Y-12452D01*
X28531Y-12452D02*
X28592Y-12465D01*
X28592Y-12465D02*
X28650Y-12491D01*
X28650Y-12491D02*
X28700Y-12528D01*
X28700Y-12528D02*
X28742Y-12574D01*
X28742Y-12574D02*
X28774Y-12628D01*
X28774Y-12628D02*
X28793Y-12688D01*
X28793Y-12688D02*
X28800Y-12750D01*
X27800Y-11750D02*
X27793Y-11812D01*
X27793Y-11812D02*
X27774Y-11872D01*
X27774Y-11872D02*
X27742Y-11926D01*
X27742Y-11926D02*
X27700Y-11972D01*
X27700Y-11972D02*
X27650Y-12009D01*
X27650Y-12009D02*
X27592Y-12035D01*
X27592Y-12035D02*
X27531Y-12048D01*
X27531Y-12048D02*
X27469Y-12048D01*
X27469Y-12048D02*
X27408Y-12035D01*
X27408Y-12035D02*
X27350Y-12009D01*
X27350Y-12009D02*
X27300Y-11972D01*
X27300Y-11972D02*
X27258Y-11926D01*
X27258Y-11926D02*
X27226Y-11872D01*
X27226Y-11872D02*
X27207Y-11812D01*
X27207Y-11812D02*
X27200Y-11750D01*
X27200Y-11750D02*
X27207Y-11688D01*
X27207Y-11688D02*
X27226Y-11628D01*
X27226Y-11628D02*
X27258Y-11574D01*
X27258Y-11574D02*
X27300Y-11528D01*
X27300Y-11528D02*
X27350Y-11491D01*
X27350Y-11491D02*
X27408Y-11465D01*
X27408Y-11465D02*
X27469Y-11452D01*
X27469Y-11452D02*
X27531Y-11452D01*
X27531Y-11452D02*
X27592Y-11465D01*
X27592Y-11465D02*
X27650Y-11491D01*
X27650Y-11491D02*
X27700Y-11528D01*
X27700Y-11528D02*
X27742Y-11574D01*
X27742Y-11574D02*
X27774Y-11628D01*
X27774Y-11628D02*
X27793Y-11688D01*
X27793Y-11688D02*
X27800Y-11750D01*
X27800Y-12750D02*
X27793Y-12812D01*
X27793Y-12812D02*
X27774Y-12872D01*
X27774Y-12872D02*
X27742Y-12926D01*
X27742Y-12926D02*
X27700Y-12972D01*
X27700Y-12972D02*
X27650Y-13009D01*
X27650Y-13009D02*
X27592Y-13035D01*
X27592Y-13035D02*
X27531Y-13048D01*
X27531Y-13048D02*
X27469Y-13048D01*
X27469Y-13048D02*
X27408Y-13035D01*
X27408Y-13035D02*
X27350Y-13009D01*
X27350Y-13009D02*
X27300Y-12972D01*
X27300Y-12972D02*
X27258Y-12926D01*
X27258Y-12926D02*
X27226Y-12872D01*
X27226Y-12872D02*
X27207Y-12812D01*
X27207Y-12812D02*
X27200Y-12750D01*
X27200Y-12750D02*
X27207Y-12688D01*
X27207Y-12688D02*
X27226Y-12628D01*
X27226Y-12628D02*
X27258Y-12574D01*
X27258Y-12574D02*
X27300Y-12528D01*
X27300Y-12528D02*
X27350Y-12491D01*
X27350Y-12491D02*
X27408Y-12465D01*
X27408Y-12465D02*
X27469Y-12452D01*
X27469Y-12452D02*
X27531Y-12452D01*
X27531Y-12452D02*
X27592Y-12465D01*
X27592Y-12465D02*
X27650Y-12491D01*
X27650Y-12491D02*
X27700Y-12528D01*
X27700Y-12528D02*
X27742Y-12574D01*
X27742Y-12574D02*
X27774Y-12628D01*
X27774Y-12628D02*
X27793Y-12688D01*
X27793Y-12688D02*
X27800Y-12750D01*
X24275Y-10500D02*
X24268Y-10557D01*
X24268Y-10557D02*
X24251Y-10611D01*
X24251Y-10611D02*
X24222Y-10661D01*
X24222Y-10661D02*
X24184Y-10704D01*
X24184Y-10704D02*
X24137Y-10738D01*
X24137Y-10738D02*
X24084Y-10761D01*
X24084Y-10761D02*
X24028Y-10773D01*
X24028Y-10773D02*
X23972Y-10773D01*
X23972Y-10773D02*
X23916Y-10761D01*
X23916Y-10761D02*
X23863Y-10738D01*
X23863Y-10738D02*
X23816Y-10704D01*
X23816Y-10704D02*
X23778Y-10661D01*
X23778Y-10661D02*
X23749Y-10611D01*
X23749Y-10611D02*
X23732Y-10557D01*
X23732Y-10557D02*
X23725Y-10500D01*
X23725Y-10500D02*
X23732Y-10443D01*
X23732Y-10443D02*
X23749Y-10389D01*
X23749Y-10389D02*
X23778Y-10339D01*
X23778Y-10339D02*
X23816Y-10296D01*
X23816Y-10296D02*
X23863Y-10262D01*
X23863Y-10262D02*
X23916Y-10239D01*
X23916Y-10239D02*
X23972Y-10227D01*
X23972Y-10227D02*
X24028Y-10227D01*
X24028Y-10227D02*
X24084Y-10239D01*
X24084Y-10239D02*
X24137Y-10262D01*
X24137Y-10262D02*
X24184Y-10296D01*
X24184Y-10296D02*
X24222Y-10339D01*
X24222Y-10339D02*
X24251Y-10389D01*
X24251Y-10389D02*
X24268Y-10443D01*
X24268Y-10443D02*
X24275Y-10500D01*
X25275Y-10500D02*
X25268Y-10557D01*
X25268Y-10557D02*
X25251Y-10611D01*
X25251Y-10611D02*
X25222Y-10661D01*
X25222Y-10661D02*
X25184Y-10704D01*
X25184Y-10704D02*
X25137Y-10738D01*
X25137Y-10738D02*
X25084Y-10761D01*
X25084Y-10761D02*
X25028Y-10773D01*
X25028Y-10773D02*
X24972Y-10773D01*
X24972Y-10773D02*
X24916Y-10761D01*
X24916Y-10761D02*
X24863Y-10738D01*
X24863Y-10738D02*
X24816Y-10704D01*
X24816Y-10704D02*
X24778Y-10661D01*
X24778Y-10661D02*
X24749Y-10611D01*
X24749Y-10611D02*
X24732Y-10557D01*
X24732Y-10557D02*
X24725Y-10500D01*
X24725Y-10500D02*
X24732Y-10443D01*
X24732Y-10443D02*
X24749Y-10389D01*
X24749Y-10389D02*
X24778Y-10339D01*
X24778Y-10339D02*
X24816Y-10296D01*
X24816Y-10296D02*
X24863Y-10262D01*
X24863Y-10262D02*
X24916Y-10239D01*
X24916Y-10239D02*
X24972Y-10227D01*
X24972Y-10227D02*
X25028Y-10227D01*
X25028Y-10227D02*
X25084Y-10239D01*
X25084Y-10239D02*
X25137Y-10262D01*
X25137Y-10262D02*
X25184Y-10296D01*
X25184Y-10296D02*
X25222Y-10339D01*
X25222Y-10339D02*
X25251Y-10389D01*
X25251Y-10389D02*
X25268Y-10443D01*
X25268Y-10443D02*
X25275Y-10500D01*
X22275Y-10500D02*
X22268Y-10557D01*
X22268Y-10557D02*
X22251Y-10611D01*
X22251Y-10611D02*
X22222Y-10661D01*
X22222Y-10661D02*
X22184Y-10704D01*
X22184Y-10704D02*
X22137Y-10738D01*
X22137Y-10738D02*
X22084Y-10761D01*
X22084Y-10761D02*
X22028Y-10773D01*
X22028Y-10773D02*
X21972Y-10773D01*
X21972Y-10773D02*
X21916Y-10761D01*
X21916Y-10761D02*
X21863Y-10738D01*
X21863Y-10738D02*
X21816Y-10704D01*
X21816Y-10704D02*
X21778Y-10661D01*
X21778Y-10661D02*
X21749Y-10611D01*
X21749Y-10611D02*
X21732Y-10557D01*
X21732Y-10557D02*
X21725Y-10500D01*
X21725Y-10500D02*
X21732Y-10443D01*
X21732Y-10443D02*
X21749Y-10389D01*
X21749Y-10389D02*
X21778Y-10339D01*
X21778Y-10339D02*
X21816Y-10296D01*
X21816Y-10296D02*
X21863Y-10262D01*
X21863Y-10262D02*
X21916Y-10239D01*
X21916Y-10239D02*
X21972Y-10227D01*
X21972Y-10227D02*
X22028Y-10227D01*
X22028Y-10227D02*
X22084Y-10239D01*
X22084Y-10239D02*
X22137Y-10262D01*
X22137Y-10262D02*
X22184Y-10296D01*
X22184Y-10296D02*
X22222Y-10339D01*
X22222Y-10339D02*
X22251Y-10389D01*
X22251Y-10389D02*
X22268Y-10443D01*
X22268Y-10443D02*
X22275Y-10500D01*
X23275Y-10500D02*
X23268Y-10557D01*
X23268Y-10557D02*
X23251Y-10611D01*
X23251Y-10611D02*
X23222Y-10661D01*
X23222Y-10661D02*
X23184Y-10704D01*
X23184Y-10704D02*
X23137Y-10738D01*
X23137Y-10738D02*
X23084Y-10761D01*
X23084Y-10761D02*
X23028Y-10773D01*
X23028Y-10773D02*
X22972Y-10773D01*
X22972Y-10773D02*
X22916Y-10761D01*
X22916Y-10761D02*
X22863Y-10738D01*
X22863Y-10738D02*
X22816Y-10704D01*
X22816Y-10704D02*
X22778Y-10661D01*
X22778Y-10661D02*
X22749Y-10611D01*
X22749Y-10611D02*
X22732Y-10557D01*
X22732Y-10557D02*
X22725Y-10500D01*
X22725Y-10500D02*
X22732Y-10443D01*
X22732Y-10443D02*
X22749Y-10389D01*
X22749Y-10389D02*
X22778Y-10339D01*
X22778Y-10339D02*
X22816Y-10296D01*
X22816Y-10296D02*
X22863Y-10262D01*
X22863Y-10262D02*
X22916Y-10239D01*
X22916Y-10239D02*
X22972Y-10227D01*
X22972Y-10227D02*
X23028Y-10227D01*
X23028Y-10227D02*
X23084Y-10239D01*
X23084Y-10239D02*
X23137Y-10262D01*
X23137Y-10262D02*
X23184Y-10296D01*
X23184Y-10296D02*
X23222Y-10339D01*
X23222Y-10339D02*
X23251Y-10389D01*
X23251Y-10389D02*
X23268Y-10443D01*
X23268Y-10443D02*
X23275Y-10500D01*
X22275Y-12000D02*
X22268Y-12057D01*
X22268Y-12057D02*
X22251Y-12111D01*
X22251Y-12111D02*
X22222Y-12161D01*
X22222Y-12161D02*
X22184Y-12204D01*
X22184Y-12204D02*
X22137Y-12238D01*
X22137Y-12238D02*
X22084Y-12261D01*
X22084Y-12261D02*
X22028Y-12273D01*
X22028Y-12273D02*
X21972Y-12273D01*
X21972Y-12273D02*
X21916Y-12261D01*
X21916Y-12261D02*
X21863Y-12238D01*
X21863Y-12238D02*
X21816Y-12204D01*
X21816Y-12204D02*
X21778Y-12161D01*
X21778Y-12161D02*
X21749Y-12111D01*
X21749Y-12111D02*
X21732Y-12057D01*
X21732Y-12057D02*
X21725Y-12000D01*
X21725Y-12000D02*
X21732Y-11943D01*
X21732Y-11943D02*
X21749Y-11889D01*
X21749Y-11889D02*
X21778Y-11839D01*
X21778Y-11839D02*
X21816Y-11796D01*
X21816Y-11796D02*
X21863Y-11762D01*
X21863Y-11762D02*
X21916Y-11739D01*
X21916Y-11739D02*
X21972Y-11727D01*
X21972Y-11727D02*
X22028Y-11727D01*
X22028Y-11727D02*
X22084Y-11739D01*
X22084Y-11739D02*
X22137Y-11762D01*
X22137Y-11762D02*
X22184Y-11796D01*
X22184Y-11796D02*
X22222Y-11839D01*
X22222Y-11839D02*
X22251Y-11889D01*
X22251Y-11889D02*
X22268Y-11943D01*
X22268Y-11943D02*
X22275Y-12000D01*
X22275Y-13000D02*
X22268Y-13057D01*
X22268Y-13057D02*
X22251Y-13111D01*
X22251Y-13111D02*
X22222Y-13161D01*
X22222Y-13161D02*
X22184Y-13204D01*
X22184Y-13204D02*
X22137Y-13238D01*
X22137Y-13238D02*
X22084Y-13261D01*
X22084Y-13261D02*
X22028Y-13273D01*
X22028Y-13273D02*
X21972Y-13273D01*
X21972Y-13273D02*
X21916Y-13261D01*
X21916Y-13261D02*
X21863Y-13238D01*
X21863Y-13238D02*
X21816Y-13204D01*
X21816Y-13204D02*
X21778Y-13161D01*
X21778Y-13161D02*
X21749Y-13111D01*
X21749Y-13111D02*
X21732Y-13057D01*
X21732Y-13057D02*
X21725Y-13000D01*
X21725Y-13000D02*
X21732Y-12943D01*
X21732Y-12943D02*
X21749Y-12889D01*
X21749Y-12889D02*
X21778Y-12839D01*
X21778Y-12839D02*
X21816Y-12796D01*
X21816Y-12796D02*
X21863Y-12762D01*
X21863Y-12762D02*
X21916Y-12739D01*
X21916Y-12739D02*
X21972Y-12727D01*
X21972Y-12727D02*
X22028Y-12727D01*
X22028Y-12727D02*
X22084Y-12739D01*
X22084Y-12739D02*
X22137Y-12762D01*
X22137Y-12762D02*
X22184Y-12796D01*
X22184Y-12796D02*
X22222Y-12839D01*
X22222Y-12839D02*
X22251Y-12889D01*
X22251Y-12889D02*
X22268Y-12943D01*
X22268Y-12943D02*
X22275Y-13000D01*
X20775Y-12000D02*
X20768Y-12057D01*
X20768Y-12057D02*
X20751Y-12111D01*
X20751Y-12111D02*
X20722Y-12161D01*
X20722Y-12161D02*
X20684Y-12204D01*
X20684Y-12204D02*
X20637Y-12238D01*
X20637Y-12238D02*
X20584Y-12261D01*
X20584Y-12261D02*
X20528Y-12273D01*
X20528Y-12273D02*
X20472Y-12273D01*
X20472Y-12273D02*
X20416Y-12261D01*
X20416Y-12261D02*
X20363Y-12238D01*
X20363Y-12238D02*
X20316Y-12204D01*
X20316Y-12204D02*
X20278Y-12161D01*
X20278Y-12161D02*
X20249Y-12111D01*
X20249Y-12111D02*
X20232Y-12057D01*
X20232Y-12057D02*
X20225Y-12000D01*
X20225Y-12000D02*
X20232Y-11943D01*
X20232Y-11943D02*
X20249Y-11889D01*
X20249Y-11889D02*
X20278Y-11839D01*
X20278Y-11839D02*
X20316Y-11796D01*
X20316Y-11796D02*
X20363Y-11762D01*
X20363Y-11762D02*
X20416Y-11739D01*
X20416Y-11739D02*
X20472Y-11727D01*
X20472Y-11727D02*
X20528Y-11727D01*
X20528Y-11727D02*
X20584Y-11739D01*
X20584Y-11739D02*
X20637Y-11762D01*
X20637Y-11762D02*
X20684Y-11796D01*
X20684Y-11796D02*
X20722Y-11839D01*
X20722Y-11839D02*
X20751Y-11889D01*
X20751Y-11889D02*
X20768Y-11943D01*
X20768Y-11943D02*
X20775Y-12000D01*
X20775Y-13000D02*
X20768Y-13057D01*
X20768Y-13057D02*
X20751Y-13111D01*
X20751Y-13111D02*
X20722Y-13161D01*
X20722Y-13161D02*
X20684Y-13204D01*
X20684Y-13204D02*
X20637Y-13238D01*
X20637Y-13238D02*
X20584Y-13261D01*
X20584Y-13261D02*
X20528Y-13273D01*
X20528Y-13273D02*
X20472Y-13273D01*
X20472Y-13273D02*
X20416Y-13261D01*
X20416Y-13261D02*
X20363Y-13238D01*
X20363Y-13238D02*
X20316Y-13204D01*
X20316Y-13204D02*
X20278Y-13161D01*
X20278Y-13161D02*
X20249Y-13111D01*
X20249Y-13111D02*
X20232Y-13057D01*
X20232Y-13057D02*
X20225Y-13000D01*
X20225Y-13000D02*
X20232Y-12943D01*
X20232Y-12943D02*
X20249Y-12889D01*
X20249Y-12889D02*
X20278Y-12839D01*
X20278Y-12839D02*
X20316Y-12796D01*
X20316Y-12796D02*
X20363Y-12762D01*
X20363Y-12762D02*
X20416Y-12739D01*
X20416Y-12739D02*
X20472Y-12727D01*
X20472Y-12727D02*
X20528Y-12727D01*
X20528Y-12727D02*
X20584Y-12739D01*
X20584Y-12739D02*
X20637Y-12762D01*
X20637Y-12762D02*
X20684Y-12796D01*
X20684Y-12796D02*
X20722Y-12839D01*
X20722Y-12839D02*
X20751Y-12889D01*
X20751Y-12889D02*
X20768Y-12943D01*
X20768Y-12943D02*
X20775Y-13000D01*
X19275Y-12000D02*
X19268Y-12057D01*
X19268Y-12057D02*
X19251Y-12111D01*
X19251Y-12111D02*
X19222Y-12161D01*
X19222Y-12161D02*
X19184Y-12204D01*
X19184Y-12204D02*
X19137Y-12238D01*
X19137Y-12238D02*
X19084Y-12261D01*
X19084Y-12261D02*
X19028Y-12273D01*
X19028Y-12273D02*
X18972Y-12273D01*
X18972Y-12273D02*
X18916Y-12261D01*
X18916Y-12261D02*
X18863Y-12238D01*
X18863Y-12238D02*
X18816Y-12204D01*
X18816Y-12204D02*
X18778Y-12161D01*
X18778Y-12161D02*
X18749Y-12111D01*
X18749Y-12111D02*
X18732Y-12057D01*
X18732Y-12057D02*
X18725Y-12000D01*
X18725Y-12000D02*
X18732Y-11943D01*
X18732Y-11943D02*
X18749Y-11889D01*
X18749Y-11889D02*
X18778Y-11839D01*
X18778Y-11839D02*
X18816Y-11796D01*
X18816Y-11796D02*
X18863Y-11762D01*
X18863Y-11762D02*
X18916Y-11739D01*
X18916Y-11739D02*
X18972Y-11727D01*
X18972Y-11727D02*
X19028Y-11727D01*
X19028Y-11727D02*
X19084Y-11739D01*
X19084Y-11739D02*
X19137Y-11762D01*
X19137Y-11762D02*
X19184Y-11796D01*
X19184Y-11796D02*
X19222Y-11839D01*
X19222Y-11839D02*
X19251Y-11889D01*
X19251Y-11889D02*
X19268Y-11943D01*
X19268Y-11943D02*
X19275Y-12000D01*
X19275Y-13000D02*
X19268Y-13057D01*
X19268Y-13057D02*
X19251Y-13111D01*
X19251Y-13111D02*
X19222Y-13161D01*
X19222Y-13161D02*
X19184Y-13204D01*
X19184Y-13204D02*
X19137Y-13238D01*
X19137Y-13238D02*
X19084Y-13261D01*
X19084Y-13261D02*
X19028Y-13273D01*
X19028Y-13273D02*
X18972Y-13273D01*
X18972Y-13273D02*
X18916Y-13261D01*
X18916Y-13261D02*
X18863Y-13238D01*
X18863Y-13238D02*
X18816Y-13204D01*
X18816Y-13204D02*
X18778Y-13161D01*
X18778Y-13161D02*
X18749Y-13111D01*
X18749Y-13111D02*
X18732Y-13057D01*
X18732Y-13057D02*
X18725Y-13000D01*
X18725Y-13000D02*
X18732Y-12943D01*
X18732Y-12943D02*
X18749Y-12889D01*
X18749Y-12889D02*
X18778Y-12839D01*
X18778Y-12839D02*
X18816Y-12796D01*
X18816Y-12796D02*
X18863Y-12762D01*
X18863Y-12762D02*
X18916Y-12739D01*
X18916Y-12739D02*
X18972Y-12727D01*
X18972Y-12727D02*
X19028Y-12727D01*
X19028Y-12727D02*
X19084Y-12739D01*
X19084Y-12739D02*
X19137Y-12762D01*
X19137Y-12762D02*
X19184Y-12796D01*
X19184Y-12796D02*
X19222Y-12839D01*
X19222Y-12839D02*
X19251Y-12889D01*
X19251Y-12889D02*
X19268Y-12943D01*
X19268Y-12943D02*
X19275Y-13000D01*
X20775Y-10500D02*
X20768Y-10557D01*
X20768Y-10557D02*
X20751Y-10611D01*
X20751Y-10611D02*
X20722Y-10661D01*
X20722Y-10661D02*
X20684Y-10704D01*
X20684Y-10704D02*
X20637Y-10738D01*
X20637Y-10738D02*
X20584Y-10761D01*
X20584Y-10761D02*
X20528Y-10773D01*
X20528Y-10773D02*
X20472Y-10773D01*
X20472Y-10773D02*
X20416Y-10761D01*
X20416Y-10761D02*
X20363Y-10738D01*
X20363Y-10738D02*
X20316Y-10704D01*
X20316Y-10704D02*
X20278Y-10661D01*
X20278Y-10661D02*
X20249Y-10611D01*
X20249Y-10611D02*
X20232Y-10557D01*
X20232Y-10557D02*
X20225Y-10500D01*
X20225Y-10500D02*
X20232Y-10443D01*
X20232Y-10443D02*
X20249Y-10389D01*
X20249Y-10389D02*
X20278Y-10339D01*
X20278Y-10339D02*
X20316Y-10296D01*
X20316Y-10296D02*
X20363Y-10262D01*
X20363Y-10262D02*
X20416Y-10239D01*
X20416Y-10239D02*
X20472Y-10227D01*
X20472Y-10227D02*
X20528Y-10227D01*
X20528Y-10227D02*
X20584Y-10239D01*
X20584Y-10239D02*
X20637Y-10262D01*
X20637Y-10262D02*
X20684Y-10296D01*
X20684Y-10296D02*
X20722Y-10339D01*
X20722Y-10339D02*
X20751Y-10389D01*
X20751Y-10389D02*
X20768Y-10443D01*
X20768Y-10443D02*
X20775Y-10500D01*
X20775Y-09500D02*
X20768Y-09557D01*
X20768Y-09557D02*
X20751Y-09611D01*
X20751Y-09611D02*
X20722Y-09661D01*
X20722Y-09661D02*
X20684Y-09704D01*
X20684Y-09704D02*
X20637Y-09738D01*
X20637Y-09738D02*
X20584Y-09761D01*
X20584Y-09761D02*
X20528Y-09773D01*
X20528Y-09773D02*
X20472Y-09773D01*
X20472Y-09773D02*
X20416Y-09761D01*
X20416Y-09761D02*
X20363Y-09738D01*
X20363Y-09738D02*
X20316Y-09704D01*
X20316Y-09704D02*
X20278Y-09661D01*
X20278Y-09661D02*
X20249Y-09611D01*
X20249Y-09611D02*
X20232Y-09557D01*
X20232Y-09557D02*
X20225Y-09500D01*
X20225Y-09500D02*
X20232Y-09443D01*
X20232Y-09443D02*
X20249Y-09389D01*
X20249Y-09389D02*
X20278Y-09339D01*
X20278Y-09339D02*
X20316Y-09296D01*
X20316Y-09296D02*
X20363Y-09262D01*
X20363Y-09262D02*
X20416Y-09239D01*
X20416Y-09239D02*
X20472Y-09227D01*
X20472Y-09227D02*
X20528Y-09227D01*
X20528Y-09227D02*
X20584Y-09239D01*
X20584Y-09239D02*
X20637Y-09262D01*
X20637Y-09262D02*
X20684Y-09296D01*
X20684Y-09296D02*
X20722Y-09339D01*
X20722Y-09339D02*
X20751Y-09389D01*
X20751Y-09389D02*
X20768Y-09443D01*
X20768Y-09443D02*
X20775Y-09500D01*
X19275Y-10500D02*
X19268Y-10557D01*
X19268Y-10557D02*
X19251Y-10611D01*
X19251Y-10611D02*
X19222Y-10661D01*
X19222Y-10661D02*
X19184Y-10704D01*
X19184Y-10704D02*
X19137Y-10738D01*
X19137Y-10738D02*
X19084Y-10761D01*
X19084Y-10761D02*
X19028Y-10773D01*
X19028Y-10773D02*
X18972Y-10773D01*
X18972Y-10773D02*
X18916Y-10761D01*
X18916Y-10761D02*
X18863Y-10738D01*
X18863Y-10738D02*
X18816Y-10704D01*
X18816Y-10704D02*
X18778Y-10661D01*
X18778Y-10661D02*
X18749Y-10611D01*
X18749Y-10611D02*
X18732Y-10557D01*
X18732Y-10557D02*
X18725Y-10500D01*
X18725Y-10500D02*
X18732Y-10443D01*
X18732Y-10443D02*
X18749Y-10389D01*
X18749Y-10389D02*
X18778Y-10339D01*
X18778Y-10339D02*
X18816Y-10296D01*
X18816Y-10296D02*
X18863Y-10262D01*
X18863Y-10262D02*
X18916Y-10239D01*
X18916Y-10239D02*
X18972Y-10227D01*
X18972Y-10227D02*
X19028Y-10227D01*
X19028Y-10227D02*
X19084Y-10239D01*
X19084Y-10239D02*
X19137Y-10262D01*
X19137Y-10262D02*
X19184Y-10296D01*
X19184Y-10296D02*
X19222Y-10339D01*
X19222Y-10339D02*
X19251Y-10389D01*
X19251Y-10389D02*
X19268Y-10443D01*
X19268Y-10443D02*
X19275Y-10500D01*
X19275Y-09500D02*
X19268Y-09557D01*
X19268Y-09557D02*
X19251Y-09611D01*
X19251Y-09611D02*
X19222Y-09661D01*
X19222Y-09661D02*
X19184Y-09704D01*
X19184Y-09704D02*
X19137Y-09738D01*
X19137Y-09738D02*
X19084Y-09761D01*
X19084Y-09761D02*
X19028Y-09773D01*
X19028Y-09773D02*
X18972Y-09773D01*
X18972Y-09773D02*
X18916Y-09761D01*
X18916Y-09761D02*
X18863Y-09738D01*
X18863Y-09738D02*
X18816Y-09704D01*
X18816Y-09704D02*
X18778Y-09661D01*
X18778Y-09661D02*
X18749Y-09611D01*
X18749Y-09611D02*
X18732Y-09557D01*
X18732Y-09557D02*
X18725Y-09500D01*
X18725Y-09500D02*
X18732Y-09443D01*
X18732Y-09443D02*
X18749Y-09389D01*
X18749Y-09389D02*
X18778Y-09339D01*
X18778Y-09339D02*
X18816Y-09296D01*
X18816Y-09296D02*
X18863Y-09262D01*
X18863Y-09262D02*
X18916Y-09239D01*
X18916Y-09239D02*
X18972Y-09227D01*
X18972Y-09227D02*
X19028Y-09227D01*
X19028Y-09227D02*
X19084Y-09239D01*
X19084Y-09239D02*
X19137Y-09262D01*
X19137Y-09262D02*
X19184Y-09296D01*
X19184Y-09296D02*
X19222Y-09339D01*
X19222Y-09339D02*
X19251Y-09389D01*
X19251Y-09389D02*
X19268Y-09443D01*
X19268Y-09443D02*
X19275Y-09500D01*
X14775Y-16500D02*
X14768Y-16557D01*
X14768Y-16557D02*
X14751Y-16611D01*
X14751Y-16611D02*
X14722Y-16661D01*
X14722Y-16661D02*
X14684Y-16704D01*
X14684Y-16704D02*
X14637Y-16738D01*
X14637Y-16738D02*
X14584Y-16761D01*
X14584Y-16761D02*
X14528Y-16773D01*
X14528Y-16773D02*
X14472Y-16773D01*
X14472Y-16773D02*
X14416Y-16761D01*
X14416Y-16761D02*
X14363Y-16738D01*
X14363Y-16738D02*
X14316Y-16704D01*
X14316Y-16704D02*
X14278Y-16661D01*
X14278Y-16661D02*
X14249Y-16611D01*
X14249Y-16611D02*
X14232Y-16557D01*
X14232Y-16557D02*
X14225Y-16500D01*
X14225Y-16500D02*
X14232Y-16443D01*
X14232Y-16443D02*
X14249Y-16389D01*
X14249Y-16389D02*
X14278Y-16339D01*
X14278Y-16339D02*
X14316Y-16296D01*
X14316Y-16296D02*
X14363Y-16262D01*
X14363Y-16262D02*
X14416Y-16239D01*
X14416Y-16239D02*
X14472Y-16227D01*
X14472Y-16227D02*
X14528Y-16227D01*
X14528Y-16227D02*
X14584Y-16239D01*
X14584Y-16239D02*
X14637Y-16262D01*
X14637Y-16262D02*
X14684Y-16296D01*
X14684Y-16296D02*
X14722Y-16339D01*
X14722Y-16339D02*
X14751Y-16389D01*
X14751Y-16389D02*
X14768Y-16443D01*
X14768Y-16443D02*
X14775Y-16500D01*
X14775Y-15500D02*
X14768Y-15557D01*
X14768Y-15557D02*
X14751Y-15611D01*
X14751Y-15611D02*
X14722Y-15661D01*
X14722Y-15661D02*
X14684Y-15704D01*
X14684Y-15704D02*
X14637Y-15738D01*
X14637Y-15738D02*
X14584Y-15761D01*
X14584Y-15761D02*
X14528Y-15773D01*
X14528Y-15773D02*
X14472Y-15773D01*
X14472Y-15773D02*
X14416Y-15761D01*
X14416Y-15761D02*
X14363Y-15738D01*
X14363Y-15738D02*
X14316Y-15704D01*
X14316Y-15704D02*
X14278Y-15661D01*
X14278Y-15661D02*
X14249Y-15611D01*
X14249Y-15611D02*
X14232Y-15557D01*
X14232Y-15557D02*
X14225Y-15500D01*
X14225Y-15500D02*
X14232Y-15443D01*
X14232Y-15443D02*
X14249Y-15389D01*
X14249Y-15389D02*
X14278Y-15339D01*
X14278Y-15339D02*
X14316Y-15296D01*
X14316Y-15296D02*
X14363Y-15262D01*
X14363Y-15262D02*
X14416Y-15239D01*
X14416Y-15239D02*
X14472Y-15227D01*
X14472Y-15227D02*
X14528Y-15227D01*
X14528Y-15227D02*
X14584Y-15239D01*
X14584Y-15239D02*
X14637Y-15262D01*
X14637Y-15262D02*
X14684Y-15296D01*
X14684Y-15296D02*
X14722Y-15339D01*
X14722Y-15339D02*
X14751Y-15389D01*
X14751Y-15389D02*
X14768Y-15443D01*
X14768Y-15443D02*
X14775Y-15500D01*
X14275Y-22000D02*
X14268Y-22057D01*
X14268Y-22057D02*
X14251Y-22111D01*
X14251Y-22111D02*
X14222Y-22161D01*
X14222Y-22161D02*
X14184Y-22204D01*
X14184Y-22204D02*
X14137Y-22238D01*
X14137Y-22238D02*
X14084Y-22261D01*
X14084Y-22261D02*
X14028Y-22273D01*
X14028Y-22273D02*
X13972Y-22273D01*
X13972Y-22273D02*
X13916Y-22261D01*
X13916Y-22261D02*
X13863Y-22238D01*
X13863Y-22238D02*
X13816Y-22204D01*
X13816Y-22204D02*
X13778Y-22161D01*
X13778Y-22161D02*
X13749Y-22111D01*
X13749Y-22111D02*
X13732Y-22057D01*
X13732Y-22057D02*
X13725Y-22000D01*
X13725Y-22000D02*
X13732Y-21943D01*
X13732Y-21943D02*
X13749Y-21889D01*
X13749Y-21889D02*
X13778Y-21839D01*
X13778Y-21839D02*
X13816Y-21796D01*
X13816Y-21796D02*
X13863Y-21762D01*
X13863Y-21762D02*
X13916Y-21739D01*
X13916Y-21739D02*
X13972Y-21727D01*
X13972Y-21727D02*
X14028Y-21727D01*
X14028Y-21727D02*
X14084Y-21739D01*
X14084Y-21739D02*
X14137Y-21762D01*
X14137Y-21762D02*
X14184Y-21796D01*
X14184Y-21796D02*
X14222Y-21839D01*
X14222Y-21839D02*
X14251Y-21889D01*
X14251Y-21889D02*
X14268Y-21943D01*
X14268Y-21943D02*
X14275Y-22000D01*
X14275Y-21000D02*
X14268Y-21057D01*
X14268Y-21057D02*
X14251Y-21111D01*
X14251Y-21111D02*
X14222Y-21161D01*
X14222Y-21161D02*
X14184Y-21204D01*
X14184Y-21204D02*
X14137Y-21238D01*
X14137Y-21238D02*
X14084Y-21261D01*
X14084Y-21261D02*
X14028Y-21273D01*
X14028Y-21273D02*
X13972Y-21273D01*
X13972Y-21273D02*
X13916Y-21261D01*
X13916Y-21261D02*
X13863Y-21238D01*
X13863Y-21238D02*
X13816Y-21204D01*
X13816Y-21204D02*
X13778Y-21161D01*
X13778Y-21161D02*
X13749Y-21111D01*
X13749Y-21111D02*
X13732Y-21057D01*
X13732Y-21057D02*
X13725Y-21000D01*
X13725Y-21000D02*
X13732Y-20943D01*
X13732Y-20943D02*
X13749Y-20889D01*
X13749Y-20889D02*
X13778Y-20839D01*
X13778Y-20839D02*
X13816Y-20796D01*
X13816Y-20796D02*
X13863Y-20762D01*
X13863Y-20762D02*
X13916Y-20739D01*
X13916Y-20739D02*
X13972Y-20727D01*
X13972Y-20727D02*
X14028Y-20727D01*
X14028Y-20727D02*
X14084Y-20739D01*
X14084Y-20739D02*
X14137Y-20762D01*
X14137Y-20762D02*
X14184Y-20796D01*
X14184Y-20796D02*
X14222Y-20839D01*
X14222Y-20839D02*
X14251Y-20889D01*
X14251Y-20889D02*
X14268Y-20943D01*
X14268Y-20943D02*
X14275Y-21000D01*
X23775Y-12000D02*
X23768Y-12057D01*
X23768Y-12057D02*
X23751Y-12111D01*
X23751Y-12111D02*
X23722Y-12161D01*
X23722Y-12161D02*
X23684Y-12204D01*
X23684Y-12204D02*
X23637Y-12238D01*
X23637Y-12238D02*
X23584Y-12261D01*
X23584Y-12261D02*
X23528Y-12273D01*
X23528Y-12273D02*
X23472Y-12273D01*
X23472Y-12273D02*
X23416Y-12261D01*
X23416Y-12261D02*
X23363Y-12238D01*
X23363Y-12238D02*
X23316Y-12204D01*
X23316Y-12204D02*
X23278Y-12161D01*
X23278Y-12161D02*
X23249Y-12111D01*
X23249Y-12111D02*
X23232Y-12057D01*
X23232Y-12057D02*
X23225Y-12000D01*
X23225Y-12000D02*
X23232Y-11943D01*
X23232Y-11943D02*
X23249Y-11889D01*
X23249Y-11889D02*
X23278Y-11839D01*
X23278Y-11839D02*
X23316Y-11796D01*
X23316Y-11796D02*
X23363Y-11762D01*
X23363Y-11762D02*
X23416Y-11739D01*
X23416Y-11739D02*
X23472Y-11727D01*
X23472Y-11727D02*
X23528Y-11727D01*
X23528Y-11727D02*
X23584Y-11739D01*
X23584Y-11739D02*
X23637Y-11762D01*
X23637Y-11762D02*
X23684Y-11796D01*
X23684Y-11796D02*
X23722Y-11839D01*
X23722Y-11839D02*
X23751Y-11889D01*
X23751Y-11889D02*
X23768Y-11943D01*
X23768Y-11943D02*
X23775Y-12000D01*
X23775Y-13000D02*
X23768Y-13057D01*
X23768Y-13057D02*
X23751Y-13111D01*
X23751Y-13111D02*
X23722Y-13161D01*
X23722Y-13161D02*
X23684Y-13204D01*
X23684Y-13204D02*
X23637Y-13238D01*
X23637Y-13238D02*
X23584Y-13261D01*
X23584Y-13261D02*
X23528Y-13273D01*
X23528Y-13273D02*
X23472Y-13273D01*
X23472Y-13273D02*
X23416Y-13261D01*
X23416Y-13261D02*
X23363Y-13238D01*
X23363Y-13238D02*
X23316Y-13204D01*
X23316Y-13204D02*
X23278Y-13161D01*
X23278Y-13161D02*
X23249Y-13111D01*
X23249Y-13111D02*
X23232Y-13057D01*
X23232Y-13057D02*
X23225Y-13000D01*
X23225Y-13000D02*
X23232Y-12943D01*
X23232Y-12943D02*
X23249Y-12889D01*
X23249Y-12889D02*
X23278Y-12839D01*
X23278Y-12839D02*
X23316Y-12796D01*
X23316Y-12796D02*
X23363Y-12762D01*
X23363Y-12762D02*
X23416Y-12739D01*
X23416Y-12739D02*
X23472Y-12727D01*
X23472Y-12727D02*
X23528Y-12727D01*
X23528Y-12727D02*
X23584Y-12739D01*
X23584Y-12739D02*
X23637Y-12762D01*
X23637Y-12762D02*
X23684Y-12796D01*
X23684Y-12796D02*
X23722Y-12839D01*
X23722Y-12839D02*
X23751Y-12889D01*
X23751Y-12889D02*
X23768Y-12943D01*
X23768Y-12943D02*
X23775Y-13000D01*
X32700Y-15200D02*
X33300Y-15200D01*
X33300Y-15200D02*
X33300Y-15800D01*
X33300Y-15800D02*
X32700Y-15800D01*
X32700Y-15800D02*
X32700Y-15200D01*
X33300Y-16500D02*
X33293Y-16562D01*
X33293Y-16562D02*
X33274Y-16622D01*
X33274Y-16622D02*
X33242Y-16676D01*
X33242Y-16676D02*
X33200Y-16722D01*
X33200Y-16722D02*
X33150Y-16759D01*
X33150Y-16759D02*
X33092Y-16785D01*
X33092Y-16785D02*
X33031Y-16798D01*
X33031Y-16798D02*
X32969Y-16798D01*
X32969Y-16798D02*
X32908Y-16785D01*
X32908Y-16785D02*
X32850Y-16759D01*
X32850Y-16759D02*
X32800Y-16722D01*
X32800Y-16722D02*
X32758Y-16676D01*
X32758Y-16676D02*
X32726Y-16622D01*
X32726Y-16622D02*
X32707Y-16562D01*
X32707Y-16562D02*
X32700Y-16500D01*
X32700Y-16500D02*
X32707Y-16438D01*
X32707Y-16438D02*
X32726Y-16378D01*
X32726Y-16378D02*
X32758Y-16324D01*
X32758Y-16324D02*
X32800Y-16278D01*
X32800Y-16278D02*
X32850Y-16241D01*
X32850Y-16241D02*
X32908Y-16215D01*
X32908Y-16215D02*
X32969Y-16202D01*
X32969Y-16202D02*
X33031Y-16202D01*
X33031Y-16202D02*
X33092Y-16215D01*
X33092Y-16215D02*
X33150Y-16241D01*
X33150Y-16241D02*
X33200Y-16278D01*
X33200Y-16278D02*
X33242Y-16324D01*
X33242Y-16324D02*
X33274Y-16378D01*
X33274Y-16378D02*
X33293Y-16438D01*
X33293Y-16438D02*
X33300Y-16500D01*
X11937Y-09971D02*
X11926Y-10074D01*
X11926Y-10074D02*
X11893Y-10174D01*
X11893Y-10174D02*
X11841Y-10264D01*
X11841Y-10264D02*
X11771Y-10342D01*
X11771Y-10342D02*
X11687Y-10404D01*
X11687Y-10404D02*
X11591Y-10446D01*
X11591Y-10446D02*
X11489Y-10468D01*
X11489Y-10468D02*
X11385Y-10468D01*
X11385Y-10468D02*
X11283Y-10446D01*
X11283Y-10446D02*
X11187Y-10404D01*
X11187Y-10404D02*
X11103Y-10342D01*
X11103Y-10342D02*
X11033Y-10264D01*
X11033Y-10264D02*
X10981Y-10174D01*
X10981Y-10174D02*
X10948Y-10074D01*
X10948Y-10074D02*
X10937Y-09971D01*
X10937Y-09971D02*
X10948Y-09868D01*
X10948Y-09868D02*
X10981Y-09768D01*
X10981Y-09768D02*
X11033Y-09678D01*
X11033Y-09678D02*
X11103Y-09600D01*
X11103Y-09600D02*
X11187Y-09538D01*
X11187Y-09538D02*
X11283Y-09496D01*
X11283Y-09496D02*
X11385Y-09474D01*
X11385Y-09474D02*
X11489Y-09474D01*
X11489Y-09474D02*
X11591Y-09496D01*
X11591Y-09496D02*
X11687Y-09538D01*
X11687Y-09538D02*
X11771Y-09600D01*
X11771Y-09600D02*
X11841Y-09678D01*
X11841Y-09678D02*
X11893Y-09768D01*
X11893Y-09768D02*
X11926Y-09868D01*
X11926Y-09868D02*
X11937Y-09971D01*
X11937Y-12924D02*
X11926Y-13027D01*
X11926Y-13027D02*
X11893Y-13127D01*
X11893Y-13127D02*
X11841Y-13217D01*
X11841Y-13217D02*
X11771Y-13295D01*
X11771Y-13295D02*
X11687Y-13357D01*
X11687Y-13357D02*
X11591Y-13399D01*
X11591Y-13399D02*
X11489Y-13421D01*
X11489Y-13421D02*
X11385Y-13421D01*
X11385Y-13421D02*
X11283Y-13399D01*
X11283Y-13399D02*
X11187Y-13357D01*
X11187Y-13357D02*
X11103Y-13295D01*
X11103Y-13295D02*
X11033Y-13217D01*
X11033Y-13217D02*
X10981Y-13127D01*
X10981Y-13127D02*
X10948Y-13027D01*
X10948Y-13027D02*
X10937Y-12924D01*
X10937Y-12924D02*
X10948Y-12821D01*
X10948Y-12821D02*
X10981Y-12721D01*
X10981Y-12721D02*
X11033Y-12631D01*
X11033Y-12631D02*
X11103Y-12553D01*
X11103Y-12553D02*
X11187Y-12491D01*
X11187Y-12491D02*
X11283Y-12449D01*
X11283Y-12449D02*
X11385Y-12427D01*
X11385Y-12427D02*
X11489Y-12427D01*
X11489Y-12427D02*
X11591Y-12449D01*
X11591Y-12449D02*
X11687Y-12491D01*
X11687Y-12491D02*
X11771Y-12553D01*
X11771Y-12553D02*
X11841Y-12631D01*
X11841Y-12631D02*
X11893Y-12721D01*
X11893Y-12721D02*
X11926Y-12821D01*
X11926Y-12821D02*
X11937Y-12924D01*
X11937Y-15877D02*
X11926Y-15980D01*
X11926Y-15980D02*
X11893Y-16080D01*
X11893Y-16080D02*
X11841Y-16170D01*
X11841Y-16170D02*
X11771Y-16248D01*
X11771Y-16248D02*
X11687Y-16310D01*
X11687Y-16310D02*
X11591Y-16352D01*
X11591Y-16352D02*
X11489Y-16374D01*
X11489Y-16374D02*
X11385Y-16374D01*
X11385Y-16374D02*
X11283Y-16352D01*
X11283Y-16352D02*
X11187Y-16310D01*
X11187Y-16310D02*
X11103Y-16248D01*
X11103Y-16248D02*
X11033Y-16170D01*
X11033Y-16170D02*
X10981Y-16080D01*
X10981Y-16080D02*
X10948Y-15980D01*
X10948Y-15980D02*
X10937Y-15877D01*
X10937Y-15877D02*
X10948Y-15774D01*
X10948Y-15774D02*
X10981Y-15674D01*
X10981Y-15674D02*
X11033Y-15584D01*
X11033Y-15584D02*
X11103Y-15506D01*
X11103Y-15506D02*
X11187Y-15444D01*
X11187Y-15444D02*
X11283Y-15402D01*
X11283Y-15402D02*
X11385Y-15380D01*
X11385Y-15380D02*
X11489Y-15380D01*
X11489Y-15380D02*
X11591Y-15402D01*
X11591Y-15402D02*
X11687Y-15444D01*
X11687Y-15444D02*
X11771Y-15506D01*
X11771Y-15506D02*
X11841Y-15584D01*
X11841Y-15584D02*
X11893Y-15674D01*
X11893Y-15674D02*
X11926Y-15774D01*
X11926Y-15774D02*
X11937Y-15877D01*
X12921Y-10955D02*
X12910Y-11058D01*
X12910Y-11058D02*
X12877Y-11158D01*
X12877Y-11158D02*
X12825Y-11248D01*
X12825Y-11248D02*
X12755Y-11326D01*
X12755Y-11326D02*
X12671Y-11388D01*
X12671Y-11388D02*
X12575Y-11430D01*
X12575Y-11430D02*
X12473Y-11452D01*
X12473Y-11452D02*
X12369Y-11452D01*
X12369Y-11452D02*
X12267Y-11430D01*
X12267Y-11430D02*
X12171Y-11388D01*
X12171Y-11388D02*
X12087Y-11326D01*
X12087Y-11326D02*
X12017Y-11248D01*
X12017Y-11248D02*
X11965Y-11158D01*
X11965Y-11158D02*
X11932Y-11058D01*
X11932Y-11058D02*
X11921Y-10955D01*
X11921Y-10955D02*
X11932Y-10852D01*
X11932Y-10852D02*
X11965Y-10752D01*
X11965Y-10752D02*
X12017Y-10662D01*
X12017Y-10662D02*
X12087Y-10584D01*
X12087Y-10584D02*
X12171Y-10522D01*
X12171Y-10522D02*
X12267Y-10480D01*
X12267Y-10480D02*
X12369Y-10458D01*
X12369Y-10458D02*
X12473Y-10458D01*
X12473Y-10458D02*
X12575Y-10480D01*
X12575Y-10480D02*
X12671Y-10522D01*
X12671Y-10522D02*
X12755Y-10584D01*
X12755Y-10584D02*
X12825Y-10662D01*
X12825Y-10662D02*
X12877Y-10752D01*
X12877Y-10752D02*
X12910Y-10852D01*
X12910Y-10852D02*
X12921Y-10955D01*
X12921Y-14892D02*
X12910Y-14995D01*
X12910Y-14995D02*
X12877Y-15095D01*
X12877Y-15095D02*
X12825Y-15185D01*
X12825Y-15185D02*
X12755Y-15263D01*
X12755Y-15263D02*
X12671Y-15325D01*
X12671Y-15325D02*
X12575Y-15367D01*
X12575Y-15367D02*
X12473Y-15389D01*
X12473Y-15389D02*
X12369Y-15389D01*
X12369Y-15389D02*
X12267Y-15367D01*
X12267Y-15367D02*
X12171Y-15325D01*
X12171Y-15325D02*
X12087Y-15263D01*
X12087Y-15263D02*
X12017Y-15185D01*
X12017Y-15185D02*
X11965Y-15095D01*
X11965Y-15095D02*
X11932Y-14995D01*
X11932Y-14995D02*
X11921Y-14892D01*
X11921Y-14892D02*
X11932Y-14789D01*
X11932Y-14789D02*
X11965Y-14689D01*
X11965Y-14689D02*
X12017Y-14599D01*
X12017Y-14599D02*
X12087Y-14521D01*
X12087Y-14521D02*
X12171Y-14459D01*
X12171Y-14459D02*
X12267Y-14417D01*
X12267Y-14417D02*
X12369Y-14395D01*
X12369Y-14395D02*
X12473Y-14395D01*
X12473Y-14395D02*
X12575Y-14417D01*
X12575Y-14417D02*
X12671Y-14459D01*
X12671Y-14459D02*
X12755Y-14521D01*
X12755Y-14521D02*
X12825Y-14599D01*
X12825Y-14599D02*
X12877Y-14689D01*
X12877Y-14689D02*
X12910Y-14789D01*
X12910Y-14789D02*
X12921Y-14892D01*
X08000Y-10955D02*
X07989Y-11058D01*
X07989Y-11058D02*
X07956Y-11158D01*
X07956Y-11158D02*
X07904Y-11248D01*
X07904Y-11248D02*
X07834Y-11326D01*
X07834Y-11326D02*
X07750Y-11388D01*
X07750Y-11388D02*
X07654Y-11430D01*
X07654Y-11430D02*
X07552Y-11452D01*
X07552Y-11452D02*
X07448Y-11452D01*
X07448Y-11452D02*
X07346Y-11430D01*
X07346Y-11430D02*
X07250Y-11388D01*
X07250Y-11388D02*
X07166Y-11326D01*
X07166Y-11326D02*
X07096Y-11248D01*
X07096Y-11248D02*
X07044Y-11158D01*
X07044Y-11158D02*
X07011Y-11058D01*
X07011Y-11058D02*
X07000Y-10955D01*
X07000Y-10955D02*
X07011Y-10852D01*
X07011Y-10852D02*
X07044Y-10752D01*
X07044Y-10752D02*
X07096Y-10662D01*
X07096Y-10662D02*
X07166Y-10584D01*
X07166Y-10584D02*
X07250Y-10522D01*
X07250Y-10522D02*
X07346Y-10480D01*
X07346Y-10480D02*
X07448Y-10458D01*
X07448Y-10458D02*
X07552Y-10458D01*
X07552Y-10458D02*
X07654Y-10480D01*
X07654Y-10480D02*
X07750Y-10522D01*
X07750Y-10522D02*
X07834Y-10584D01*
X07834Y-10584D02*
X07904Y-10662D01*
X07904Y-10662D02*
X07956Y-10752D01*
X07956Y-10752D02*
X07989Y-10852D01*
X07989Y-10852D02*
X08000Y-10955D01*
X08000Y-14892D02*
X07989Y-14995D01*
X07989Y-14995D02*
X07956Y-15095D01*
X07956Y-15095D02*
X07904Y-15185D01*
X07904Y-15185D02*
X07834Y-15263D01*
X07834Y-15263D02*
X07750Y-15325D01*
X07750Y-15325D02*
X07654Y-15367D01*
X07654Y-15367D02*
X07552Y-15389D01*
X07552Y-15389D02*
X07448Y-15389D01*
X07448Y-15389D02*
X07346Y-15367D01*
X07346Y-15367D02*
X07250Y-15325D01*
X07250Y-15325D02*
X07166Y-15263D01*
X07166Y-15263D02*
X07096Y-15185D01*
X07096Y-15185D02*
X07044Y-15095D01*
X07044Y-15095D02*
X07011Y-14995D01*
X07011Y-14995D02*
X07000Y-14892D01*
X07000Y-14892D02*
X07011Y-14789D01*
X07011Y-14789D02*
X07044Y-14689D01*
X07044Y-14689D02*
X07096Y-14599D01*
X07096Y-14599D02*
X07166Y-14521D01*
X07166Y-14521D02*
X07250Y-14459D01*
X07250Y-14459D02*
X07346Y-14417D01*
X07346Y-14417D02*
X07448Y-14395D01*
X07448Y-14395D02*
X07552Y-14395D01*
X07552Y-14395D02*
X07654Y-14417D01*
X07654Y-14417D02*
X07750Y-14459D01*
X07750Y-14459D02*
X07834Y-14521D01*
X07834Y-14521D02*
X07904Y-14599D01*
X07904Y-14599D02*
X07956Y-14689D01*
X07956Y-14689D02*
X07989Y-14789D01*
X07989Y-14789D02*
X08000Y-14892D01*
X11937Y-18471D02*
X11926Y-18574D01*
X11926Y-18574D02*
X11893Y-18674D01*
X11893Y-18674D02*
X11841Y-18764D01*
X11841Y-18764D02*
X11771Y-18842D01*
X11771Y-18842D02*
X11687Y-18904D01*
X11687Y-18904D02*
X11591Y-18946D01*
X11591Y-18946D02*
X11489Y-18968D01*
X11489Y-18968D02*
X11385Y-18968D01*
X11385Y-18968D02*
X11283Y-18946D01*
X11283Y-18946D02*
X11187Y-18904D01*
X11187Y-18904D02*
X11103Y-18842D01*
X11103Y-18842D02*
X11033Y-18764D01*
X11033Y-18764D02*
X10981Y-18674D01*
X10981Y-18674D02*
X10948Y-18574D01*
X10948Y-18574D02*
X10937Y-18471D01*
X10937Y-18471D02*
X10948Y-18368D01*
X10948Y-18368D02*
X10981Y-18268D01*
X10981Y-18268D02*
X11033Y-18178D01*
X11033Y-18178D02*
X11103Y-18100D01*
X11103Y-18100D02*
X11187Y-18038D01*
X11187Y-18038D02*
X11283Y-17996D01*
X11283Y-17996D02*
X11385Y-17974D01*
X11385Y-17974D02*
X11489Y-17974D01*
X11489Y-17974D02*
X11591Y-17996D01*
X11591Y-17996D02*
X11687Y-18038D01*
X11687Y-18038D02*
X11771Y-18100D01*
X11771Y-18100D02*
X11841Y-18178D01*
X11841Y-18178D02*
X11893Y-18268D01*
X11893Y-18268D02*
X11926Y-18368D01*
X11926Y-18368D02*
X11937Y-18471D01*
X11937Y-21424D02*
X11926Y-21527D01*
X11926Y-21527D02*
X11893Y-21627D01*
X11893Y-21627D02*
X11841Y-21717D01*
X11841Y-21717D02*
X11771Y-21795D01*
X11771Y-21795D02*
X11687Y-21857D01*
X11687Y-21857D02*
X11591Y-21899D01*
X11591Y-21899D02*
X11489Y-21921D01*
X11489Y-21921D02*
X11385Y-21921D01*
X11385Y-21921D02*
X11283Y-21899D01*
X11283Y-21899D02*
X11187Y-21857D01*
X11187Y-21857D02*
X11103Y-21795D01*
X11103Y-21795D02*
X11033Y-21717D01*
X11033Y-21717D02*
X10981Y-21627D01*
X10981Y-21627D02*
X10948Y-21527D01*
X10948Y-21527D02*
X10937Y-21424D01*
X10937Y-21424D02*
X10948Y-21321D01*
X10948Y-21321D02*
X10981Y-21221D01*
X10981Y-21221D02*
X11033Y-21131D01*
X11033Y-21131D02*
X11103Y-21053D01*
X11103Y-21053D02*
X11187Y-20991D01*
X11187Y-20991D02*
X11283Y-20949D01*
X11283Y-20949D02*
X11385Y-20927D01*
X11385Y-20927D02*
X11489Y-20927D01*
X11489Y-20927D02*
X11591Y-20949D01*
X11591Y-20949D02*
X11687Y-20991D01*
X11687Y-20991D02*
X11771Y-21053D01*
X11771Y-21053D02*
X11841Y-21131D01*
X11841Y-21131D02*
X11893Y-21221D01*
X11893Y-21221D02*
X11926Y-21321D01*
X11926Y-21321D02*
X11937Y-21424D01*
X11937Y-24377D02*
X11926Y-24480D01*
X11926Y-24480D02*
X11893Y-24580D01*
X11893Y-24580D02*
X11841Y-24670D01*
X11841Y-24670D02*
X11771Y-24748D01*
X11771Y-24748D02*
X11687Y-24810D01*
X11687Y-24810D02*
X11591Y-24852D01*
X11591Y-24852D02*
X11489Y-24874D01*
X11489Y-24874D02*
X11385Y-24874D01*
X11385Y-24874D02*
X11283Y-24852D01*
X11283Y-24852D02*
X11187Y-24810D01*
X11187Y-24810D02*
X11103Y-24748D01*
X11103Y-24748D02*
X11033Y-24670D01*
X11033Y-24670D02*
X10981Y-24580D01*
X10981Y-24580D02*
X10948Y-24480D01*
X10948Y-24480D02*
X10937Y-24377D01*
X10937Y-24377D02*
X10948Y-24274D01*
X10948Y-24274D02*
X10981Y-24174D01*
X10981Y-24174D02*
X11033Y-24084D01*
X11033Y-24084D02*
X11103Y-24006D01*
X11103Y-24006D02*
X11187Y-23944D01*
X11187Y-23944D02*
X11283Y-23902D01*
X11283Y-23902D02*
X11385Y-23880D01*
X11385Y-23880D02*
X11489Y-23880D01*
X11489Y-23880D02*
X11591Y-23902D01*
X11591Y-23902D02*
X11687Y-23944D01*
X11687Y-23944D02*
X11771Y-24006D01*
X11771Y-24006D02*
X11841Y-24084D01*
X11841Y-24084D02*
X11893Y-24174D01*
X11893Y-24174D02*
X11926Y-24274D01*
X11926Y-24274D02*
X11937Y-24377D01*
X12921Y-19455D02*
X12910Y-19558D01*
X12910Y-19558D02*
X12877Y-19658D01*
X12877Y-19658D02*
X12825Y-19748D01*
X12825Y-19748D02*
X12755Y-19826D01*
X12755Y-19826D02*
X12671Y-19888D01*
X12671Y-19888D02*
X12575Y-19930D01*
X12575Y-19930D02*
X12473Y-19952D01*
X12473Y-19952D02*
X12369Y-19952D01*
X12369Y-19952D02*
X12267Y-19930D01*
X12267Y-19930D02*
X12171Y-19888D01*
X12171Y-19888D02*
X12087Y-19826D01*
X12087Y-19826D02*
X12017Y-19748D01*
X12017Y-19748D02*
X11965Y-19658D01*
X11965Y-19658D02*
X11932Y-19558D01*
X11932Y-19558D02*
X11921Y-19455D01*
X11921Y-19455D02*
X11932Y-19352D01*
X11932Y-19352D02*
X11965Y-19252D01*
X11965Y-19252D02*
X12017Y-19162D01*
X12017Y-19162D02*
X12087Y-19084D01*
X12087Y-19084D02*
X12171Y-19022D01*
X12171Y-19022D02*
X12267Y-18980D01*
X12267Y-18980D02*
X12369Y-18958D01*
X12369Y-18958D02*
X12473Y-18958D01*
X12473Y-18958D02*
X12575Y-18980D01*
X12575Y-18980D02*
X12671Y-19022D01*
X12671Y-19022D02*
X12755Y-19084D01*
X12755Y-19084D02*
X12825Y-19162D01*
X12825Y-19162D02*
X12877Y-19252D01*
X12877Y-19252D02*
X12910Y-19352D01*
X12910Y-19352D02*
X12921Y-19455D01*
X12921Y-23392D02*
X12910Y-23495D01*
X12910Y-23495D02*
X12877Y-23595D01*
X12877Y-23595D02*
X12825Y-23685D01*
X12825Y-23685D02*
X12755Y-23763D01*
X12755Y-23763D02*
X12671Y-23825D01*
X12671Y-23825D02*
X12575Y-23867D01*
X12575Y-23867D02*
X12473Y-23889D01*
X12473Y-23889D02*
X12369Y-23889D01*
X12369Y-23889D02*
X12267Y-23867D01*
X12267Y-23867D02*
X12171Y-23825D01*
X12171Y-23825D02*
X12087Y-23763D01*
X12087Y-23763D02*
X12017Y-23685D01*
X12017Y-23685D02*
X11965Y-23595D01*
X11965Y-23595D02*
X11932Y-23495D01*
X11932Y-23495D02*
X11921Y-23392D01*
X11921Y-23392D02*
X11932Y-23289D01*
X11932Y-23289D02*
X11965Y-23189D01*
X11965Y-23189D02*
X12017Y-23099D01*
X12017Y-23099D02*
X12087Y-23021D01*
X12087Y-23021D02*
X12171Y-22959D01*
X12171Y-22959D02*
X12267Y-22917D01*
X12267Y-22917D02*
X12369Y-22895D01*
X12369Y-22895D02*
X12473Y-22895D01*
X12473Y-22895D02*
X12575Y-22917D01*
X12575Y-22917D02*
X12671Y-22959D01*
X12671Y-22959D02*
X12755Y-23021D01*
X12755Y-23021D02*
X12825Y-23099D01*
X12825Y-23099D02*
X12877Y-23189D01*
X12877Y-23189D02*
X12910Y-23289D01*
X12910Y-23289D02*
X12921Y-23392D01*
X08000Y-19455D02*
X07989Y-19558D01*
X07989Y-19558D02*
X07956Y-19658D01*
X07956Y-19658D02*
X07904Y-19748D01*
X07904Y-19748D02*
X07834Y-19826D01*
X07834Y-19826D02*
X07750Y-19888D01*
X07750Y-19888D02*
X07654Y-19930D01*
X07654Y-19930D02*
X07552Y-19952D01*
X07552Y-19952D02*
X07448Y-19952D01*
X07448Y-19952D02*
X07346Y-19930D01*
X07346Y-19930D02*
X07250Y-19888D01*
X07250Y-19888D02*
X07166Y-19826D01*
X07166Y-19826D02*
X07096Y-19748D01*
X07096Y-19748D02*
X07044Y-19658D01*
X07044Y-19658D02*
X07011Y-19558D01*
X07011Y-19558D02*
X07000Y-19455D01*
X07000Y-19455D02*
X07011Y-19352D01*
X07011Y-19352D02*
X07044Y-19252D01*
X07044Y-19252D02*
X07096Y-19162D01*
X07096Y-19162D02*
X07166Y-19084D01*
X07166Y-19084D02*
X07250Y-19022D01*
X07250Y-19022D02*
X07346Y-18980D01*
X07346Y-18980D02*
X07448Y-18958D01*
X07448Y-18958D02*
X07552Y-18958D01*
X07552Y-18958D02*
X07654Y-18980D01*
X07654Y-18980D02*
X07750Y-19022D01*
X07750Y-19022D02*
X07834Y-19084D01*
X07834Y-19084D02*
X07904Y-19162D01*
X07904Y-19162D02*
X07956Y-19252D01*
X07956Y-19252D02*
X07989Y-19352D01*
X07989Y-19352D02*
X08000Y-19455D01*
X08000Y-23392D02*
X07989Y-23495D01*
X07989Y-23495D02*
X07956Y-23595D01*
X07956Y-23595D02*
X07904Y-23685D01*
X07904Y-23685D02*
X07834Y-23763D01*
X07834Y-23763D02*
X07750Y-23825D01*
X07750Y-23825D02*
X07654Y-23867D01*
X07654Y-23867D02*
X07552Y-23889D01*
X07552Y-23889D02*
X07448Y-23889D01*
X07448Y-23889D02*
X07346Y-23867D01*
X07346Y-23867D02*
X07250Y-23825D01*
X07250Y-23825D02*
X07166Y-23763D01*
X07166Y-23763D02*
X07096Y-23685D01*
X07096Y-23685D02*
X07044Y-23595D01*
X07044Y-23595D02*
X07011Y-23495D01*
X07011Y-23495D02*
X07000Y-23392D01*
X07000Y-23392D02*
X07011Y-23289D01*
X07011Y-23289D02*
X07044Y-23189D01*
X07044Y-23189D02*
X07096Y-23099D01*
X07096Y-23099D02*
X07166Y-23021D01*
X07166Y-23021D02*
X07250Y-22959D01*
X07250Y-22959D02*
X07346Y-22917D01*
X07346Y-22917D02*
X07448Y-22895D01*
X07448Y-22895D02*
X07552Y-22895D01*
X07552Y-22895D02*
X07654Y-22917D01*
X07654Y-22917D02*
X07750Y-22959D01*
X07750Y-22959D02*
X07834Y-23021D01*
X07834Y-23021D02*
X07904Y-23099D01*
X07904Y-23099D02*
X07956Y-23189D01*
X07956Y-23189D02*
X07989Y-23289D01*
X07989Y-23289D02*
X08000Y-23392D01*
X26750Y-19250D02*
X26744Y-19301D01*
X26744Y-19301D02*
X26728Y-19351D01*
X26728Y-19351D02*
X26702Y-19396D01*
X26702Y-19396D02*
X26667Y-19435D01*
X26667Y-19435D02*
X26625Y-19466D01*
X26625Y-19466D02*
X26577Y-19487D01*
X26577Y-19487D02*
X26526Y-19498D01*
X26526Y-19498D02*
X26474Y-19498D01*
X26474Y-19498D02*
X26423Y-19487D01*
X26423Y-19487D02*
X26375Y-19466D01*
X26375Y-19466D02*
X26333Y-19435D01*
X26333Y-19435D02*
X26298Y-19396D01*
X26298Y-19396D02*
X26272Y-19351D01*
X26272Y-19351D02*
X26256Y-19301D01*
X26256Y-19301D02*
X26250Y-19250D01*
X26250Y-19250D02*
X26256Y-19199D01*
X26256Y-19199D02*
X26272Y-19149D01*
X26272Y-19149D02*
X26298Y-19104D01*
X26298Y-19104D02*
X26333Y-19065D01*
X26333Y-19065D02*
X26375Y-19034D01*
X26375Y-19034D02*
X26423Y-19013D01*
X26423Y-19013D02*
X26474Y-19002D01*
X26474Y-19002D02*
X26526Y-19002D01*
X26526Y-19002D02*
X26577Y-19013D01*
X26577Y-19013D02*
X26625Y-19034D01*
X26625Y-19034D02*
X26667Y-19065D01*
X26667Y-19065D02*
X26702Y-19104D01*
X26702Y-19104D02*
X26728Y-19149D01*
X26728Y-19149D02*
X26744Y-19199D01*
X26744Y-19199D02*
X26750Y-19250D01*
X28750Y-19250D02*
X28744Y-19301D01*
X28744Y-19301D02*
X28728Y-19351D01*
X28728Y-19351D02*
X28702Y-19396D01*
X28702Y-19396D02*
X28667Y-19435D01*
X28667Y-19435D02*
X28625Y-19466D01*
X28625Y-19466D02*
X28577Y-19487D01*
X28577Y-19487D02*
X28526Y-19498D01*
X28526Y-19498D02*
X28474Y-19498D01*
X28474Y-19498D02*
X28423Y-19487D01*
X28423Y-19487D02*
X28375Y-19466D01*
X28375Y-19466D02*
X28333Y-19435D01*
X28333Y-19435D02*
X28298Y-19396D01*
X28298Y-19396D02*
X28272Y-19351D01*
X28272Y-19351D02*
X28256Y-19301D01*
X28256Y-19301D02*
X28250Y-19250D01*
X28250Y-19250D02*
X28256Y-19199D01*
X28256Y-19199D02*
X28272Y-19149D01*
X28272Y-19149D02*
X28298Y-19104D01*
X28298Y-19104D02*
X28333Y-19065D01*
X28333Y-19065D02*
X28375Y-19034D01*
X28375Y-19034D02*
X28423Y-19013D01*
X28423Y-19013D02*
X28474Y-19002D01*
X28474Y-19002D02*
X28526Y-19002D01*
X28526Y-19002D02*
X28577Y-19013D01*
X28577Y-19013D02*
X28625Y-19034D01*
X28625Y-19034D02*
X28667Y-19065D01*
X28667Y-19065D02*
X28702Y-19104D01*
X28702Y-19104D02*
X28728Y-19149D01*
X28728Y-19149D02*
X28744Y-19199D01*
X28744Y-19199D02*
X28750Y-19250D01*
G54D23*
X14700Y-12496D02*
X15234Y-12496D01*
X15234Y-12496D02*
X15300Y-12440D01*
X15300Y-12440D02*
X15300Y-12159D01*
X15300Y-12159D02*
X15234Y-12102D01*
X15234Y-12102D02*
X14700Y-12102D01*
X15300Y-11482D02*
X15300Y-11876D01*
X15300Y-11876D02*
X15100Y-11876D01*
X15100Y-11876D02*
X15034Y-11820D01*
X15034Y-11820D02*
X15034Y-11539D01*
X15034Y-11539D02*
X14967Y-11482D01*
X14967Y-11482D02*
X14767Y-11482D01*
X14767Y-11482D02*
X14700Y-11539D01*
X14700Y-11539D02*
X14700Y-11820D01*
X14700Y-11820D02*
X14767Y-11876D01*
X15700Y-11546D02*
X15700Y-11152D01*
X15700Y-11152D02*
X16300Y-11546D01*
X16300Y-10645D02*
X15700Y-10645D01*
X15700Y-10645D02*
X16167Y-10926D01*
X16167Y-10926D02*
X16167Y-10532D01*
X16300Y-10306D02*
X15700Y-10306D01*
X16300Y-09912D02*
X15700Y-09912D01*
X16034Y-10306D02*
X16034Y-09912D01*
X16234Y-09292D02*
X16300Y-09349D01*
X16300Y-09349D02*
X16300Y-09630D01*
X16300Y-09630D02*
X16234Y-09686D01*
X16234Y-09686D02*
X15767Y-09686D01*
X15767Y-09686D02*
X15700Y-09630D01*
X15700Y-09630D02*
X15700Y-09349D01*
X15700Y-09349D02*
X15767Y-09292D01*
X15700Y-09066D02*
X15700Y-08616D01*
X15700Y-08841D02*
X16300Y-08841D01*
X16300Y-08446D02*
X15700Y-08052D01*
X16234Y-08446D02*
X15767Y-08446D01*
X15767Y-08446D02*
X15700Y-08390D01*
X15700Y-08390D02*
X15700Y-08109D01*
X15700Y-08109D02*
X15767Y-08052D01*
X15767Y-08052D02*
X16234Y-08052D01*
X16234Y-08052D02*
X16300Y-08109D01*
X16300Y-08109D02*
X16300Y-08390D01*
X16300Y-08390D02*
X16234Y-08446D01*
X16300Y-07545D02*
X15700Y-07545D01*
X15700Y-07545D02*
X16167Y-07826D01*
X16167Y-07826D02*
X16167Y-07432D01*
X19004Y-15700D02*
X19004Y-16234D01*
X19004Y-16234D02*
X19060Y-16300D01*
X19060Y-16300D02*
X19341Y-16300D01*
X19341Y-16300D02*
X19398Y-16234D01*
X19398Y-16234D02*
X19398Y-15700D01*
X19736Y-16300D02*
X19961Y-16300D01*
X19849Y-16300D02*
X19849Y-15700D01*
X19849Y-15767D02*
X19736Y-15900D01*
X25644Y-16300D02*
X25644Y-15834D01*
X25644Y-15834D02*
X25756Y-15700D01*
X25756Y-15700D02*
X25925Y-15700D01*
X25925Y-15700D02*
X26038Y-15834D01*
X26038Y-15834D02*
X26038Y-16300D01*
X25644Y-15967D02*
X26038Y-15967D01*
X26264Y-15700D02*
X26714Y-15700D01*
X26489Y-15700D02*
X26489Y-16300D01*
X26884Y-16300D02*
X26884Y-15700D01*
X26884Y-15700D02*
X27109Y-15967D01*
X27109Y-15967D02*
X27334Y-15700D01*
X27334Y-15700D02*
X27334Y-16300D01*
X27898Y-16300D02*
X27504Y-16300D01*
X27504Y-16300D02*
X27504Y-15700D01*
X27504Y-15700D02*
X27898Y-15700D01*
X27504Y-15967D02*
X27729Y-15967D01*
X28461Y-15767D02*
X28461Y-15700D01*
X28461Y-15700D02*
X28180Y-15700D01*
X28180Y-15700D02*
X28124Y-15767D01*
X28124Y-15767D02*
X28124Y-16234D01*
X28124Y-16234D02*
X28180Y-16300D01*
X28180Y-16300D02*
X28461Y-16300D01*
X28461Y-16300D02*
X28518Y-16234D01*
X28518Y-16234D02*
X28518Y-16034D01*
X28518Y-16034D02*
X28349Y-16034D01*
X28744Y-16300D02*
X28744Y-15834D01*
X28744Y-15834D02*
X28856Y-15700D01*
X28856Y-15700D02*
X29025Y-15700D01*
X29025Y-15700D02*
X29138Y-15834D01*
X29138Y-15834D02*
X29138Y-16300D01*
X28744Y-15967D02*
X29138Y-15967D01*
X29645Y-16300D02*
X29645Y-15700D01*
X29645Y-15700D02*
X29364Y-16167D01*
X29364Y-16167D02*
X29758Y-16167D01*
X30040Y-16300D02*
X29984Y-16234D01*
X29984Y-16234D02*
X29984Y-16034D01*
X29984Y-16034D02*
X30040Y-15967D01*
X30040Y-15967D02*
X30321Y-15967D01*
X30321Y-15967D02*
X30378Y-15900D01*
X30378Y-15900D02*
X30378Y-15767D01*
X30378Y-15767D02*
X30321Y-15700D01*
X30321Y-15700D02*
X30040Y-15700D01*
X30040Y-15700D02*
X29984Y-15767D01*
X29984Y-15767D02*
X29984Y-15900D01*
X29984Y-15900D02*
X30040Y-15967D01*
X30321Y-15967D02*
X30378Y-16034D01*
X30378Y-16034D02*
X30378Y-16234D01*
X30378Y-16234D02*
X30321Y-16300D01*
X30321Y-16300D02*
X30040Y-16300D01*
X16150Y-20996D02*
X16773Y-20996D01*
X16773Y-20996D02*
X16850Y-20940D01*
X16850Y-20940D02*
X16850Y-20659D01*
X16850Y-20659D02*
X16773Y-20602D01*
X16773Y-20602D02*
X16150Y-20602D01*
X16150Y-20376D02*
X16150Y-19982D01*
X16150Y-19982D02*
X16228Y-19982D01*
X16228Y-19982D02*
X16462Y-20207D01*
X16462Y-20207D02*
X16462Y-20039D01*
X16462Y-20039D02*
X16539Y-19982D01*
X16539Y-19982D02*
X16773Y-19982D01*
X16773Y-19982D02*
X16850Y-20039D01*
X16850Y-20039D02*
X16850Y-20320D01*
X16850Y-20320D02*
X16773Y-20376D01*
X17702Y-20850D02*
X17702Y-20150D01*
X17702Y-20150D02*
X18002Y-20150D01*
X18002Y-20150D02*
X18052Y-20228D01*
X18052Y-20228D02*
X18052Y-20462D01*
X18052Y-20462D02*
X18002Y-20539D01*
X18002Y-20539D02*
X17702Y-20539D01*
X18616Y-20773D02*
X18566Y-20850D01*
X18566Y-20850D02*
X18316Y-20850D01*
X18316Y-20850D02*
X18266Y-20773D01*
X18266Y-20773D02*
X18266Y-20228D01*
X18266Y-20228D02*
X18316Y-20150D01*
X18316Y-20150D02*
X18566Y-20150D01*
X18566Y-20150D02*
X18616Y-20228D01*
X18880Y-20850D02*
X19130Y-20850D01*
X19130Y-20850D02*
X19180Y-20773D01*
X19180Y-20773D02*
X19180Y-20228D01*
X19180Y-20228D02*
X19130Y-20150D01*
X19130Y-20150D02*
X18880Y-20150D01*
X18880Y-20150D02*
X18830Y-20228D01*
X18830Y-20228D02*
X18830Y-20462D01*
X18830Y-20462D02*
X18880Y-20539D01*
X18880Y-20539D02*
X19130Y-20539D01*
X19130Y-20539D02*
X19180Y-20462D01*
X19394Y-20850D02*
X19744Y-20150D01*
X19394Y-20773D02*
X19394Y-20228D01*
X19394Y-20228D02*
X19444Y-20150D01*
X19444Y-20150D02*
X19694Y-20150D01*
X19694Y-20150D02*
X19744Y-20228D01*
X19744Y-20228D02*
X19744Y-20773D01*
X19744Y-20773D02*
X19694Y-20850D01*
X19694Y-20850D02*
X19444Y-20850D01*
X19444Y-20850D02*
X19394Y-20773D01*
X19958Y-20850D02*
X20308Y-20150D01*
X19958Y-20773D02*
X19958Y-20228D01*
X19958Y-20228D02*
X20008Y-20150D01*
X20008Y-20150D02*
X20258Y-20150D01*
X20258Y-20150D02*
X20308Y-20228D01*
X20308Y-20228D02*
X20308Y-20773D01*
X20308Y-20773D02*
X20258Y-20850D01*
X20258Y-20850D02*
X20008Y-20850D01*
X20008Y-20850D02*
X19958Y-20773D01*
X33148Y-09523D02*
X33091Y-09600D01*
X33091Y-09600D02*
X32810Y-09600D01*
X32810Y-09600D02*
X32754Y-09523D01*
X32754Y-09523D02*
X32754Y-08978D01*
X32754Y-08978D02*
X32810Y-08900D01*
X32810Y-08900D02*
X33091Y-08900D01*
X33091Y-08900D02*
X33148Y-08978D01*
X33655Y-09600D02*
X33655Y-08900D01*
X33655Y-08900D02*
X33374Y-09445D01*
X33374Y-09445D02*
X33768Y-09445D01*
X36850Y-14932D02*
X36150Y-14932D01*
X36150Y-14932D02*
X36462Y-14732D01*
X36462Y-14732D02*
X36150Y-14532D01*
X36150Y-14532D02*
X36850Y-14532D01*
X36850Y-14318D02*
X36850Y-14118D01*
X36850Y-14218D02*
X36150Y-14218D01*
X36150Y-14318D02*
X36150Y-14118D01*
X36850Y-13754D02*
X36150Y-13754D01*
X36150Y-13804D02*
X36150Y-13504D01*
X36150Y-13504D02*
X36228Y-13454D01*
X36228Y-13454D02*
X36773Y-13454D01*
X36773Y-13454D02*
X36850Y-13504D01*
X36850Y-13504D02*
X36850Y-13804D01*
X36850Y-13190D02*
X36850Y-12990D01*
X36850Y-13090D02*
X36150Y-13090D01*
X36150Y-13190D02*
X36150Y-12990D01*
X36850Y-12676D02*
X36850Y-12326D01*
X36773Y-11762D02*
X36850Y-11812D01*
X36850Y-11812D02*
X36850Y-12062D01*
X36850Y-12062D02*
X36773Y-12112D01*
X36773Y-12112D02*
X36228Y-12112D01*
X36228Y-12112D02*
X36150Y-12062D01*
X36150Y-12062D02*
X36150Y-11812D01*
X36150Y-11812D02*
X36228Y-11762D01*
X36850Y-11548D02*
X36150Y-11548D01*
X36462Y-11548D02*
X36384Y-11498D01*
X36384Y-11498D02*
X36384Y-11248D01*
X36384Y-11248D02*
X36462Y-11198D01*
X36462Y-11198D02*
X36850Y-11198D01*
X36384Y-10984D02*
X36384Y-10684D01*
X36384Y-10684D02*
X36462Y-10634D01*
X36462Y-10634D02*
X36850Y-10634D01*
X36850Y-10634D02*
X36850Y-10934D01*
X36850Y-10934D02*
X36773Y-10984D01*
X36773Y-10984D02*
X36695Y-10984D01*
X36695Y-10984D02*
X36617Y-10934D01*
X36617Y-10934D02*
X36617Y-10634D01*
X36850Y-10420D02*
X36384Y-10420D01*
X36462Y-10420D02*
X36384Y-10370D01*
X36384Y-10370D02*
X36384Y-10170D01*
X36384Y-10170D02*
X36462Y-10120D01*
X36462Y-10120D02*
X36850Y-10120D01*
X36850Y-09706D02*
X36773Y-09706D01*
X36850Y-09292D02*
X36850Y-08942D01*
X36773Y-08728D02*
X36850Y-08678D01*
X36850Y-08678D02*
X36850Y-08428D01*
X36850Y-08428D02*
X36773Y-08378D01*
X36773Y-08378D02*
X36539Y-08378D01*
X36539Y-08378D02*
X36462Y-08428D01*
X36462Y-08428D02*
X36462Y-08678D01*
X36462Y-08678D02*
X36384Y-08728D01*
X36384Y-08728D02*
X36228Y-08728D01*
X36228Y-08728D02*
X36150Y-08678D01*
X36150Y-08678D02*
X36150Y-08428D01*
X36150Y-08428D02*
X36228Y-08378D01*
X36617Y-08164D02*
X36617Y-07814D01*
X36617Y-07814D02*
X36462Y-07814D01*
X36462Y-07814D02*
X36384Y-07864D01*
X36384Y-07864D02*
X36384Y-08114D01*
X36384Y-08114D02*
X36462Y-08164D01*
X36462Y-08164D02*
X36773Y-08164D01*
X36773Y-08164D02*
X36850Y-08114D01*
X36850Y-08114D02*
X36850Y-07864D01*
X36850Y-07864D02*
X36773Y-07814D01*
X36150Y-07500D02*
X36150Y-07450D01*
X36150Y-07450D02*
X36850Y-07450D01*
X36850Y-07500D02*
X36850Y-07400D01*
X36617Y-07036D02*
X36617Y-06686D01*
X36617Y-06686D02*
X36462Y-06686D01*
X36462Y-06686D02*
X36384Y-06736D01*
X36384Y-06736D02*
X36384Y-06986D01*
X36384Y-06986D02*
X36462Y-07036D01*
X36462Y-07036D02*
X36773Y-07036D01*
X36773Y-07036D02*
X36850Y-06986D01*
X36850Y-06986D02*
X36850Y-06736D01*
X36850Y-06736D02*
X36773Y-06686D01*
X36773Y-06122D02*
X36850Y-06172D01*
X36850Y-06172D02*
X36850Y-06422D01*
X36850Y-06422D02*
X36773Y-06472D01*
X36773Y-06472D02*
X36462Y-06472D01*
X36462Y-06472D02*
X36384Y-06422D01*
X36384Y-06422D02*
X36384Y-06172D01*
X36384Y-06172D02*
X36462Y-06122D01*
X36773Y-05608D02*
X36850Y-05658D01*
X36850Y-05658D02*
X36850Y-05808D01*
X36850Y-05808D02*
X36773Y-05858D01*
X36773Y-05858D02*
X36150Y-05858D01*
X36384Y-05858D02*
X36384Y-05708D01*
G54D26*
X24034Y-17756D02*
X23984Y-17800D01*
X23984Y-17800D02*
X23734Y-17800D01*
X23734Y-17800D02*
X23684Y-17756D01*
X23684Y-17756D02*
X23684Y-17445D01*
X23684Y-17445D02*
X23734Y-17400D01*
X23734Y-17400D02*
X23984Y-17400D01*
X23984Y-17400D02*
X24034Y-17445D01*
X24208Y-17400D02*
X24558Y-17400D01*
X24558Y-17400D02*
X24558Y-17445D01*
X24558Y-17445D02*
X24358Y-17578D01*
X24358Y-17578D02*
X24508Y-17578D01*
X24508Y-17578D02*
X24558Y-17623D01*
X24558Y-17623D02*
X24558Y-17756D01*
X24558Y-17756D02*
X24508Y-17800D01*
X24508Y-17800D02*
X24258Y-17800D01*
X24258Y-17800D02*
X24208Y-17756D01*
X30434Y-21656D02*
X30384Y-21700D01*
X30384Y-21700D02*
X30134Y-21700D01*
X30134Y-21700D02*
X30084Y-21656D01*
X30084Y-21656D02*
X30084Y-21345D01*
X30084Y-21345D02*
X30134Y-21300D01*
X30134Y-21300D02*
X30384Y-21300D01*
X30384Y-21300D02*
X30434Y-21345D01*
X30958Y-21700D02*
X30608Y-21700D01*
X30608Y-21700D02*
X30608Y-21567D01*
X30608Y-21567D02*
X30658Y-21523D01*
X30658Y-21523D02*
X30908Y-21523D01*
X30908Y-21523D02*
X30958Y-21478D01*
X30958Y-21478D02*
X30958Y-21345D01*
X30958Y-21345D02*
X30908Y-21300D01*
X30908Y-21300D02*
X30658Y-21300D01*
X30658Y-21300D02*
X30608Y-21345D01*
X24934Y-21656D02*
X24884Y-21700D01*
X24884Y-21700D02*
X24634Y-21700D01*
X24634Y-21700D02*
X24584Y-21656D01*
X24584Y-21656D02*
X24584Y-21345D01*
X24584Y-21345D02*
X24634Y-21300D01*
X24634Y-21300D02*
X24884Y-21300D01*
X24884Y-21300D02*
X24934Y-21345D01*
X25208Y-21700D02*
X25408Y-21700D01*
X25308Y-21700D02*
X25308Y-21300D01*
X25308Y-21345D02*
X25208Y-21434D01*
X15134Y-24200D02*
X15134Y-23800D01*
X15084Y-23800D02*
X15384Y-23800D01*
X15384Y-23800D02*
X15434Y-23845D01*
X15434Y-23845D02*
X15434Y-24156D01*
X15434Y-24156D02*
X15384Y-24200D01*
X15384Y-24200D02*
X15084Y-24200D01*
X15708Y-24200D02*
X15908Y-24200D01*
X15808Y-24200D02*
X15808Y-23800D01*
X15808Y-23845D02*
X15708Y-23934D01*
G54D25*
X09687Y-07400D02*
X09687Y-07100D01*
X09687Y-07100D02*
X09912Y-07100D01*
X09912Y-07100D02*
X09950Y-07134D01*
X09950Y-07134D02*
X09950Y-07234D01*
X09950Y-07234D02*
X09912Y-07267D01*
X09912Y-07267D02*
X09687Y-07267D01*
X10343Y-07400D02*
X10080Y-07400D01*
X10080Y-07400D02*
X10080Y-07300D01*
X10080Y-07300D02*
X10118Y-07267D01*
X10118Y-07267D02*
X10305Y-07267D01*
X10305Y-07267D02*
X10343Y-07234D01*
X10343Y-07234D02*
X10343Y-07134D01*
X10343Y-07134D02*
X10305Y-07100D01*
X10305Y-07100D02*
X10118Y-07100D01*
X10118Y-07100D02*
X10080Y-07134D01*
X21187Y-07650D02*
X21187Y-07350D01*
X21187Y-07350D02*
X21412Y-07350D01*
X21412Y-07350D02*
X21450Y-07384D01*
X21450Y-07384D02*
X21450Y-07484D01*
X21450Y-07484D02*
X21412Y-07517D01*
X21412Y-07517D02*
X21187Y-07517D01*
X21843Y-07384D02*
X21805Y-07350D01*
X21805Y-07350D02*
X21618Y-07350D01*
X21618Y-07350D02*
X21580Y-07384D01*
X21580Y-07384D02*
X21580Y-07617D01*
X21580Y-07617D02*
X21618Y-07650D01*
X21618Y-07650D02*
X21805Y-07650D01*
X21805Y-07650D02*
X21843Y-07617D01*
X21843Y-07617D02*
X21843Y-07517D01*
X21843Y-07517D02*
X21805Y-07484D01*
X21805Y-07484D02*
X21618Y-07484D01*
X21618Y-07484D02*
X21580Y-07517D01*
X14650Y-19313D02*
X14350Y-19313D01*
X14350Y-19313D02*
X14350Y-19088D01*
X14350Y-19088D02*
X14384Y-19050D01*
X14384Y-19050D02*
X14484Y-19050D01*
X14484Y-19050D02*
X14517Y-19088D01*
X14517Y-19088D02*
X14517Y-19313D01*
X14350Y-18920D02*
X14350Y-18657D01*
X14350Y-18657D02*
X14650Y-18920D01*
X23687Y-07650D02*
X23687Y-07350D01*
X23687Y-07350D02*
X23912Y-07350D01*
X23912Y-07350D02*
X23950Y-07384D01*
X23950Y-07384D02*
X23950Y-07484D01*
X23950Y-07484D02*
X23912Y-07517D01*
X23912Y-07517D02*
X23687Y-07517D01*
X24080Y-07584D02*
X24080Y-07617D01*
X24080Y-07617D02*
X24118Y-07650D01*
X24118Y-07650D02*
X24305Y-07650D01*
X24305Y-07650D02*
X24343Y-07617D01*
X24343Y-07617D02*
X24343Y-07517D01*
X24343Y-07517D02*
X24268Y-07450D01*
X24268Y-07450D02*
X24080Y-07450D01*
X24080Y-07450D02*
X24080Y-07350D01*
X24080Y-07350D02*
X24343Y-07350D01*
G54D26*
X28084Y-13950D02*
X28084Y-13550D01*
X28084Y-13550D02*
X28384Y-13550D01*
X28384Y-13550D02*
X28434Y-13595D01*
X28434Y-13595D02*
X28434Y-13728D01*
X28434Y-13728D02*
X28384Y-13773D01*
X28384Y-13773D02*
X28084Y-13773D01*
X28708Y-13950D02*
X28908Y-13950D01*
X28808Y-13950D02*
X28808Y-13550D01*
X28808Y-13595D02*
X28708Y-13684D01*
X23497Y-09775D02*
X23497Y-09225D01*
X23497Y-09225D02*
X23872Y-09225D01*
X23872Y-09225D02*
X23935Y-09287D01*
X23935Y-09287D02*
X23935Y-09470D01*
X23935Y-09470D02*
X23872Y-09531D01*
X23872Y-09531D02*
X23497Y-09531D01*
X23685Y-09531D02*
X23935Y-09775D01*
X24132Y-09653D02*
X24132Y-09714D01*
X24132Y-09714D02*
X24195Y-09775D01*
X24195Y-09775D02*
X24507Y-09775D01*
X24507Y-09775D02*
X24570Y-09714D01*
X24570Y-09714D02*
X24570Y-09531D01*
X24570Y-09531D02*
X24445Y-09409D01*
X24445Y-09409D02*
X24132Y-09409D01*
X24132Y-09409D02*
X24132Y-09225D01*
X24132Y-09225D02*
X24570Y-09225D01*
X21497Y-09775D02*
X21497Y-09225D01*
X21497Y-09225D02*
X21872Y-09225D01*
X21872Y-09225D02*
X21935Y-09287D01*
X21935Y-09287D02*
X21935Y-09470D01*
X21935Y-09470D02*
X21872Y-09531D01*
X21872Y-09531D02*
X21497Y-09531D01*
X21685Y-09531D02*
X21935Y-09775D01*
X22570Y-09287D02*
X22507Y-09225D01*
X22507Y-09225D02*
X22195Y-09225D01*
X22195Y-09225D02*
X22132Y-09287D01*
X22132Y-09287D02*
X22132Y-09714D01*
X22132Y-09714D02*
X22195Y-09775D01*
X22195Y-09775D02*
X22507Y-09775D01*
X22507Y-09775D02*
X22570Y-09714D01*
X22570Y-09714D02*
X22570Y-09531D01*
X22570Y-09531D02*
X22507Y-09470D01*
X22507Y-09470D02*
X22195Y-09470D01*
X22195Y-09470D02*
X22132Y-09531D01*
X21525Y-13503D02*
X20975Y-13503D01*
X20975Y-13503D02*
X20975Y-13128D01*
X20975Y-13128D02*
X21037Y-13065D01*
X21037Y-13065D02*
X21220Y-13065D01*
X21220Y-13065D02*
X21281Y-13128D01*
X21281Y-13128D02*
X21281Y-13503D01*
X21281Y-13315D02*
X21525Y-13065D01*
X21525Y-12430D02*
X21525Y-12868D01*
X21525Y-12868D02*
X21342Y-12868D01*
X21342Y-12868D02*
X21281Y-12805D01*
X21281Y-12805D02*
X21281Y-12493D01*
X21281Y-12493D02*
X21220Y-12430D01*
X21220Y-12430D02*
X21037Y-12430D01*
X21037Y-12430D02*
X20975Y-12493D01*
X20975Y-12493D02*
X20975Y-12805D01*
X20975Y-12805D02*
X21037Y-12868D01*
X20025Y-13503D02*
X19475Y-13503D01*
X19475Y-13503D02*
X19475Y-13128D01*
X19475Y-13128D02*
X19537Y-13065D01*
X19537Y-13065D02*
X19720Y-13065D01*
X19720Y-13065D02*
X19781Y-13128D01*
X19781Y-13128D02*
X19781Y-13503D01*
X19781Y-13315D02*
X20025Y-13065D01*
X19475Y-12868D02*
X19475Y-12430D01*
X19475Y-12430D02*
X19537Y-12430D01*
X19537Y-12430D02*
X19720Y-12680D01*
X19720Y-12680D02*
X19720Y-12493D01*
X19720Y-12493D02*
X19781Y-12430D01*
X19781Y-12430D02*
X19964Y-12430D01*
X19964Y-12430D02*
X20025Y-12493D01*
X20025Y-12493D02*
X20025Y-12805D01*
X20025Y-12805D02*
X19964Y-12868D01*
X18525Y-13503D02*
X17975Y-13503D01*
X17975Y-13503D02*
X17975Y-13128D01*
X17975Y-13128D02*
X18037Y-13065D01*
X18037Y-13065D02*
X18220Y-13065D01*
X18220Y-13065D02*
X18281Y-13128D01*
X18281Y-13128D02*
X18281Y-13503D01*
X18281Y-13315D02*
X18525Y-13065D01*
X18525Y-12555D02*
X17975Y-12555D01*
X17975Y-12555D02*
X18403Y-12868D01*
X18403Y-12868D02*
X18403Y-12430D01*
X20025Y-10003D02*
X19475Y-10003D01*
X19475Y-10003D02*
X19475Y-09628D01*
X19475Y-09628D02*
X19537Y-09565D01*
X19537Y-09565D02*
X19720Y-09565D01*
X19720Y-09565D02*
X19781Y-09628D01*
X19781Y-09628D02*
X19781Y-10003D01*
X19781Y-09815D02*
X20025Y-09565D01*
X19475Y-09368D02*
X19475Y-08930D01*
X19475Y-08930D02*
X20025Y-09368D01*
X18525Y-10003D02*
X17975Y-10003D01*
X17975Y-10003D02*
X17975Y-09628D01*
X17975Y-09628D02*
X18037Y-09565D01*
X18037Y-09565D02*
X18220Y-09565D01*
X18220Y-09565D02*
X18281Y-09628D01*
X18281Y-09628D02*
X18281Y-10003D01*
X18281Y-09815D02*
X18525Y-09565D01*
X18525Y-09305D02*
X18464Y-09368D01*
X18464Y-09368D02*
X18281Y-09368D01*
X18281Y-09368D02*
X18220Y-09305D01*
X18220Y-09305D02*
X18220Y-08993D01*
X18220Y-08993D02*
X18159Y-08930D01*
X18159Y-08930D02*
X18037Y-08930D01*
X18037Y-08930D02*
X17975Y-08993D01*
X17975Y-08993D02*
X17975Y-09305D01*
X17975Y-09305D02*
X18037Y-09368D01*
X18037Y-09368D02*
X18159Y-09368D01*
X18159Y-09368D02*
X18220Y-09305D01*
X18220Y-08993D02*
X18281Y-08930D01*
X18281Y-08930D02*
X18464Y-08930D01*
X18464Y-08930D02*
X18525Y-08993D01*
X18525Y-08993D02*
X18525Y-09305D01*
X15775Y-16903D02*
X15225Y-16903D01*
X15225Y-16903D02*
X15225Y-16528D01*
X15225Y-16528D02*
X15287Y-16465D01*
X15287Y-16465D02*
X15470Y-16465D01*
X15470Y-16465D02*
X15531Y-16528D01*
X15531Y-16528D02*
X15531Y-16903D01*
X15531Y-16715D02*
X15775Y-16465D01*
X15775Y-16205D02*
X15775Y-15893D01*
X15775Y-15893D02*
X15714Y-15830D01*
X15714Y-15830D02*
X15287Y-15830D01*
X15287Y-15830D02*
X15225Y-15893D01*
X15225Y-15893D02*
X15225Y-16205D01*
X15225Y-16205D02*
X15287Y-16268D01*
X15287Y-16268D02*
X15470Y-16268D01*
X15470Y-16268D02*
X15531Y-16205D01*
X15531Y-16205D02*
X15531Y-15893D01*
X15531Y-15893D02*
X15470Y-15830D01*
X15275Y-22820D02*
X14725Y-22820D01*
X14725Y-22820D02*
X14725Y-22445D01*
X14725Y-22445D02*
X14787Y-22382D01*
X14787Y-22382D02*
X14970Y-22382D01*
X14970Y-22382D02*
X15031Y-22445D01*
X15031Y-22445D02*
X15031Y-22820D01*
X15031Y-22632D02*
X15275Y-22382D01*
X15275Y-22060D02*
X15275Y-21810D01*
X15275Y-21935D02*
X14725Y-21935D01*
X14787Y-21935D02*
X14909Y-22060D01*
X15275Y-21550D02*
X14725Y-21112D01*
X15214Y-21550D02*
X14787Y-21550D01*
X14787Y-21550D02*
X14725Y-21487D01*
X14725Y-21487D02*
X14725Y-21175D01*
X14725Y-21175D02*
X14787Y-21112D01*
X14787Y-21112D02*
X15214Y-21112D01*
X15214Y-21112D02*
X15275Y-21175D01*
X15275Y-21175D02*
X15275Y-21487D01*
X15275Y-21487D02*
X15214Y-21550D01*
X23025Y-13503D02*
X22475Y-13503D01*
X22475Y-13503D02*
X22475Y-13128D01*
X22475Y-13128D02*
X22537Y-13065D01*
X22537Y-13065D02*
X22720Y-13065D01*
X22720Y-13065D02*
X22781Y-13128D01*
X22781Y-13128D02*
X22781Y-13503D01*
X22781Y-13315D02*
X23025Y-13065D01*
X23025Y-12743D02*
X23025Y-12493D01*
X23025Y-12618D02*
X22475Y-12618D01*
X22537Y-12618D02*
X22659Y-12743D01*
G54D25*
X32687Y-17650D02*
X32687Y-17350D01*
X32687Y-17350D02*
X32912Y-17350D01*
X32912Y-17350D02*
X32950Y-17384D01*
X32950Y-17384D02*
X32950Y-17484D01*
X32950Y-17484D02*
X32912Y-17517D01*
X32912Y-17517D02*
X32687Y-17517D01*
X33118Y-17650D02*
X33080Y-17617D01*
X33080Y-17617D02*
X33080Y-17517D01*
X33080Y-17517D02*
X33118Y-17484D01*
X33118Y-17484D02*
X33305Y-17484D01*
X33305Y-17484D02*
X33343Y-17450D01*
X33343Y-17450D02*
X33343Y-17384D01*
X33343Y-17384D02*
X33305Y-17350D01*
X33305Y-17350D02*
X33118Y-17350D01*
X33118Y-17350D02*
X33080Y-17384D01*
X33080Y-17384D02*
X33080Y-17450D01*
X33080Y-17450D02*
X33118Y-17484D01*
X33305Y-17484D02*
X33343Y-17517D01*
X33343Y-17517D02*
X33343Y-17617D01*
X33343Y-17617D02*
X33305Y-17650D01*
X33305Y-17650D02*
X33118Y-17650D01*
G54D23*
X09436Y-13624D02*
X08836Y-13624D01*
X08836Y-13624D02*
X08836Y-13174D01*
X08836Y-13174D02*
X08903Y-13099D01*
X08903Y-13099D02*
X09103Y-13099D01*
X09103Y-13099D02*
X09170Y-13174D01*
X09170Y-13174D02*
X09170Y-13624D01*
X08836Y-12838D02*
X08836Y-12313D01*
X08836Y-12313D02*
X08903Y-12313D01*
X08903Y-12313D02*
X09103Y-12613D01*
X09103Y-12613D02*
X09103Y-12388D01*
X09103Y-12388D02*
X09170Y-12313D01*
X09170Y-12313D02*
X09370Y-12313D01*
X09370Y-12313D02*
X09436Y-12388D01*
X09436Y-12388D02*
X09436Y-12763D01*
X09436Y-12763D02*
X09370Y-12838D01*
X10618Y-16178D02*
X10018Y-16178D01*
X10018Y-16178D02*
X10285Y-15878D01*
X10285Y-15878D02*
X10018Y-15578D01*
X10018Y-15578D02*
X10618Y-15578D01*
X10618Y-15317D02*
X10618Y-15017D01*
X10618Y-15167D02*
X10018Y-15167D01*
X10018Y-15317D02*
X10018Y-15017D01*
X10618Y-14531D02*
X10018Y-14531D01*
X10018Y-14606D02*
X10018Y-14156D01*
X10018Y-14156D02*
X10085Y-14081D01*
X10085Y-14081D02*
X10552Y-14081D01*
X10552Y-14081D02*
X10618Y-14156D01*
X10618Y-14156D02*
X10618Y-14606D01*
X10618Y-13745D02*
X10618Y-13445D01*
X10618Y-13595D02*
X10018Y-13595D01*
X10018Y-13745D02*
X10018Y-13445D01*
X10618Y-13034D02*
X10618Y-12509D01*
X10018Y-12248D02*
X10018Y-11648D01*
X10018Y-11948D02*
X10618Y-11948D01*
X10618Y-11462D02*
X10018Y-11462D01*
X10618Y-10937D02*
X10018Y-10937D01*
X10352Y-11462D02*
X10352Y-10937D01*
X10618Y-10676D02*
X10018Y-10676D01*
X10018Y-10676D02*
X10018Y-10226D01*
X10018Y-10226D02*
X10085Y-10151D01*
X10085Y-10151D02*
X10285Y-10151D01*
X10285Y-10151D02*
X10352Y-10226D01*
X10352Y-10226D02*
X10352Y-10676D01*
X10352Y-10451D02*
X10618Y-10151D01*
X10018Y-09890D02*
X10552Y-09890D01*
X10552Y-09890D02*
X10618Y-09815D01*
X10618Y-09815D02*
X10618Y-09440D01*
X10618Y-09440D02*
X10552Y-09365D01*
X10552Y-09365D02*
X10018Y-09365D01*
X09436Y-22124D02*
X08836Y-22124D01*
X08836Y-22124D02*
X08836Y-21674D01*
X08836Y-21674D02*
X08903Y-21599D01*
X08903Y-21599D02*
X09103Y-21599D01*
X09103Y-21599D02*
X09170Y-21674D01*
X09170Y-21674D02*
X09170Y-22124D01*
X09436Y-20963D02*
X08836Y-20963D01*
X08836Y-20963D02*
X09303Y-21338D01*
X09303Y-21338D02*
X09303Y-20813D01*
X10618Y-23892D02*
X10018Y-23892D01*
X10018Y-23892D02*
X10285Y-23592D01*
X10285Y-23592D02*
X10018Y-23292D01*
X10018Y-23292D02*
X10618Y-23292D01*
X10618Y-23031D02*
X10618Y-22731D01*
X10618Y-22881D02*
X10018Y-22881D01*
X10018Y-23031D02*
X10018Y-22731D01*
X10618Y-22245D02*
X10018Y-22245D01*
X10018Y-22320D02*
X10018Y-21870D01*
X10018Y-21870D02*
X10085Y-21795D01*
X10085Y-21795D02*
X10552Y-21795D01*
X10552Y-21795D02*
X10618Y-21870D01*
X10618Y-21870D02*
X10618Y-22320D01*
X10618Y-21459D02*
X10618Y-21159D01*
X10618Y-21309D02*
X10018Y-21309D01*
X10018Y-21459D02*
X10018Y-21159D01*
X10618Y-20748D02*
X10618Y-20223D01*
X10618Y-19887D02*
X10618Y-19587D01*
X10618Y-19737D02*
X10018Y-19737D01*
X10018Y-19887D02*
X10018Y-19587D01*
X10618Y-19176D02*
X10018Y-19176D01*
X10018Y-19176D02*
X10618Y-18651D01*
X10618Y-18651D02*
X10018Y-18651D01*
X26876Y-19550D02*
X27401Y-18950D01*
X26876Y-18950D02*
X27401Y-19550D01*
X27812Y-19550D02*
X28112Y-19550D01*
X27962Y-19550D02*
X27962Y-18950D01*
X27962Y-19017D02*
X27812Y-19150D01*
X29972Y-19550D02*
X29447Y-19550D01*
X29447Y-19550D02*
X29447Y-19350D01*
X29447Y-19350D02*
X29522Y-19284D01*
X29522Y-19284D02*
X29897Y-19284D01*
X29897Y-19284D02*
X29972Y-19217D01*
X29972Y-19217D02*
X29972Y-19017D01*
X29972Y-19017D02*
X29897Y-18950D01*
X29897Y-18950D02*
X29522Y-18950D01*
X29522Y-18950D02*
X29447Y-19017D01*
X30233Y-19550D02*
X30758Y-18950D01*
X30233Y-19484D02*
X30233Y-19017D01*
X30233Y-19017D02*
X30308Y-18950D01*
X30308Y-18950D02*
X30683Y-18950D01*
X30683Y-18950D02*
X30758Y-19017D01*
X30758Y-19017D02*
X30758Y-19484D01*
X30758Y-19484D02*
X30683Y-19550D01*
X30683Y-19550D02*
X30308Y-19550D01*
X30308Y-19550D02*
X30233Y-19484D01*
X31019Y-19550D02*
X31019Y-18950D01*
X31019Y-18950D02*
X31319Y-19217D01*
X31319Y-19217D02*
X31619Y-18950D01*
X31619Y-18950D02*
X31619Y-19550D01*
X31805Y-19550D02*
X31805Y-18950D01*
X32330Y-19550D02*
X32330Y-18950D01*
X31805Y-19284D02*
X32330Y-19284D01*
X32591Y-19150D02*
X33116Y-19150D01*
X33116Y-19150D02*
X32591Y-19550D01*
X32591Y-19550D02*
X33116Y-19550D01*
M02*
