G04 (Genere par PCBnew (20080825)) le 22/11/2008-17:02:34*
G01*
G70*
G90*
%MOIN*%
G04 Gerber Fmt 3.4, Leading zero omitted, Abs format*
%FSLAX34Y34*%
G04 APERTURE LIST*
%ADD10C,0.015000*%
%ADD11R,0.090000X0.062000*%
%ADD12O,0.090000X0.062000*%
%ADD13C,0.055000*%
%ADD14R,0.055000X0.055000*%
%ADD15R,0.062000X0.090000*%
%ADD16O,0.062000X0.090000*%
%ADD17R,0.060000X0.060000*%
%ADD18C,0.060000*%
%ADD19C,0.100000*%
%ADD20C,0.050000*%
%ADD21C,0.045000*%
%ADD22C,0.002500*%
%ADD23C,0.012000*%
%ADD24C,0.015000*%
%ADD25C,0.006000*%
%ADD26C,0.008000*%
%ADD27C,0.001000*%
%ADD28R,0.110000X0.082000*%
%ADD29O,0.110000X0.082000*%
%ADD30C,0.075000*%
%ADD31R,0.075000X0.075000*%
%ADD32R,0.082000X0.110000*%
%ADD33O,0.082000X0.110000*%
%ADD34R,0.080000X0.080000*%
%ADD35C,0.080000*%
%ADD36C,0.120000*%
%ADD37C,0.070000*%
%ADD38C,0.010000*%
G04 APERTURE END LIST*
G54D10*
X37500Y-05500D02*
X06500Y-05500D01*
X37500Y-26500D02*
X37500Y-05500D01*
X06500Y-26500D02*
X37500Y-26500D01*
X06500Y-05500D02*
X06500Y-26500D01*
G54D28*
X17000Y-13000D03*
G54D29*
X17000Y-12000D03*
X17000Y-11000D03*
X17000Y-10000D03*
X17000Y-09000D03*
X17000Y-08000D03*
X17000Y-07000D03*
X14000Y-07000D03*
X14000Y-08000D03*
X14000Y-09000D03*
X14000Y-10000D03*
X14000Y-11000D03*
X14000Y-12000D03*
X14000Y-13000D03*
G54D30*
X18500Y-17500D03*
X19500Y-17500D03*
X20500Y-17500D03*
X21500Y-17500D03*
X22500Y-17500D03*
X23500Y-17500D03*
X24500Y-17500D03*
X25500Y-17500D03*
X26500Y-17500D03*
X27500Y-17500D03*
X28500Y-17500D03*
X29500Y-17500D03*
X30500Y-17500D03*
G54D31*
X17500Y-17500D03*
G54D30*
X30500Y-14500D03*
X29500Y-14500D03*
X28500Y-14500D03*
X27500Y-14500D03*
X26500Y-14500D03*
X25500Y-14500D03*
X24500Y-14500D03*
X23500Y-14500D03*
X22500Y-14500D03*
X21500Y-14500D03*
X20500Y-14500D03*
X19500Y-14500D03*
X18500Y-14500D03*
X17500Y-14500D03*
G54D32*
X17500Y-22000D03*
G54D33*
X18500Y-22000D03*
X19500Y-22000D03*
X20500Y-22000D03*
X20500Y-19000D03*
X19500Y-19000D03*
X18500Y-19000D03*
X17500Y-19000D03*
G54D28*
X31750Y-10250D03*
G54D29*
X31750Y-11250D03*
X31750Y-12250D03*
X31750Y-13250D03*
X34750Y-13250D03*
X34750Y-12250D03*
X34750Y-11250D03*
X34750Y-10250D03*
G54D30*
X23500Y-18500D03*
X24500Y-18500D03*
X28500Y-21500D03*
X29500Y-21500D03*
X26000Y-21500D03*
X27000Y-21500D03*
G54D31*
X14000Y-24000D03*
G54D30*
X17000Y-24000D03*
G54D34*
X10500Y-08000D03*
G54D35*
X09500Y-08000D03*
G54D34*
X21000Y-08500D03*
G54D35*
X22000Y-08500D03*
G54D34*
X14000Y-19500D03*
G54D35*
X14000Y-18500D03*
G54D34*
X23500Y-08500D03*
G54D35*
X24500Y-08500D03*
G54D34*
X29500Y-11750D03*
G54D35*
X29500Y-12750D03*
X28500Y-11750D03*
X28500Y-12750D03*
X27500Y-11750D03*
X27500Y-12750D03*
G54D30*
X24000Y-10500D03*
X25000Y-10500D03*
X22000Y-10500D03*
X23000Y-10500D03*
X22000Y-12000D03*
X22000Y-13000D03*
X20500Y-12000D03*
X20500Y-13000D03*
X19000Y-12000D03*
X19000Y-13000D03*
X20500Y-10500D03*
X20500Y-09500D03*
X19000Y-10500D03*
X19000Y-09500D03*
X14500Y-16500D03*
X14500Y-15500D03*
X14000Y-22000D03*
X14000Y-21000D03*
X23500Y-12000D03*
X23500Y-13000D03*
G54D34*
X33000Y-15500D03*
G54D35*
X33000Y-16500D03*
G54D36*
X11437Y-09971D03*
X11437Y-12924D03*
X11437Y-15877D03*
X12421Y-10955D03*
X12421Y-14892D03*
X07500Y-10955D03*
X07500Y-14892D03*
X11437Y-18471D03*
X11437Y-21424D03*
X11437Y-24377D03*
X12421Y-19455D03*
X12421Y-23392D03*
X07500Y-19455D03*
X07500Y-23392D03*
G54D37*
X26500Y-19250D03*
X28500Y-19250D03*
M02*
