G04 (Genere par PCBnew (20080825)) le 22/11/2008-17:02:34*
G01*
G70*
G90*
%MOIN*%
G04 Gerber Fmt 3.4, Leading zero omitted, Abs format*
%FSLAX34Y34*%
G04 APERTURE LIST*
%ADD10C,0.015000*%
%ADD11R,0.090000X0.062000*%
%ADD12O,0.090000X0.062000*%
%ADD13C,0.055000*%
%ADD14R,0.055000X0.055000*%
%ADD15R,0.062000X0.090000*%
%ADD16O,0.062000X0.090000*%
%ADD17R,0.060000X0.060000*%
%ADD18C,0.060000*%
%ADD19C,0.100000*%
%ADD20C,0.050000*%
%ADD21C,0.045000*%
%ADD22C,0.002500*%
%ADD23C,0.012000*%
%ADD24C,0.015000*%
%ADD25C,0.006000*%
%ADD26C,0.008000*%
%ADD27C,0.001000*%
%ADD28R,0.110000X0.082000*%
%ADD29O,0.110000X0.082000*%
%ADD30C,0.075000*%
%ADD31R,0.075000X0.075000*%
%ADD32R,0.082000X0.110000*%
%ADD33O,0.082000X0.110000*%
%ADD34R,0.080000X0.080000*%
%ADD35C,0.080000*%
%ADD36C,0.120000*%
%ADD37C,0.070000*%
%ADD38C,0.010000*%
G04 APERTURE END LIST*
G54D10*
X37500Y-05500D02*
X06500Y-05500D01*
X37500Y-26500D02*
X37500Y-05500D01*
X06500Y-26500D02*
X37500Y-26500D01*
X06500Y-05500D02*
X06500Y-26500D01*
G54D11*
X17000Y-13000D03*
G54D12*
X17000Y-12000D03*
X17000Y-11000D03*
X17000Y-10000D03*
X17000Y-09000D03*
X17000Y-08000D03*
X17000Y-07000D03*
X14000Y-07000D03*
X14000Y-08000D03*
X14000Y-09000D03*
X14000Y-10000D03*
X14000Y-11000D03*
X14000Y-12000D03*
X14000Y-13000D03*
G54D13*
X18500Y-17500D03*
X19500Y-17500D03*
X20500Y-17500D03*
X21500Y-17500D03*
X22500Y-17500D03*
X23500Y-17500D03*
X24500Y-17500D03*
X25500Y-17500D03*
X26500Y-17500D03*
X27500Y-17500D03*
X28500Y-17500D03*
X29500Y-17500D03*
X30500Y-17500D03*
G54D14*
X17500Y-17500D03*
G54D13*
X30500Y-14500D03*
X29500Y-14500D03*
X28500Y-14500D03*
X27500Y-14500D03*
X26500Y-14500D03*
X25500Y-14500D03*
X24500Y-14500D03*
X23500Y-14500D03*
X22500Y-14500D03*
X21500Y-14500D03*
X20500Y-14500D03*
X19500Y-14500D03*
X18500Y-14500D03*
X17500Y-14500D03*
G54D15*
X17500Y-22000D03*
G54D16*
X18500Y-22000D03*
X19500Y-22000D03*
X20500Y-22000D03*
X20500Y-19000D03*
X19500Y-19000D03*
X18500Y-19000D03*
X17500Y-19000D03*
G54D11*
X31750Y-10250D03*
G54D12*
X31750Y-11250D03*
X31750Y-12250D03*
X31750Y-13250D03*
X34750Y-13250D03*
X34750Y-12250D03*
X34750Y-11250D03*
X34750Y-10250D03*
G54D13*
X23500Y-18500D03*
X24500Y-18500D03*
X28500Y-21500D03*
X29500Y-21500D03*
X26000Y-21500D03*
X27000Y-21500D03*
G54D14*
X14000Y-24000D03*
G54D13*
X17000Y-24000D03*
G54D17*
X10500Y-08000D03*
G54D18*
X09500Y-08000D03*
G54D17*
X21000Y-08500D03*
G54D18*
X22000Y-08500D03*
G54D17*
X14000Y-19500D03*
G54D18*
X14000Y-18500D03*
G54D17*
X23500Y-08500D03*
G54D18*
X24500Y-08500D03*
G54D17*
X29500Y-11750D03*
G54D18*
X29500Y-12750D03*
X28500Y-11750D03*
X28500Y-12750D03*
X27500Y-11750D03*
X27500Y-12750D03*
G54D13*
X24000Y-10500D03*
X25000Y-10500D03*
X22000Y-10500D03*
X23000Y-10500D03*
X22000Y-12000D03*
X22000Y-13000D03*
X20500Y-12000D03*
X20500Y-13000D03*
X19000Y-12000D03*
X19000Y-13000D03*
X20500Y-10500D03*
X20500Y-09500D03*
X19000Y-10500D03*
X19000Y-09500D03*
X14500Y-16500D03*
X14500Y-15500D03*
X14000Y-22000D03*
X14000Y-21000D03*
X23500Y-12000D03*
X23500Y-13000D03*
G54D17*
X33000Y-15500D03*
G54D18*
X33000Y-16500D03*
G54D19*
X11437Y-09971D03*
X11437Y-12924D03*
X11437Y-15877D03*
X12421Y-10955D03*
X12421Y-14892D03*
X07500Y-10955D03*
X07500Y-14892D03*
X11437Y-18471D03*
X11437Y-21424D03*
X11437Y-24377D03*
X12421Y-19455D03*
X12421Y-23392D03*
X07500Y-19455D03*
X07500Y-23392D03*
G54D20*
X26500Y-19250D03*
X28500Y-19250D03*
G54D21*
X25750Y-08750D03*
X25750Y-12500D03*
X26250Y-10500D03*
G54D10*
X17000Y-16000D02*
X17000Y-13000D01*
X18500Y-17500D02*
X19000Y-18000D01*
X19000Y-18000D02*
X19000Y-19750D01*
X19000Y-19750D02*
X20500Y-21250D01*
X20500Y-21250D02*
X20500Y-22000D01*
X18500Y-17500D02*
X17000Y-16000D01*
X17000Y-12000D02*
X17000Y-11000D01*
X12421Y-14892D02*
X12500Y-15000D01*
X12500Y-15000D02*
X13250Y-14250D01*
X13250Y-14250D02*
X13250Y-12500D01*
X13250Y-12500D02*
X14750Y-12500D01*
X14750Y-12500D02*
X16250Y-11000D01*
X16250Y-11000D02*
X16250Y-10500D01*
X16250Y-10500D02*
X16500Y-10500D01*
X16500Y-10500D02*
X17000Y-10000D01*
X34750Y-11250D02*
X34750Y-10250D01*
X24500Y-18500D02*
X24500Y-17500D01*
X34750Y-11250D02*
X34750Y-12250D01*
X34750Y-13250D02*
X34750Y-12250D01*
X25000Y-10500D02*
X24500Y-10000D01*
X24500Y-10000D02*
X24500Y-08500D01*
X24500Y-17500D02*
X23500Y-16500D01*
X23500Y-16500D02*
X23500Y-14500D01*
X23500Y-14500D02*
X25000Y-13000D01*
X25000Y-13000D02*
X25000Y-10500D01*
X34750Y-13250D02*
X33500Y-14500D01*
X33500Y-14500D02*
X33500Y-16000D01*
X33500Y-16000D02*
X33000Y-16500D01*
X17000Y-07000D02*
X16750Y-07000D01*
X16750Y-07000D02*
X14750Y-09000D01*
X14750Y-09000D02*
X14750Y-09500D01*
X14750Y-09500D02*
X13250Y-09500D01*
X13250Y-09500D02*
X13250Y-11500D01*
X13250Y-11500D02*
X13000Y-11750D01*
X13000Y-11750D02*
X12750Y-11750D01*
X12750Y-11750D02*
X11500Y-13000D01*
X11500Y-13000D02*
X11437Y-12924D01*
X23500Y-18500D02*
X23500Y-17500D01*
X14000Y-13000D02*
X14000Y-16000D01*
X14000Y-16000D02*
X14500Y-16500D01*
X25750Y-08750D02*
X25000Y-08000D01*
X25000Y-08000D02*
X24000Y-08000D01*
X24000Y-08000D02*
X24000Y-09000D01*
X24000Y-09000D02*
X23750Y-09000D01*
X23750Y-09000D02*
X22750Y-10000D01*
X22750Y-10000D02*
X22500Y-10000D01*
X22500Y-10000D02*
X22500Y-13500D01*
X22500Y-13500D02*
X22250Y-13500D01*
X22250Y-13500D02*
X22000Y-13750D01*
X22000Y-13750D02*
X22000Y-15000D01*
X22000Y-15000D02*
X22500Y-15500D01*
X22500Y-15500D02*
X22500Y-17500D01*
X26000Y-19750D02*
X26000Y-21500D01*
X25500Y-17500D02*
X26500Y-18500D01*
X26500Y-18500D02*
X26500Y-19250D01*
X26500Y-19250D02*
X26000Y-19750D01*
X28500Y-19250D02*
X28500Y-21500D01*
X31750Y-11250D02*
X31500Y-11250D01*
X31500Y-11250D02*
X30000Y-12750D01*
X30000Y-12750D02*
X30000Y-15000D01*
X30000Y-15000D02*
X27500Y-17500D01*
X31000Y-15000D02*
X31000Y-12750D01*
X31000Y-12750D02*
X31250Y-12750D01*
X31250Y-12750D02*
X31750Y-12250D01*
X28500Y-17500D02*
X31000Y-15000D01*
X31750Y-15250D02*
X31750Y-13250D01*
X29500Y-17500D02*
X31750Y-15250D01*
X25750Y-12500D02*
X26000Y-12250D01*
X26000Y-12250D02*
X26000Y-11500D01*
X26000Y-11500D02*
X26250Y-11250D01*
X26250Y-11250D02*
X26250Y-10500D01*
X28500Y-12750D02*
X28500Y-14500D01*
X28000Y-14000D02*
X28000Y-12250D01*
X28000Y-12250D02*
X29000Y-12250D01*
X29000Y-12250D02*
X29500Y-11750D01*
X27500Y-14500D02*
X28000Y-14000D01*
X28500Y-11750D02*
X28000Y-11250D01*
X28000Y-11250D02*
X27000Y-11250D01*
X27000Y-11250D02*
X26500Y-11750D01*
X26500Y-11750D02*
X26500Y-14500D01*
X22500Y-14000D02*
X22500Y-14500D01*
X23500Y-13000D02*
X22500Y-14000D01*
X21500Y-13500D02*
X21500Y-14500D01*
X22000Y-13000D02*
X21500Y-13500D01*
X20500Y-14500D02*
X20500Y-13000D01*
X19500Y-14500D02*
X19000Y-14000D01*
X19000Y-14000D02*
X19000Y-13000D01*
X14000Y-22000D02*
X14000Y-24000D01*
X18500Y-22000D02*
X18000Y-22500D01*
X18000Y-22500D02*
X18000Y-22750D01*
X18000Y-22750D02*
X17000Y-23750D01*
X17000Y-23750D02*
X17000Y-24000D01*
X12421Y-23392D02*
X12500Y-23500D01*
X12500Y-23500D02*
X13500Y-22500D01*
X13500Y-22500D02*
X13500Y-19000D01*
X13500Y-19000D02*
X14000Y-18500D01*
X12421Y-10955D02*
X12500Y-11000D01*
X12500Y-11000D02*
X12250Y-10750D01*
X12250Y-10750D02*
X12250Y-09500D01*
X12250Y-09500D02*
X12000Y-09250D01*
X12000Y-09250D02*
X11750Y-09250D01*
X11750Y-09250D02*
X10500Y-08000D01*
X19000Y-10500D02*
X19000Y-12000D01*
X21000Y-08500D02*
X20500Y-08500D01*
X20500Y-08500D02*
X19500Y-09500D01*
X19500Y-09500D02*
X19500Y-10000D01*
X19500Y-10000D02*
X19000Y-10500D01*
X14000Y-19500D02*
X14000Y-21000D01*
X24000Y-10500D02*
X23500Y-11000D01*
X23500Y-11000D02*
X23500Y-12000D01*
X22000Y-10500D02*
X22000Y-12000D01*
X20500Y-10500D02*
X20500Y-12000D01*
M02*
