M48
;DRILL file {PCBnew (20080825)} date 22/11/2008-17:02:37
;FORMAT={-.-/ absolute / inch / decimal}
R,T
VER,1
FMAT,2
INCH,TZ
TCST,OFF
ICI,OFF
ATC,ON
T1C0.025
T2C0.032
T3C0.040
T4C0.064
%
M47
G05
M72
T1
X2.575Y0.875
X2.575Y1.250
X2.625Y1.050
T2
X1.400Y0.700
X1.400Y0.800
X1.400Y0.900
X1.400Y1.000
X1.400Y1.100
X1.400Y1.200
X1.400Y1.300
X1.400Y2.100
X1.400Y2.200
X1.400Y2.400
X1.450Y1.550
X1.450Y1.650
X1.700Y0.700
X1.700Y0.800
X1.700Y0.900
X1.700Y1.000
X1.700Y1.100
X1.700Y1.200
X1.700Y1.300
X1.700Y2.400
X1.750Y1.450
X1.750Y1.750
X1.750Y1.900
X1.750Y2.200
X1.850Y1.450
X1.850Y1.750
X1.850Y1.900
X1.850Y2.200
X1.900Y0.950
X1.900Y1.050
X1.900Y1.200
X1.900Y1.300
X1.950Y1.450
X1.950Y1.750
X1.950Y1.900
X1.950Y2.200
X2.050Y0.950
X2.050Y1.050
X2.050Y1.200
X2.050Y1.300
X2.050Y1.450
X2.050Y1.750
X2.050Y1.900
X2.050Y2.200
X2.150Y1.450
X2.150Y1.750
X2.200Y1.050
X2.200Y1.200
X2.200Y1.300
X2.250Y1.450
X2.250Y1.750
X2.300Y1.050
X2.350Y1.200
X2.350Y1.300
X2.350Y1.450
X2.350Y1.750
X2.350Y1.850
X2.400Y1.050
X2.450Y1.450
X2.450Y1.750
X2.450Y1.850
X2.500Y1.050
X2.550Y1.450
X2.550Y1.750
X2.600Y2.150
X2.650Y1.450
X2.650Y1.750
X2.650Y1.925
X2.700Y2.150
X2.750Y1.450
X2.750Y1.750
X2.850Y1.450
X2.850Y1.750
X2.850Y1.925
X2.850Y2.150
X2.950Y1.450
X2.950Y1.750
X2.950Y2.150
X3.050Y1.450
X3.050Y1.750
X3.175Y1.025
X3.175Y1.125
X3.175Y1.225
X3.175Y1.325
X3.475Y1.025
X3.475Y1.125
X3.475Y1.225
X3.475Y1.325
T3
X0.950Y0.800
X1.050Y0.800
X1.400Y1.850
X1.400Y1.950
X2.100Y0.850
X2.200Y0.850
X2.350Y0.850
X2.450Y0.850
X2.750Y1.175
X2.750Y1.275
X2.850Y1.175
X2.850Y1.275
X2.950Y1.175
X2.950Y1.275
X3.300Y1.550
X3.300Y1.650
T4
X0.750Y1.095
X0.750Y1.489
X0.750Y1.945
X0.750Y2.339
X1.144Y0.997
X1.144Y1.292
X1.144Y1.588
X1.144Y1.847
X1.144Y2.142
X1.144Y2.438
X1.242Y1.095
X1.242Y1.489
X1.242Y1.945
X1.242Y2.339
T0
M30
